<?xml version="1.0" encoding="utf-8" standalone="no"?>
<!DOCTYPE svg PUBLIC "-//W3C//DTD SVG 1.1//EN"
  "http://www.w3.org/Graphics/SVG/1.1/DTD/svg11.dtd">
<!-- Created with matplotlib (http://matplotlib.org/) -->
<svg height="720pt" version="1.1" viewBox="0 0 720 720" width="720pt" xmlns="http://www.w3.org/2000/svg" xmlns:xlink="http://www.w3.org/1999/xlink">
 <defs>
  <style type="text/css">
*{stroke-linecap:butt;stroke-linejoin:round;}
  </style>
 </defs>
 <g id="figure_1">
  <g id="patch_1">
   <path d="M 0 720 
L 720 720 
L 720 0 
L 0 0 
z
" style="fill:#ffffff;"/>
  </g>
  <g id="axes_1">
   <g id="patch_2">
    <path d="M 90 630 
L 648 630 
L 648 86.4 
L 90 86.4 
z
" style="fill:#ffffff;"/>
   </g>
   <g id="patch_3">
    <path clip-path="url(#p9f08b5d1eb)" d="M 90 630 
L 94.689076 630 
L 94.689076 615.410439 
L 90 615.410439 
z
" style="fill:#4c72b0;"/>
   </g>
   <g id="patch_4">
    <path clip-path="url(#p9f08b5d1eb)" d="M 94.689076 630 
L 99.378151 630 
L 99.378151 618.85248 
L 94.689076 618.85248 
z
" style="fill:#4c72b0;"/>
   </g>
   <g id="patch_5">
    <path clip-path="url(#p9f08b5d1eb)" d="M 99.378151 630 
L 104.067227 630 
L 104.067227 618.65691 
L 99.378151 618.65691 
z
" style="fill:#4c72b0;"/>
   </g>
   <g id="patch_6">
    <path clip-path="url(#p9f08b5d1eb)" d="M 104.067227 630 
L 108.756303 630 
L 108.756303 619.165393 
L 104.067227 619.165393 
z
" style="fill:#4c72b0;"/>
   </g>
   <g id="patch_7">
    <path clip-path="url(#p9f08b5d1eb)" d="M 108.756303 630 
L 113.445378 630 
L 113.445378 616.192721 
L 108.756303 616.192721 
z
" style="fill:#4c72b0;"/>
   </g>
   <g id="patch_8">
    <path clip-path="url(#p9f08b5d1eb)" d="M 113.445378 630 
L 118.134454 630 
L 118.134454 615.175754 
L 113.445378 615.175754 
z
" style="fill:#4c72b0;"/>
   </g>
   <g id="patch_9">
    <path clip-path="url(#p9f08b5d1eb)" d="M 118.134454 630 
L 122.823529 630 
L 122.823529 612.359539 
L 118.134454 612.359539 
z
" style="fill:#4c72b0;"/>
   </g>
   <g id="patch_10">
    <path clip-path="url(#p9f08b5d1eb)" d="M 122.823529 630 
L 127.512605 630 
L 127.512605 610.912317 
L 122.823529 610.912317 
z
" style="fill:#4c72b0;"/>
   </g>
   <g id="patch_11">
    <path clip-path="url(#p9f08b5d1eb)" d="M 127.512605 630 
L 132.201681 630 
L 132.201681 608.682813 
L 127.512605 608.682813 
z
" style="fill:#4c72b0;"/>
   </g>
   <g id="patch_12">
    <path clip-path="url(#p9f08b5d1eb)" d="M 132.201681 630 
L 136.890756 630 
L 136.890756 610.951431 
L 132.201681 610.951431 
z
" style="fill:#4c72b0;"/>
   </g>
   <g id="patch_13">
    <path clip-path="url(#p9f08b5d1eb)" d="M 136.890756 630 
L 141.579832 630 
L 141.579832 608.565471 
L 136.890756 608.565471 
z
" style="fill:#4c72b0;"/>
   </g>
   <g id="patch_14">
    <path clip-path="url(#p9f08b5d1eb)" d="M 141.579832 630 
L 146.268908 630 
L 146.268908 611.147002 
L 141.579832 611.147002 
z
" style="fill:#4c72b0;"/>
   </g>
   <g id="patch_15">
    <path clip-path="url(#p9f08b5d1eb)" d="M 146.268908 630 
L 150.957983 630 
L 150.957983 609.269525 
L 146.268908 609.269525 
z
" style="fill:#4c72b0;"/>
   </g>
   <g id="patch_16">
    <path clip-path="url(#p9f08b5d1eb)" d="M 150.957983 630 
L 155.647059 630 
L 155.647059 610.247377 
L 150.957983 610.247377 
z
" style="fill:#4c72b0;"/>
   </g>
   <g id="patch_17">
    <path clip-path="url(#p9f08b5d1eb)" d="M 155.647059 630 
L 160.336134 630 
L 160.336134 612.94625 
L 155.647059 612.94625 
z
" style="fill:#4c72b0;"/>
   </g>
   <g id="patch_18">
    <path clip-path="url(#p9f08b5d1eb)" d="M 160.336134 630 
L 165.02521 630 
L 165.02521 613.298277 
L 160.336134 613.298277 
z
" style="fill:#4c72b0;"/>
   </g>
   <g id="patch_19">
    <path clip-path="url(#p9f08b5d1eb)" d="M 165.02521 630 
L 169.714286 630 
L 169.714286 614.119674 
L 165.02521 614.119674 
z
" style="fill:#4c72b0;"/>
   </g>
   <g id="patch_20">
    <path clip-path="url(#p9f08b5d1eb)" d="M 169.714286 630 
L 174.403361 630 
L 174.403361 610.834089 
L 169.714286 610.834089 
z
" style="fill:#4c72b0;"/>
   </g>
   <g id="patch_21">
    <path clip-path="url(#p9f08b5d1eb)" d="M 174.403361 630 
L 179.092437 630 
L 179.092437 608.878384 
L 174.403361 608.878384 
z
" style="fill:#4c72b0;"/>
   </g>
   <g id="patch_22">
    <path clip-path="url(#p9f08b5d1eb)" d="M 179.092437 630 
L 183.781513 630 
L 183.781513 605.98394 
L 179.092437 605.98394 
z
" style="fill:#4c72b0;"/>
   </g>
   <g id="patch_23">
    <path clip-path="url(#p9f08b5d1eb)" d="M 183.781513 630 
L 188.470588 630 
L 188.470588 600.977335 
L 183.781513 600.977335 
z
" style="fill:#4c72b0;"/>
   </g>
   <g id="patch_24">
    <path clip-path="url(#p9f08b5d1eb)" d="M 188.470588 630 
L 193.159664 630 
L 193.159664 604.145577 
L 188.470588 604.145577 
z
" style="fill:#4c72b0;"/>
   </g>
   <g id="patch_25">
    <path clip-path="url(#p9f08b5d1eb)" d="M 193.159664 630 
L 197.848739 630 
L 197.848739 599.334542 
L 193.159664 599.334542 
z
" style="fill:#4c72b0;"/>
   </g>
   <g id="patch_26">
    <path clip-path="url(#p9f08b5d1eb)" d="M 197.848739 630 
L 202.537815 630 
L 202.537815 601.40759 
L 197.848739 601.40759 
z
" style="fill:#4c72b0;"/>
   </g>
   <g id="patch_27">
    <path clip-path="url(#p9f08b5d1eb)" d="M 202.537815 630 
L 207.226891 630 
L 207.226891 602.228986 
L 202.537815 602.228986 
z
" style="fill:#4c72b0;"/>
   </g>
   <g id="patch_28">
    <path clip-path="url(#p9f08b5d1eb)" d="M 207.226891 630 
L 211.915966 630 
L 211.915966 601.524932 
L 207.226891 601.524932 
z
" style="fill:#4c72b0;"/>
   </g>
   <g id="patch_29">
    <path clip-path="url(#p9f08b5d1eb)" d="M 211.915966 630 
L 216.605042 630 
L 216.605042 601.759617 
L 211.915966 601.759617 
z
" style="fill:#4c72b0;"/>
   </g>
   <g id="patch_30">
    <path clip-path="url(#p9f08b5d1eb)" d="M 216.605042 630 
L 221.294118 630 
L 221.294118 601.798731 
L 216.605042 601.798731 
z
" style="fill:#4c72b0;"/>
   </g>
   <g id="patch_31">
    <path clip-path="url(#p9f08b5d1eb)" d="M 221.294118 630 
L 225.983193 630 
L 225.983193 597.261495 
L 221.294118 597.261495 
z
" style="fill:#4c72b0;"/>
   </g>
   <g id="patch_32">
    <path clip-path="url(#p9f08b5d1eb)" d="M 225.983193 630 
L 230.672269 630 
L 230.672269 596.831239 
L 225.983193 596.831239 
z
" style="fill:#4c72b0;"/>
   </g>
   <g id="patch_33">
    <path clip-path="url(#p9f08b5d1eb)" d="M 230.672269 630 
L 235.361345 630 
L 235.361345 596.596555 
L 230.672269 596.596555 
z
" style="fill:#4c72b0;"/>
   </g>
   <g id="patch_34">
    <path clip-path="url(#p9f08b5d1eb)" d="M 235.361345 630 
L 240.05042 630 
L 240.05042 601.60316 
L 235.361345 601.60316 
z
" style="fill:#4c72b0;"/>
   </g>
   <g id="patch_35">
    <path clip-path="url(#p9f08b5d1eb)" d="M 240.05042 630 
L 244.739496 630 
L 244.739496 605.866598 
L 240.05042 605.866598 
z
" style="fill:#4c72b0;"/>
   </g>
   <g id="patch_36">
    <path clip-path="url(#p9f08b5d1eb)" d="M 244.739496 630 
L 249.428571 630 
L 249.428571 606.062168 
L 244.739496 606.062168 
z
" style="fill:#4c72b0;"/>
   </g>
   <g id="patch_37">
    <path clip-path="url(#p9f08b5d1eb)" d="M 249.428571 630 
L 254.117647 630 
L 254.117647 604.262919 
L 249.428571 604.262919 
z
" style="fill:#4c72b0;"/>
   </g>
   <g id="patch_38">
    <path clip-path="url(#p9f08b5d1eb)" d="M 254.117647 630 
L 258.806723 630 
L 258.806723 602.150758 
L 254.117647 602.150758 
z
" style="fill:#4c72b0;"/>
   </g>
   <g id="patch_39">
    <path clip-path="url(#p9f08b5d1eb)" d="M 258.806723 630 
L 263.495798 630 
L 263.495798 604.145577 
L 258.806723 604.145577 
z
" style="fill:#4c72b0;"/>
   </g>
   <g id="patch_40">
    <path clip-path="url(#p9f08b5d1eb)" d="M 263.495798 630 
L 268.184874 630 
L 268.184874 601.329361 
L 263.495798 601.329361 
z
" style="fill:#4c72b0;"/>
   </g>
   <g id="patch_41">
    <path clip-path="url(#p9f08b5d1eb)" d="M 268.184874 630 
L 272.87395 630 
L 272.87395 602.346328 
L 268.184874 602.346328 
z
" style="fill:#4c72b0;"/>
   </g>
   <g id="patch_42">
    <path clip-path="url(#p9f08b5d1eb)" d="M 272.87395 630 
L 277.563025 630 
L 277.563025 601.368476 
L 272.87395 601.368476 
z
" style="fill:#4c72b0;"/>
   </g>
   <g id="patch_43">
    <path clip-path="url(#p9f08b5d1eb)" d="M 277.563025 630 
L 282.252101 630 
L 282.252101 604.145577 
L 277.563025 604.145577 
z
" style="fill:#4c72b0;"/>
   </g>
   <g id="patch_44">
    <path clip-path="url(#p9f08b5d1eb)" d="M 282.252101 630 
L 286.941176 630 
L 286.941176 607.431162 
L 282.252101 607.431162 
z
" style="fill:#4c72b0;"/>
   </g>
   <g id="patch_45">
    <path clip-path="url(#p9f08b5d1eb)" d="M 286.941176 630 
L 291.630252 630 
L 291.630252 605.671027 
L 286.941176 605.671027 
z
" style="fill:#4c72b0;"/>
   </g>
   <g id="patch_46">
    <path clip-path="url(#p9f08b5d1eb)" d="M 291.630252 630 
L 296.319328 630 
L 296.319328 604.341148 
L 291.630252 604.341148 
z
" style="fill:#4c72b0;"/>
   </g>
   <g id="patch_47">
    <path clip-path="url(#p9f08b5d1eb)" d="M 296.319328 630 
L 301.008403 630 
L 301.008403 596.831239 
L 296.319328 596.831239 
z
" style="fill:#4c72b0;"/>
   </g>
   <g id="patch_48">
    <path clip-path="url(#p9f08b5d1eb)" d="M 301.008403 630 
L 305.697479 630 
L 305.697479 587.20917 
L 301.008403 587.20917 
z
" style="fill:#4c72b0;"/>
   </g>
   <g id="patch_49">
    <path clip-path="url(#p9f08b5d1eb)" d="M 305.697479 630 
L 310.386555 630 
L 310.386555 583.767129 
L 305.697479 583.767129 
z
" style="fill:#4c72b0;"/>
   </g>
   <g id="patch_50">
    <path clip-path="url(#p9f08b5d1eb)" d="M 310.386555 630 
L 315.07563 630 
L 315.07563 586.387774 
L 310.386555 586.387774 
z
" style="fill:#4c72b0;"/>
   </g>
   <g id="patch_51">
    <path clip-path="url(#p9f08b5d1eb)" d="M 315.07563 630 
L 319.764706 630 
L 319.764706 583.6889 
L 315.07563 583.6889 
z
" style="fill:#4c72b0;"/>
   </g>
   <g id="patch_52">
    <path clip-path="url(#p9f08b5d1eb)" d="M 319.764706 630 
L 324.453782 630 
L 324.453782 591.355265 
L 319.764706 591.355265 
z
" style="fill:#4c72b0;"/>
   </g>
   <g id="patch_53">
    <path clip-path="url(#p9f08b5d1eb)" d="M 324.453782 630 
L 329.142857 630 
L 329.142857 577.235073 
L 324.453782 577.235073 
z
" style="fill:#4c72b0;"/>
   </g>
   <g id="patch_54">
    <path clip-path="url(#p9f08b5d1eb)" d="M 329.142857 630 
L 333.831933 630 
L 333.831933 592.528688 
L 329.142857 592.528688 
z
" style="fill:#4c72b0;"/>
   </g>
   <g id="patch_55">
    <path clip-path="url(#p9f08b5d1eb)" d="M 333.831933 630 
L 338.521008 630 
L 338.521008 582.085222 
L 333.831933 582.085222 
z
" style="fill:#4c72b0;"/>
   </g>
   <g id="patch_56">
    <path clip-path="url(#p9f08b5d1eb)" d="M 338.521008 630 
L 343.210084 630 
L 343.210084 581.146484 
L 338.521008 581.146484 
z
" style="fill:#4c72b0;"/>
   </g>
   <g id="patch_57">
    <path clip-path="url(#p9f08b5d1eb)" d="M 343.210084 630 
L 347.89916 630 
L 347.89916 580.168631 
L 343.210084 580.168631 
z
" style="fill:#4c72b0;"/>
   </g>
   <g id="patch_58">
    <path clip-path="url(#p9f08b5d1eb)" d="M 347.89916 630 
L 352.588235 630 
L 352.588235 578.369382 
L 347.89916 578.369382 
z
" style="fill:#4c72b0;"/>
   </g>
   <g id="patch_59">
    <path clip-path="url(#p9f08b5d1eb)" d="M 352.588235 630 
L 357.277311 630 
L 357.277311 579.816604 
L 352.588235 579.816604 
z
" style="fill:#4c72b0;"/>
   </g>
   <g id="patch_60">
    <path clip-path="url(#p9f08b5d1eb)" d="M 357.277311 630 
L 361.966387 630 
L 361.966387 569.099339 
L 357.277311 569.099339 
z
" style="fill:#4c72b0;"/>
   </g>
   <g id="patch_61">
    <path clip-path="url(#p9f08b5d1eb)" d="M 361.966387 630 
L 366.655462 630 
L 366.655462 568.043259 
L 361.966387 568.043259 
z
" style="fill:#4c72b0;"/>
   </g>
   <g id="patch_62">
    <path clip-path="url(#p9f08b5d1eb)" d="M 366.655462 630 
L 371.344538 630 
L 371.344538 573.441005 
L 366.655462 573.441005 
z
" style="fill:#4c72b0;"/>
   </g>
   <g id="patch_63">
    <path clip-path="url(#p9f08b5d1eb)" d="M 371.344538 630 
L 376.033613 630 
L 376.033613 545.709105 
L 371.344538 545.709105 
z
" style="fill:#4c72b0;"/>
   </g>
   <g id="patch_64">
    <path clip-path="url(#p9f08b5d1eb)" d="M 376.033613 630 
L 380.722689 630 
L 380.722689 563.975392 
L 376.033613 563.975392 
z
" style="fill:#4c72b0;"/>
   </g>
   <g id="patch_65">
    <path clip-path="url(#p9f08b5d1eb)" d="M 380.722689 630 
L 385.411765 630 
L 385.411765 563.19311 
L 380.722689 563.19311 
z
" style="fill:#4c72b0;"/>
   </g>
   <g id="patch_66">
    <path clip-path="url(#p9f08b5d1eb)" d="M 385.411765 630 
L 390.10084 630 
L 390.10084 559.320813 
L 385.411765 559.320813 
z
" style="fill:#4c72b0;"/>
   </g>
   <g id="patch_67">
    <path clip-path="url(#p9f08b5d1eb)" d="M 390.10084 630 
L 394.789916 630 
L 394.789916 550.676596 
L 390.10084 550.676596 
z
" style="fill:#4c72b0;"/>
   </g>
   <g id="patch_68">
    <path clip-path="url(#p9f08b5d1eb)" d="M 394.789916 630 
L 399.478992 630 
L 399.478992 544.027199 
L 394.789916 544.027199 
z
" style="fill:#4c72b0;"/>
   </g>
   <g id="patch_69">
    <path clip-path="url(#p9f08b5d1eb)" d="M 399.478992 630 
L 404.168067 630 
L 404.168067 548.525321 
L 399.478992 548.525321 
z
" style="fill:#4c72b0;"/>
   </g>
   <g id="patch_70">
    <path clip-path="url(#p9f08b5d1eb)" d="M 404.168067 630 
L 408.857143 630 
L 408.857143 535.265639 
L 404.168067 535.265639 
z
" style="fill:#4c72b0;"/>
   </g>
   <g id="patch_71">
    <path clip-path="url(#p9f08b5d1eb)" d="M 408.857143 630 
L 413.546218 630 
L 413.546218 545.27885 
L 408.857143 545.27885 
z
" style="fill:#4c72b0;"/>
   </g>
   <g id="patch_72">
    <path clip-path="url(#p9f08b5d1eb)" d="M 413.546218 630 
L 418.235294 630 
L 418.235294 543.831628 
L 413.546218 543.831628 
z
" style="fill:#4c72b0;"/>
   </g>
   <g id="patch_73">
    <path clip-path="url(#p9f08b5d1eb)" d="M 418.235294 630 
L 422.92437 630 
L 422.92437 513.83111 
L 418.235294 513.83111 
z
" style="fill:#4c72b0;"/>
   </g>
   <g id="patch_74">
    <path clip-path="url(#p9f08b5d1eb)" d="M 422.92437 630 
L 427.613445 630 
L 427.613445 532.253853 
L 422.92437 532.253853 
z
" style="fill:#4c72b0;"/>
   </g>
   <g id="patch_75">
    <path clip-path="url(#p9f08b5d1eb)" d="M 427.613445 630 
L 432.302521 630 
L 432.302521 535.109183 
L 427.613445 535.109183 
z
" style="fill:#4c72b0;"/>
   </g>
   <g id="patch_76">
    <path clip-path="url(#p9f08b5d1eb)" d="M 432.302521 630 
L 436.991597 630 
L 436.991597 532.684108 
L 432.302521 532.684108 
z
" style="fill:#4c72b0;"/>
   </g>
   <g id="patch_77">
    <path clip-path="url(#p9f08b5d1eb)" d="M 436.991597 630 
L 441.680672 630 
L 441.680672 529.985235 
L 436.991597 529.985235 
z
" style="fill:#4c72b0;"/>
   </g>
   <g id="patch_78">
    <path clip-path="url(#p9f08b5d1eb)" d="M 441.680672 630 
L 446.369748 630 
L 446.369748 507.142598 
L 441.680672 507.142598 
z
" style="fill:#4c72b0;"/>
   </g>
   <g id="patch_79">
    <path clip-path="url(#p9f08b5d1eb)" d="M 446.369748 630 
L 451.058824 630 
L 451.058824 523.922549 
L 446.369748 523.922549 
z
" style="fill:#4c72b0;"/>
   </g>
   <g id="patch_80">
    <path clip-path="url(#p9f08b5d1eb)" d="M 451.058824 630 
L 455.747899 630 
L 455.747899 515.552131 
L 451.058824 515.552131 
z
" style="fill:#4c72b0;"/>
   </g>
   <g id="patch_81">
    <path clip-path="url(#p9f08b5d1eb)" d="M 455.747899 630 
L 460.436975 630 
L 460.436975 504.87398 
L 455.747899 504.87398 
z
" style="fill:#4c72b0;"/>
   </g>
   <g id="patch_82">
    <path clip-path="url(#p9f08b5d1eb)" d="M 460.436975 630 
L 465.12605 630 
L 465.12605 503.465872 
L 460.436975 503.465872 
z
" style="fill:#4c72b0;"/>
   </g>
   <g id="patch_83">
    <path clip-path="url(#p9f08b5d1eb)" d="M 465.12605 630 
L 469.815126 630 
L 469.815126 442.995467 
L 465.12605 442.995467 
z
" style="fill:#4c72b0;"/>
   </g>
   <g id="patch_84">
    <path clip-path="url(#p9f08b5d1eb)" d="M 469.815126 630 
L 474.504202 630 
L 474.504202 495.408367 
L 469.815126 495.408367 
z
" style="fill:#4c72b0;"/>
   </g>
   <g id="patch_85">
    <path clip-path="url(#p9f08b5d1eb)" d="M 474.504202 630 
L 479.193277 630 
L 479.193277 482.930967 
L 474.504202 482.930967 
z
" style="fill:#4c72b0;"/>
   </g>
   <g id="patch_86">
    <path clip-path="url(#p9f08b5d1eb)" d="M 479.193277 630 
L 483.882353 630 
L 483.882353 476.907395 
L 479.193277 476.907395 
z
" style="fill:#4c72b0;"/>
   </g>
   <g id="patch_87">
    <path clip-path="url(#p9f08b5d1eb)" d="M 483.882353 630 
L 488.571429 630 
L 488.571429 464.390882 
L 483.882353 464.390882 
z
" style="fill:#4c72b0;"/>
   </g>
   <g id="patch_88">
    <path clip-path="url(#p9f08b5d1eb)" d="M 488.571429 630 
L 493.260504 630 
L 493.260504 441.352675 
L 488.571429 441.352675 
z
" style="fill:#4c72b0;"/>
   </g>
   <g id="patch_89">
    <path clip-path="url(#p9f08b5d1eb)" d="M 493.260504 630 
L 497.94958 630 
L 497.94958 431.222121 
L 493.260504 431.222121 
z
" style="fill:#4c72b0;"/>
   </g>
   <g id="patch_90">
    <path clip-path="url(#p9f08b5d1eb)" d="M 497.94958 630 
L 502.638655 630 
L 502.638655 422.577904 
L 497.94958 422.577904 
z
" style="fill:#4c72b0;"/>
   </g>
   <g id="patch_91">
    <path clip-path="url(#p9f08b5d1eb)" d="M 502.638655 630 
L 507.327731 630 
L 507.327731 393.985494 
L 502.638655 393.985494 
z
" style="fill:#4c72b0;"/>
   </g>
   <g id="patch_92">
    <path clip-path="url(#p9f08b5d1eb)" d="M 507.327731 630 
L 512.016807 630 
L 512.016807 399.969952 
L 507.327731 399.969952 
z
" style="fill:#4c72b0;"/>
   </g>
   <g id="patch_93">
    <path clip-path="url(#p9f08b5d1eb)" d="M 512.016807 630 
L 516.705882 630 
L 516.705882 367.896386 
L 512.016807 367.896386 
z
" style="fill:#4c72b0;"/>
   </g>
   <g id="patch_94">
    <path clip-path="url(#p9f08b5d1eb)" d="M 516.705882 630 
L 521.394958 630 
L 521.394958 398.366274 
L 516.705882 398.366274 
z
" style="fill:#4c72b0;"/>
   </g>
   <g id="patch_95">
    <path clip-path="url(#p9f08b5d1eb)" d="M 521.394958 630 
L 526.084034 630 
L 526.084034 391.482191 
L 521.394958 391.482191 
z
" style="fill:#4c72b0;"/>
   </g>
   <g id="patch_96">
    <path clip-path="url(#p9f08b5d1eb)" d="M 526.084034 630 
L 530.773109 630 
L 530.773109 395.080689 
L 526.084034 395.080689 
z
" style="fill:#4c72b0;"/>
   </g>
   <g id="patch_97">
    <path clip-path="url(#p9f08b5d1eb)" d="M 530.773109 630 
L 535.462185 630 
L 535.462185 376.305919 
L 530.773109 376.305919 
z
" style="fill:#4c72b0;"/>
   </g>
   <g id="patch_98">
    <path clip-path="url(#p9f08b5d1eb)" d="M 535.462185 630 
L 540.151261 630 
L 540.151261 359.877995 
L 535.462185 359.877995 
z
" style="fill:#4c72b0;"/>
   </g>
   <g id="patch_99">
    <path clip-path="url(#p9f08b5d1eb)" d="M 540.151261 630 
L 544.840336 630 
L 544.840336 373.294133 
L 540.151261 373.294133 
z
" style="fill:#4c72b0;"/>
   </g>
   <g id="patch_100">
    <path clip-path="url(#p9f08b5d1eb)" d="M 544.840336 630 
L 549.529412 630 
L 549.529412 361.599016 
L 544.840336 361.599016 
z
" style="fill:#4c72b0;"/>
   </g>
   <g id="patch_101">
    <path clip-path="url(#p9f08b5d1eb)" d="M 549.529412 630 
L 554.218487 630 
L 554.218487 365.627768 
L 549.529412 365.627768 
z
" style="fill:#4c72b0;"/>
   </g>
   <g id="patch_102">
    <path clip-path="url(#p9f08b5d1eb)" d="M 554.218487 630 
L 558.907563 630 
L 558.907563 356.162155 
L 554.218487 356.162155 
z
" style="fill:#4c72b0;"/>
   </g>
   <g id="patch_103">
    <path clip-path="url(#p9f08b5d1eb)" d="M 558.907563 630 
L 563.596639 630 
L 563.596639 332.459008 
L 558.907563 332.459008 
z
" style="fill:#4c72b0;"/>
   </g>
   <g id="patch_104">
    <path clip-path="url(#p9f08b5d1eb)" d="M 563.596639 630 
L 568.285714 630 
L 568.285714 351.703147 
L 563.596639 351.703147 
z
" style="fill:#4c72b0;"/>
   </g>
   <g id="patch_105">
    <path clip-path="url(#p9f08b5d1eb)" d="M 568.285714 630 
L 572.97479 630 
L 572.97479 351.507577 
L 568.285714 351.507577 
z
" style="fill:#4c72b0;"/>
   </g>
   <g id="patch_106">
    <path clip-path="url(#p9f08b5d1eb)" d="M 572.97479 630 
L 577.663866 630 
L 577.663866 334.1018 
L 572.97479 334.1018 
z
" style="fill:#4c72b0;"/>
   </g>
   <g id="patch_107">
    <path clip-path="url(#p9f08b5d1eb)" d="M 577.663866 630 
L 582.352941 630 
L 582.352941 333.202176 
L 577.663866 333.202176 
z
" style="fill:#4c72b0;"/>
   </g>
   <g id="patch_108">
    <path clip-path="url(#p9f08b5d1eb)" d="M 582.352941 630 
L 587.042017 630 
L 587.042017 334.610284 
L 582.352941 334.610284 
z
" style="fill:#4c72b0;"/>
   </g>
   <g id="patch_109">
    <path clip-path="url(#p9f08b5d1eb)" d="M 587.042017 630 
L 591.731092 630 
L 591.731092 319.825152 
L 587.042017 319.825152 
z
" style="fill:#4c72b0;"/>
   </g>
   <g id="patch_110">
    <path clip-path="url(#p9f08b5d1eb)" d="M 591.731092 630 
L 596.420168 630 
L 596.420168 309.342572 
L 591.731092 309.342572 
z
" style="fill:#4c72b0;"/>
   </g>
   <g id="patch_111">
    <path clip-path="url(#p9f08b5d1eb)" d="M 596.420168 630 
L 601.109244 630 
L 601.109244 313.332211 
L 596.420168 313.332211 
z
" style="fill:#4c72b0;"/>
   </g>
   <g id="patch_112">
    <path clip-path="url(#p9f08b5d1eb)" d="M 601.109244 630 
L 605.798319 630 
L 605.798319 320.333636 
L 601.109244 320.333636 
z
" style="fill:#4c72b0;"/>
   </g>
   <g id="patch_113">
    <path clip-path="url(#p9f08b5d1eb)" d="M 605.798319 630 
L 610.487395 630 
L 610.487395 247.737858 
L 605.798319 247.737858 
z
" style="fill:#4c72b0;"/>
   </g>
   <g id="patch_114">
    <path clip-path="url(#p9f08b5d1eb)" d="M 610.487395 630 
L 615.176471 630 
L 615.176471 286.226137 
L 610.487395 286.226137 
z
" style="fill:#4c72b0;"/>
   </g>
   <g id="patch_115">
    <path clip-path="url(#p9f08b5d1eb)" d="M 615.176471 630 
L 619.865546 630 
L 619.865546 325.535811 
L 615.176471 325.535811 
z
" style="fill:#4c72b0;"/>
   </g>
   <g id="patch_116">
    <path clip-path="url(#p9f08b5d1eb)" d="M 619.865546 630 
L 624.554622 630 
L 624.554622 336.253076 
L 619.865546 336.253076 
z
" style="fill:#4c72b0;"/>
   </g>
   <g id="patch_117">
    <path clip-path="url(#p9f08b5d1eb)" d="M 624.554622 630 
L 629.243697 630 
L 629.243697 359.995337 
L 624.554622 359.995337 
z
" style="fill:#4c72b0;"/>
   </g>
   <g id="patch_118">
    <path clip-path="url(#p9f08b5d1eb)" d="M 629.243697 630 
L 633.932773 630 
L 633.932773 403.059966 
L 629.243697 403.059966 
z
" style="fill:#4c72b0;"/>
   </g>
   <g id="patch_119">
    <path clip-path="url(#p9f08b5d1eb)" d="M 633.932773 630 
L 638.621849 630 
L 638.621849 451.79614 
L 633.932773 451.79614 
z
" style="fill:#4c72b0;"/>
   </g>
   <g id="patch_120">
    <path clip-path="url(#p9f08b5d1eb)" d="M 638.621849 630 
L 643.310924 630 
L 643.310924 511.327807 
L 638.621849 511.327807 
z
" style="fill:#4c72b0;"/>
   </g>
   <g id="patch_121">
    <path clip-path="url(#p9f08b5d1eb)" d="M 90 630 
L 94.689076 630 
L 94.689076 618.031084 
L 90 618.031084 
z
" style="fill:#55a868;"/>
   </g>
   <g id="patch_122">
    <path clip-path="url(#p9f08b5d1eb)" d="M 94.689076 630 
L 99.378151 630 
L 99.378151 624.367569 
L 94.689076 624.367569 
z
" style="fill:#55a868;"/>
   </g>
   <g id="patch_123">
    <path clip-path="url(#p9f08b5d1eb)" d="M 99.378151 630 
L 104.067227 630 
L 104.067227 624.367569 
L 99.378151 624.367569 
z
" style="fill:#55a868;"/>
   </g>
   <g id="patch_124">
    <path clip-path="url(#p9f08b5d1eb)" d="M 104.067227 630 
L 108.756303 630 
L 108.756303 623.780857 
L 104.067227 623.780857 
z
" style="fill:#55a868;"/>
   </g>
   <g id="patch_125">
    <path clip-path="url(#p9f08b5d1eb)" d="M 108.756303 630 
L 113.445378 630 
L 113.445378 622.450978 
L 108.756303 622.450978 
z
" style="fill:#55a868;"/>
   </g>
   <g id="patch_126">
    <path clip-path="url(#p9f08b5d1eb)" d="M 113.445378 630 
L 118.134454 630 
L 118.134454 621.512239 
L 113.445378 621.512239 
z
" style="fill:#55a868;"/>
   </g>
   <g id="patch_127">
    <path clip-path="url(#p9f08b5d1eb)" d="M 118.134454 630 
L 122.823529 630 
L 122.823529 621.434011 
L 118.134454 621.434011 
z
" style="fill:#55a868;"/>
   </g>
   <g id="patch_128">
    <path clip-path="url(#p9f08b5d1eb)" d="M 122.823529 630 
L 127.512605 630 
L 127.512605 620.025903 
L 122.823529 620.025903 
z
" style="fill:#55a868;"/>
   </g>
   <g id="patch_129">
    <path clip-path="url(#p9f08b5d1eb)" d="M 127.512605 630 
L 132.201681 630 
L 132.201681 618.226655 
L 127.512605 618.226655 
z
" style="fill:#55a868;"/>
   </g>
   <g id="patch_130">
    <path clip-path="url(#p9f08b5d1eb)" d="M 132.201681 630 
L 136.890756 630 
L 136.890756 617.913742 
L 132.201681 617.913742 
z
" style="fill:#55a868;"/>
   </g>
   <g id="patch_131">
    <path clip-path="url(#p9f08b5d1eb)" d="M 136.890756 630 
L 141.579832 630 
L 141.579832 618.265769 
L 136.890756 618.265769 
z
" style="fill:#55a868;"/>
   </g>
   <g id="patch_132">
    <path clip-path="url(#p9f08b5d1eb)" d="M 141.579832 630 
L 146.268908 630 
L 146.268908 617.600829 
L 141.579832 617.600829 
z
" style="fill:#55a868;"/>
   </g>
   <g id="patch_133">
    <path clip-path="url(#p9f08b5d1eb)" d="M 146.268908 630 
L 150.957983 630 
L 150.957983 615.527781 
L 146.268908 615.527781 
z
" style="fill:#55a868;"/>
   </g>
   <g id="patch_134">
    <path clip-path="url(#p9f08b5d1eb)" d="M 150.957983 630 
L 155.647059 630 
L 155.647059 617.170574 
L 150.957983 617.170574 
z
" style="fill:#55a868;"/>
   </g>
   <g id="patch_135">
    <path clip-path="url(#p9f08b5d1eb)" d="M 155.647059 630 
L 160.336134 630 
L 160.336134 619.595648 
L 155.647059 619.595648 
z
" style="fill:#55a868;"/>
   </g>
   <g id="patch_136">
    <path clip-path="url(#p9f08b5d1eb)" d="M 160.336134 630 
L 165.02521 630 
L 165.02521 619.673876 
L 160.336134 619.673876 
z
" style="fill:#55a868;"/>
   </g>
   <g id="patch_137">
    <path clip-path="url(#p9f08b5d1eb)" d="M 165.02521 630 
L 169.714286 630 
L 169.714286 617.522601 
L 165.02521 617.522601 
z
" style="fill:#55a868;"/>
   </g>
   <g id="patch_138">
    <path clip-path="url(#p9f08b5d1eb)" d="M 169.714286 630 
L 174.403361 630 
L 174.403361 615.488667 
L 169.714286 615.488667 
z
" style="fill:#55a868;"/>
   </g>
   <g id="patch_139">
    <path clip-path="url(#p9f08b5d1eb)" d="M 174.403361 630 
L 179.092437 630 
L 179.092437 614.549929 
L 174.403361 614.549929 
z
" style="fill:#55a868;"/>
   </g>
   <g id="patch_140">
    <path clip-path="url(#p9f08b5d1eb)" d="M 179.092437 630 
L 183.781513 630 
L 183.781513 611.538143 
L 179.092437 611.538143 
z
" style="fill:#55a868;"/>
   </g>
   <g id="patch_141">
    <path clip-path="url(#p9f08b5d1eb)" d="M 183.781513 630 
L 188.470588 630 
L 188.470588 612.437767 
L 183.781513 612.437767 
z
" style="fill:#55a868;"/>
   </g>
   <g id="patch_142">
    <path clip-path="url(#p9f08b5d1eb)" d="M 188.470588 630 
L 193.159664 630 
L 193.159664 612.203083 
L 188.470588 612.203083 
z
" style="fill:#55a868;"/>
   </g>
   <g id="patch_143">
    <path clip-path="url(#p9f08b5d1eb)" d="M 193.159664 630 
L 197.848739 630 
L 197.848739 610.755861 
L 193.159664 610.755861 
z
" style="fill:#55a868;"/>
   </g>
   <g id="patch_144">
    <path clip-path="url(#p9f08b5d1eb)" d="M 197.848739 630 
L 202.537815 630 
L 202.537815 610.873203 
L 197.848739 610.873203 
z
" style="fill:#55a868;"/>
   </g>
   <g id="patch_145">
    <path clip-path="url(#p9f08b5d1eb)" d="M 202.537815 630 
L 207.226891 630 
L 207.226891 613.220049 
L 202.537815 613.220049 
z
" style="fill:#55a868;"/>
   </g>
   <g id="patch_146">
    <path clip-path="url(#p9f08b5d1eb)" d="M 207.226891 630 
L 211.915966 630 
L 211.915966 609.425981 
L 207.226891 609.425981 
z
" style="fill:#55a868;"/>
   </g>
   <g id="patch_147">
    <path clip-path="url(#p9f08b5d1eb)" d="M 211.915966 630 
L 216.605042 630 
L 216.605042 608.721927 
L 211.915966 608.721927 
z
" style="fill:#55a868;"/>
   </g>
   <g id="patch_148">
    <path clip-path="url(#p9f08b5d1eb)" d="M 216.605042 630 
L 221.294118 630 
L 221.294118 606.140396 
L 216.605042 606.140396 
z
" style="fill:#55a868;"/>
   </g>
   <g id="patch_149">
    <path clip-path="url(#p9f08b5d1eb)" d="M 221.294118 630 
L 225.983193 630 
L 225.983193 604.65406 
L 221.294118 604.65406 
z
" style="fill:#55a868;"/>
   </g>
   <g id="patch_150">
    <path clip-path="url(#p9f08b5d1eb)" d="M 225.983193 630 
L 230.672269 630 
L 230.672269 606.140396 
L 225.983193 606.140396 
z
" style="fill:#55a868;"/>
   </g>
   <g id="patch_151">
    <path clip-path="url(#p9f08b5d1eb)" d="M 230.672269 630 
L 235.361345 630 
L 235.361345 609.347753 
L 230.672269 609.347753 
z
" style="fill:#55a868;"/>
   </g>
   <g id="patch_152">
    <path clip-path="url(#p9f08b5d1eb)" d="M 235.361345 630 
L 240.05042 630 
L 240.05042 612.163968 
L 235.361345 612.163968 
z
" style="fill:#55a868;"/>
   </g>
   <g id="patch_153">
    <path clip-path="url(#p9f08b5d1eb)" d="M 240.05042 630 
L 244.739496 630 
L 244.739496 612.398653 
L 240.05042 612.398653 
z
" style="fill:#55a868;"/>
   </g>
   <g id="patch_154">
    <path clip-path="url(#p9f08b5d1eb)" d="M 244.739496 630 
L 249.428571 630 
L 249.428571 611.499029 
L 244.739496 611.499029 
z
" style="fill:#55a868;"/>
   </g>
   <g id="patch_155">
    <path clip-path="url(#p9f08b5d1eb)" d="M 249.428571 630 
L 254.117647 630 
L 254.117647 610.599404 
L 249.428571 610.599404 
z
" style="fill:#55a868;"/>
   </g>
   <g id="patch_156">
    <path clip-path="url(#p9f08b5d1eb)" d="M 254.117647 630 
L 258.806723 630 
L 258.806723 611.147002 
L 254.117647 611.147002 
z
" style="fill:#55a868;"/>
   </g>
   <g id="patch_157">
    <path clip-path="url(#p9f08b5d1eb)" d="M 258.806723 630 
L 263.495798 630 
L 263.495798 612.672452 
L 258.806723 612.672452 
z
" style="fill:#55a868;"/>
   </g>
   <g id="patch_158">
    <path clip-path="url(#p9f08b5d1eb)" d="M 263.495798 630 
L 268.184874 630 
L 268.184874 608.83927 
L 263.495798 608.83927 
z
" style="fill:#55a868;"/>
   </g>
   <g id="patch_159">
    <path clip-path="url(#p9f08b5d1eb)" d="M 268.184874 630 
L 272.87395 630 
L 272.87395 606.101282 
L 268.184874 606.101282 
z
" style="fill:#55a868;"/>
   </g>
   <g id="patch_160">
    <path clip-path="url(#p9f08b5d1eb)" d="M 272.87395 630 
L 277.563025 630 
L 277.563025 611.4208 
L 272.87395 611.4208 
z
" style="fill:#55a868;"/>
   </g>
   <g id="patch_161">
    <path clip-path="url(#p9f08b5d1eb)" d="M 277.563025 630 
L 282.252101 630 
L 282.252101 612.08574 
L 277.563025 612.08574 
z
" style="fill:#55a868;"/>
   </g>
   <g id="patch_162">
    <path clip-path="url(#p9f08b5d1eb)" d="M 282.252101 630 
L 286.941176 630 
L 286.941176 614.471701 
L 282.252101 614.471701 
z
" style="fill:#55a868;"/>
   </g>
   <g id="patch_163">
    <path clip-path="url(#p9f08b5d1eb)" d="M 286.941176 630 
L 291.630252 630 
L 291.630252 608.643699 
L 286.941176 608.643699 
z
" style="fill:#55a868;"/>
   </g>
   <g id="patch_164">
    <path clip-path="url(#p9f08b5d1eb)" d="M 291.630252 630 
L 296.319328 630 
L 296.319328 609.269525 
L 291.630252 609.269525 
z
" style="fill:#55a868;"/>
   </g>
   <g id="patch_165">
    <path clip-path="url(#p9f08b5d1eb)" d="M 296.319328 630 
L 301.008403 630 
L 301.008403 607.939645 
L 296.319328 607.939645 
z
" style="fill:#55a868;"/>
   </g>
   <g id="patch_166">
    <path clip-path="url(#p9f08b5d1eb)" d="M 301.008403 630 
L 305.697479 630 
L 305.697479 594.484393 
L 301.008403 594.484393 
z
" style="fill:#55a868;"/>
   </g>
   <g id="patch_167">
    <path clip-path="url(#p9f08b5d1eb)" d="M 305.697479 630 
L 310.386555 630 
L 310.386555 593.271856 
L 305.697479 593.271856 
z
" style="fill:#55a868;"/>
   </g>
   <g id="patch_168">
    <path clip-path="url(#p9f08b5d1eb)" d="M 310.386555 630 
L 315.07563 630 
L 315.07563 601.40759 
L 310.386555 601.40759 
z
" style="fill:#55a868;"/>
   </g>
   <g id="patch_169">
    <path clip-path="url(#p9f08b5d1eb)" d="M 315.07563 630 
L 319.764706 630 
L 319.764706 595.031991 
L 315.07563 595.031991 
z
" style="fill:#55a868;"/>
   </g>
   <g id="patch_170">
    <path clip-path="url(#p9f08b5d1eb)" d="M 319.764706 630 
L 324.453782 630 
L 324.453782 600.93822 
L 319.764706 600.93822 
z
" style="fill:#55a868;"/>
   </g>
   <g id="patch_171">
    <path clip-path="url(#p9f08b5d1eb)" d="M 324.453782 630 
L 329.142857 630 
L 329.142857 595.618702 
L 324.453782 595.618702 
z
" style="fill:#55a868;"/>
   </g>
   <g id="patch_172">
    <path clip-path="url(#p9f08b5d1eb)" d="M 329.142857 630 
L 333.831933 630 
L 333.831933 599.021629 
L 329.142857 599.021629 
z
" style="fill:#55a868;"/>
   </g>
   <g id="patch_173">
    <path clip-path="url(#p9f08b5d1eb)" d="M 333.831933 630 
L 338.521008 630 
L 338.521008 597.809092 
L 333.831933 597.809092 
z
" style="fill:#55a868;"/>
   </g>
   <g id="patch_174">
    <path clip-path="url(#p9f08b5d1eb)" d="M 338.521008 630 
L 343.210084 630 
L 343.210084 596.479213 
L 338.521008 596.479213 
z
" style="fill:#55a868;"/>
   </g>
   <g id="patch_175">
    <path clip-path="url(#p9f08b5d1eb)" d="M 343.210084 630 
L 347.89916 630 
L 347.89916 594.83642 
L 343.210084 594.83642 
z
" style="fill:#55a868;"/>
   </g>
   <g id="patch_176">
    <path clip-path="url(#p9f08b5d1eb)" d="M 347.89916 630 
L 352.588235 630 
L 352.588235 586.34866 
L 347.89916 586.34866 
z
" style="fill:#55a868;"/>
   </g>
   <g id="patch_177">
    <path clip-path="url(#p9f08b5d1eb)" d="M 352.588235 630 
L 357.277311 630 
L 357.277311 592.528688 
L 352.588235 592.528688 
z
" style="fill:#55a868;"/>
   </g>
   <g id="patch_178">
    <path clip-path="url(#p9f08b5d1eb)" d="M 357.277311 630 
L 361.966387 630 
L 361.966387 588.030566 
L 357.277311 588.030566 
z
" style="fill:#55a868;"/>
   </g>
   <g id="patch_179">
    <path clip-path="url(#p9f08b5d1eb)" d="M 361.966387 630 
L 366.655462 630 
L 366.655462 582.750162 
L 361.966387 582.750162 
z
" style="fill:#55a868;"/>
   </g>
   <g id="patch_180">
    <path clip-path="url(#p9f08b5d1eb)" d="M 366.655462 630 
L 371.344538 630 
L 371.344538 578.017355 
L 366.655462 578.017355 
z
" style="fill:#55a868;"/>
   </g>
   <g id="patch_181">
    <path clip-path="url(#p9f08b5d1eb)" d="M 371.344538 630 
L 376.033613 630 
L 376.033613 528.303329 
L 371.344538 528.303329 
z
" style="fill:#55a868;"/>
   </g>
   <g id="patch_182">
    <path clip-path="url(#p9f08b5d1eb)" d="M 376.033613 630 
L 380.722689 630 
L 380.722689 581.224712 
L 376.033613 581.224712 
z
" style="fill:#55a868;"/>
   </g>
   <g id="patch_183">
    <path clip-path="url(#p9f08b5d1eb)" d="M 380.722689 630 
L 385.411765 630 
L 385.411765 571.719984 
L 380.722689 571.719984 
z
" style="fill:#55a868;"/>
   </g>
   <g id="patch_184">
    <path clip-path="url(#p9f08b5d1eb)" d="M 385.411765 630 
L 390.10084 630 
L 390.10084 564.640332 
L 385.411765 564.640332 
z
" style="fill:#55a868;"/>
   </g>
   <g id="patch_185">
    <path clip-path="url(#p9f08b5d1eb)" d="M 390.10084 630 
L 394.789916 630 
L 394.789916 574.105945 
L 390.10084 574.105945 
z
" style="fill:#55a868;"/>
   </g>
   <g id="patch_186">
    <path clip-path="url(#p9f08b5d1eb)" d="M 394.789916 630 
L 399.478992 630 
L 399.478992 564.640332 
L 394.789916 564.640332 
z
" style="fill:#55a868;"/>
   </g>
   <g id="patch_187">
    <path clip-path="url(#p9f08b5d1eb)" d="M 399.478992 630 
L 404.168067 630 
L 404.168067 564.640332 
L 399.478992 564.640332 
z
" style="fill:#55a868;"/>
   </g>
   <g id="patch_188">
    <path clip-path="url(#p9f08b5d1eb)" d="M 404.168067 630 
L 408.857143 630 
L 408.857143 554.822691 
L 404.168067 554.822691 
z
" style="fill:#55a868;"/>
   </g>
   <g id="patch_189">
    <path clip-path="url(#p9f08b5d1eb)" d="M 408.857143 630 
L 413.546218 630 
L 413.546218 549.112032 
L 408.857143 549.112032 
z
" style="fill:#55a868;"/>
   </g>
   <g id="patch_190">
    <path clip-path="url(#p9f08b5d1eb)" d="M 413.546218 630 
L 418.235294 630 
L 418.235294 543.049346 
L 413.546218 543.049346 
z
" style="fill:#55a868;"/>
   </g>
   <g id="patch_191">
    <path clip-path="url(#p9f08b5d1eb)" d="M 418.235294 630 
L 422.92437 630 
L 422.92437 508.78539 
L 418.235294 508.78539 
z
" style="fill:#55a868;"/>
   </g>
   <g id="patch_192">
    <path clip-path="url(#p9f08b5d1eb)" d="M 422.92437 630 
L 427.613445 630 
L 427.613445 552.04559 
L 422.92437 552.04559 
z
" style="fill:#55a868;"/>
   </g>
   <g id="patch_193">
    <path clip-path="url(#p9f08b5d1eb)" d="M 427.613445 630 
L 432.302521 630 
L 432.302521 538.199197 
L 427.613445 538.199197 
z
" style="fill:#55a868;"/>
   </g>
   <g id="patch_194">
    <path clip-path="url(#p9f08b5d1eb)" d="M 432.302521 630 
L 436.991597 630 
L 436.991597 535.617666 
L 432.302521 535.617666 
z
" style="fill:#55a868;"/>
   </g>
   <g id="patch_195">
    <path clip-path="url(#p9f08b5d1eb)" d="M 436.991597 630 
L 441.680672 630 
L 441.680672 530.884859 
L 436.991597 530.884859 
z
" style="fill:#55a868;"/>
   </g>
   <g id="patch_196">
    <path clip-path="url(#p9f08b5d1eb)" d="M 441.680672 630 
L 446.369748 630 
L 446.369748 511.484264 
L 441.680672 511.484264 
z
" style="fill:#55a868;"/>
   </g>
   <g id="patch_197">
    <path clip-path="url(#p9f08b5d1eb)" d="M 446.369748 630 
L 451.058824 630 
L 451.058824 513.205284 
L 446.369748 513.205284 
z
" style="fill:#55a868;"/>
   </g>
   <g id="patch_198">
    <path clip-path="url(#p9f08b5d1eb)" d="M 451.058824 630 
L 455.747899 630 
L 455.747899 508.355135 
L 451.058824 508.355135 
z
" style="fill:#55a868;"/>
   </g>
   <g id="patch_199">
    <path clip-path="url(#p9f08b5d1eb)" d="M 455.747899 630 
L 460.436975 630 
L 460.436975 490.323533 
L 455.747899 490.323533 
z
" style="fill:#55a868;"/>
   </g>
   <g id="patch_200">
    <path clip-path="url(#p9f08b5d1eb)" d="M 460.436975 630 
L 465.12605 630 
L 465.12605 495.955964 
L 460.436975 495.955964 
z
" style="fill:#55a868;"/>
   </g>
   <g id="patch_201">
    <path clip-path="url(#p9f08b5d1eb)" d="M 465.12605 630 
L 469.815126 630 
L 469.815126 448.354099 
L 465.12605 448.354099 
z
" style="fill:#55a868;"/>
   </g>
   <g id="patch_202">
    <path clip-path="url(#p9f08b5d1eb)" d="M 469.815126 630 
L 474.504202 630 
L 474.504202 487.468204 
L 469.815126 487.468204 
z
" style="fill:#55a868;"/>
   </g>
   <g id="patch_203">
    <path clip-path="url(#p9f08b5d1eb)" d="M 474.504202 630 
L 479.193277 630 
L 479.193277 480.388551 
L 474.504202 480.388551 
z
" style="fill:#55a868;"/>
   </g>
   <g id="patch_204">
    <path clip-path="url(#p9f08b5d1eb)" d="M 479.193277 630 
L 483.882353 630 
L 483.882353 473.934723 
L 479.193277 473.934723 
z
" style="fill:#55a868;"/>
   </g>
   <g id="patch_205">
    <path clip-path="url(#p9f08b5d1eb)" d="M 483.882353 630 
L 488.571429 630 
L 488.571429 471.353193 
L 483.882353 471.353193 
z
" style="fill:#55a868;"/>
   </g>
   <g id="patch_206">
    <path clip-path="url(#p9f08b5d1eb)" d="M 488.571429 630 
L 493.260504 630 
L 493.260504 453.32159 
L 488.571429 453.32159 
z
" style="fill:#55a868;"/>
   </g>
   <g id="patch_207">
    <path clip-path="url(#p9f08b5d1eb)" d="M 493.260504 630 
L 497.94958 630 
L 497.94958 451.561456 
L 493.260504 451.561456 
z
" style="fill:#55a868;"/>
   </g>
   <g id="patch_208">
    <path clip-path="url(#p9f08b5d1eb)" d="M 497.94958 630 
L 502.638655 630 
L 502.638655 431.691491 
L 497.94958 431.691491 
z
" style="fill:#55a868;"/>
   </g>
   <g id="patch_209">
    <path clip-path="url(#p9f08b5d1eb)" d="M 502.638655 630 
L 507.327731 630 
L 507.327731 414.637741 
L 502.638655 414.637741 
z
" style="fill:#55a868;"/>
   </g>
   <g id="patch_210">
    <path clip-path="url(#p9f08b5d1eb)" d="M 507.327731 630 
L 512.016807 630 
L 512.016807 414.2466 
L 507.327731 414.2466 
z
" style="fill:#55a868;"/>
   </g>
   <g id="patch_211">
    <path clip-path="url(#p9f08b5d1eb)" d="M 512.016807 630 
L 516.705882 630 
L 516.705882 389.839399 
L 512.016807 389.839399 
z
" style="fill:#55a868;"/>
   </g>
   <g id="patch_212">
    <path clip-path="url(#p9f08b5d1eb)" d="M 516.705882 630 
L 521.394958 630 
L 521.394958 424.298925 
L 516.705882 424.298925 
z
" style="fill:#55a868;"/>
   </g>
   <g id="patch_213">
    <path clip-path="url(#p9f08b5d1eb)" d="M 521.394958 630 
L 526.084034 630 
L 526.084034 421.052454 
L 521.394958 421.052454 
z
" style="fill:#55a868;"/>
   </g>
   <g id="patch_214">
    <path clip-path="url(#p9f08b5d1eb)" d="M 526.084034 630 
L 530.773109 630 
L 530.773109 421.052454 
L 526.084034 421.052454 
z
" style="fill:#55a868;"/>
   </g>
   <g id="patch_215">
    <path clip-path="url(#p9f08b5d1eb)" d="M 530.773109 630 
L 535.462185 630 
L 535.462185 408.183914 
L 530.773109 408.183914 
z
" style="fill:#55a868;"/>
   </g>
   <g id="patch_216">
    <path clip-path="url(#p9f08b5d1eb)" d="M 535.462185 630 
L 540.151261 630 
L 540.151261 410.100505 
L 535.462185 410.100505 
z
" style="fill:#55a868;"/>
   </g>
   <g id="patch_217">
    <path clip-path="url(#p9f08b5d1eb)" d="M 540.151261 630 
L 544.840336 630 
L 544.840336 406.228209 
L 540.151261 406.228209 
z
" style="fill:#55a868;"/>
   </g>
   <g id="patch_218">
    <path clip-path="url(#p9f08b5d1eb)" d="M 544.840336 630 
L 549.529412 630 
L 549.529412 411.821526 
L 544.840336 411.821526 
z
" style="fill:#55a868;"/>
   </g>
   <g id="patch_219">
    <path clip-path="url(#p9f08b5d1eb)" d="M 549.529412 630 
L 554.218487 630 
L 554.218487 409.474679 
L 549.529412 409.474679 
z
" style="fill:#55a868;"/>
   </g>
   <g id="patch_220">
    <path clip-path="url(#p9f08b5d1eb)" d="M 554.218487 630 
L 558.907563 630 
L 558.907563 382.79886 
L 554.218487 382.79886 
z
" style="fill:#55a868;"/>
   </g>
   <g id="patch_221">
    <path clip-path="url(#p9f08b5d1eb)" d="M 558.907563 630 
L 563.596639 630 
L 563.596639 371.025515 
L 558.907563 371.025515 
z
" style="fill:#55a868;"/>
   </g>
   <g id="patch_222">
    <path clip-path="url(#p9f08b5d1eb)" d="M 563.596639 630 
L 568.285714 630 
L 568.285714 378.809222 
L 563.596639 378.809222 
z
" style="fill:#55a868;"/>
   </g>
   <g id="patch_223">
    <path clip-path="url(#p9f08b5d1eb)" d="M 568.285714 630 
L 572.97479 630 
L 572.97479 371.533998 
L 568.285714 371.533998 
z
" style="fill:#55a868;"/>
   </g>
   <g id="patch_224">
    <path clip-path="url(#p9f08b5d1eb)" d="M 572.97479 630 
L 577.663866 630 
L 577.663866 362.694211 
L 572.97479 362.694211 
z
" style="fill:#55a868;"/>
   </g>
   <g id="patch_225">
    <path clip-path="url(#p9f08b5d1eb)" d="M 577.663866 630 
L 582.352941 630 
L 582.352941 337.309157 
L 577.663866 337.309157 
z
" style="fill:#55a868;"/>
   </g>
   <g id="patch_226">
    <path clip-path="url(#p9f08b5d1eb)" d="M 582.352941 630 
L 587.042017 630 
L 587.042017 320.020723 
L 582.352941 320.020723 
z
" style="fill:#55a868;"/>
   </g>
   <g id="patch_227">
    <path clip-path="url(#p9f08b5d1eb)" d="M 587.042017 630 
L 591.731092 630 
L 591.731092 282.197384 
L 587.042017 282.197384 
z
" style="fill:#55a868;"/>
   </g>
   <g id="patch_228">
    <path clip-path="url(#p9f08b5d1eb)" d="M 591.731092 630 
L 596.420168 630 
L 596.420168 268.976816 
L 591.731092 268.976816 
z
" style="fill:#55a868;"/>
   </g>
   <g id="patch_229">
    <path clip-path="url(#p9f08b5d1eb)" d="M 596.420168 630 
L 601.109244 630 
L 601.109244 279.224712 
L 596.420168 279.224712 
z
" style="fill:#55a868;"/>
   </g>
   <g id="patch_230">
    <path clip-path="url(#p9f08b5d1eb)" d="M 601.109244 630 
L 605.798319 630 
L 605.798319 270.424038 
L 601.109244 270.424038 
z
" style="fill:#55a868;"/>
   </g>
   <g id="patch_231">
    <path clip-path="url(#p9f08b5d1eb)" d="M 605.798319 630 
L 610.487395 630 
L 610.487395 229.08043 
L 605.798319 229.08043 
z
" style="fill:#55a868;"/>
   </g>
   <g id="patch_232">
    <path clip-path="url(#p9f08b5d1eb)" d="M 610.487395 630 
L 615.176471 630 
L 615.176471 268.350991 
L 610.487395 268.350991 
z
" style="fill:#55a868;"/>
   </g>
   <g id="patch_233">
    <path clip-path="url(#p9f08b5d1eb)" d="M 615.176471 630 
L 619.865546 630 
L 619.865546 248.481026 
L 615.176471 248.481026 
z
" style="fill:#55a868;"/>
   </g>
   <g id="patch_234">
    <path clip-path="url(#p9f08b5d1eb)" d="M 619.865546 630 
L 624.554622 630 
L 624.554622 302.536718 
L 619.865546 302.536718 
z
" style="fill:#55a868;"/>
   </g>
   <g id="patch_235">
    <path clip-path="url(#p9f08b5d1eb)" d="M 624.554622 630 
L 629.243697 630 
L 629.243697 298.468851 
L 624.554622 298.468851 
z
" style="fill:#55a868;"/>
   </g>
   <g id="patch_236">
    <path clip-path="url(#p9f08b5d1eb)" d="M 629.243697 630 
L 633.932773 630 
L 633.932773 177.488926 
L 629.243697 177.488926 
z
" style="fill:#55a868;"/>
   </g>
   <g id="patch_237">
    <path clip-path="url(#p9f08b5d1eb)" d="M 633.932773 630 
L 638.621849 630 
L 638.621849 112.285714 
L 633.932773 112.285714 
z
" style="fill:#55a868;"/>
   </g>
   <g id="patch_238">
    <path clip-path="url(#p9f08b5d1eb)" d="M 638.621849 630 
L 643.310924 630 
L 643.310924 548.525321 
L 638.621849 548.525321 
z
" style="fill:#55a868;"/>
   </g>
   <g id="matplotlib.axis_1">
    <g id="xtick_1">
     <g id="line2d_1">
      <defs>
       <path d="M 0 0 
L 0 3.5 
" id="m2fcfe3f7eb" style="stroke:#000000;stroke-width:0.8;"/>
      </defs>
      <g>
       <use style="stroke:#000000;stroke-width:0.8;" x="90" xlink:href="#m2fcfe3f7eb" y="630"/>
      </g>
     </g>
     <g id="text_1">
      <!-- 1900 -->
      <defs>
       <path d="M 12.40625 8.296875 
L 28.515625 8.296875 
L 28.515625 63.921875 
L 10.984375 60.40625 
L 10.984375 69.390625 
L 28.421875 72.90625 
L 38.28125 72.90625 
L 38.28125 8.296875 
L 54.390625 8.296875 
L 54.390625 0 
L 12.40625 0 
z
" id="DejaVuSans-31"/>
       <path d="M 10.984375 1.515625 
L 10.984375 10.5 
Q 14.703125 8.734375 18.5 7.8125 
Q 22.3125 6.890625 25.984375 6.890625 
Q 35.75 6.890625 40.890625 13.453125 
Q 46.046875 20.015625 46.78125 33.40625 
Q 43.953125 29.203125 39.59375 26.953125 
Q 35.25 24.703125 29.984375 24.703125 
Q 19.046875 24.703125 12.671875 31.3125 
Q 6.296875 37.9375 6.296875 49.421875 
Q 6.296875 60.640625 12.9375 67.421875 
Q 19.578125 74.21875 30.609375 74.21875 
Q 43.265625 74.21875 49.921875 64.515625 
Q 56.59375 54.828125 56.59375 36.375 
Q 56.59375 19.140625 48.40625 8.859375 
Q 40.234375 -1.421875 26.421875 -1.421875 
Q 22.703125 -1.421875 18.890625 -0.6875 
Q 15.09375 0.046875 10.984375 1.515625 
z
M 30.609375 32.421875 
Q 37.25 32.421875 41.125 36.953125 
Q 45.015625 41.5 45.015625 49.421875 
Q 45.015625 57.28125 41.125 61.84375 
Q 37.25 66.40625 30.609375 66.40625 
Q 23.96875 66.40625 20.09375 61.84375 
Q 16.21875 57.28125 16.21875 49.421875 
Q 16.21875 41.5 20.09375 36.953125 
Q 23.96875 32.421875 30.609375 32.421875 
z
" id="DejaVuSans-39"/>
       <path d="M 31.78125 66.40625 
Q 24.171875 66.40625 20.328125 58.90625 
Q 16.5 51.421875 16.5 36.375 
Q 16.5 21.390625 20.328125 13.890625 
Q 24.171875 6.390625 31.78125 6.390625 
Q 39.453125 6.390625 43.28125 13.890625 
Q 47.125 21.390625 47.125 36.375 
Q 47.125 51.421875 43.28125 58.90625 
Q 39.453125 66.40625 31.78125 66.40625 
z
M 31.78125 74.21875 
Q 44.046875 74.21875 50.515625 64.515625 
Q 56.984375 54.828125 56.984375 36.375 
Q 56.984375 17.96875 50.515625 8.265625 
Q 44.046875 -1.421875 31.78125 -1.421875 
Q 19.53125 -1.421875 13.0625 8.265625 
Q 6.59375 17.96875 6.59375 36.375 
Q 6.59375 54.828125 13.0625 64.515625 
Q 19.53125 74.21875 31.78125 74.21875 
z
" id="DejaVuSans-30"/>
      </defs>
      <g transform="translate(77.275 644.598438)scale(0.1 -0.1)">
       <use xlink:href="#DejaVuSans-31"/>
       <use x="63.623047" xlink:href="#DejaVuSans-39"/>
       <use x="127.246094" xlink:href="#DejaVuSans-30"/>
       <use x="190.869141" xlink:href="#DejaVuSans-30"/>
      </g>
     </g>
    </g>
    <g id="xtick_2">
     <g id="line2d_2">
      <g>
       <use style="stroke:#000000;stroke-width:0.8;" x="183.781513" xlink:href="#m2fcfe3f7eb" y="630"/>
      </g>
     </g>
     <g id="text_2">
      <!-- 1920 -->
      <defs>
       <path d="M 19.1875 8.296875 
L 53.609375 8.296875 
L 53.609375 0 
L 7.328125 0 
L 7.328125 8.296875 
Q 12.9375 14.109375 22.625 23.890625 
Q 32.328125 33.6875 34.8125 36.53125 
Q 39.546875 41.84375 41.421875 45.53125 
Q 43.3125 49.21875 43.3125 52.78125 
Q 43.3125 58.59375 39.234375 62.25 
Q 35.15625 65.921875 28.609375 65.921875 
Q 23.96875 65.921875 18.8125 64.3125 
Q 13.671875 62.703125 7.8125 59.421875 
L 7.8125 69.390625 
Q 13.765625 71.78125 18.9375 73 
Q 24.125 74.21875 28.421875 74.21875 
Q 39.75 74.21875 46.484375 68.546875 
Q 53.21875 62.890625 53.21875 53.421875 
Q 53.21875 48.921875 51.53125 44.890625 
Q 49.859375 40.875 45.40625 35.40625 
Q 44.1875 33.984375 37.640625 27.21875 
Q 31.109375 20.453125 19.1875 8.296875 
z
" id="DejaVuSans-32"/>
      </defs>
      <g transform="translate(171.056513 644.598438)scale(0.1 -0.1)">
       <use xlink:href="#DejaVuSans-31"/>
       <use x="63.623047" xlink:href="#DejaVuSans-39"/>
       <use x="127.246094" xlink:href="#DejaVuSans-32"/>
       <use x="190.869141" xlink:href="#DejaVuSans-30"/>
      </g>
     </g>
    </g>
    <g id="xtick_3">
     <g id="line2d_3">
      <g>
       <use style="stroke:#000000;stroke-width:0.8;" x="277.563025" xlink:href="#m2fcfe3f7eb" y="630"/>
      </g>
     </g>
     <g id="text_3">
      <!-- 1940 -->
      <defs>
       <path d="M 37.796875 64.3125 
L 12.890625 25.390625 
L 37.796875 25.390625 
z
M 35.203125 72.90625 
L 47.609375 72.90625 
L 47.609375 25.390625 
L 58.015625 25.390625 
L 58.015625 17.1875 
L 47.609375 17.1875 
L 47.609375 0 
L 37.796875 0 
L 37.796875 17.1875 
L 4.890625 17.1875 
L 4.890625 26.703125 
z
" id="DejaVuSans-34"/>
      </defs>
      <g transform="translate(264.838025 644.598438)scale(0.1 -0.1)">
       <use xlink:href="#DejaVuSans-31"/>
       <use x="63.623047" xlink:href="#DejaVuSans-39"/>
       <use x="127.246094" xlink:href="#DejaVuSans-34"/>
       <use x="190.869141" xlink:href="#DejaVuSans-30"/>
      </g>
     </g>
    </g>
    <g id="xtick_4">
     <g id="line2d_4">
      <g>
       <use style="stroke:#000000;stroke-width:0.8;" x="371.344538" xlink:href="#m2fcfe3f7eb" y="630"/>
      </g>
     </g>
     <g id="text_4">
      <!-- 1960 -->
      <defs>
       <path d="M 33.015625 40.375 
Q 26.375 40.375 22.484375 35.828125 
Q 18.609375 31.296875 18.609375 23.390625 
Q 18.609375 15.53125 22.484375 10.953125 
Q 26.375 6.390625 33.015625 6.390625 
Q 39.65625 6.390625 43.53125 10.953125 
Q 47.40625 15.53125 47.40625 23.390625 
Q 47.40625 31.296875 43.53125 35.828125 
Q 39.65625 40.375 33.015625 40.375 
z
M 52.59375 71.296875 
L 52.59375 62.3125 
Q 48.875 64.0625 45.09375 64.984375 
Q 41.3125 65.921875 37.59375 65.921875 
Q 27.828125 65.921875 22.671875 59.328125 
Q 17.53125 52.734375 16.796875 39.40625 
Q 19.671875 43.65625 24.015625 45.921875 
Q 28.375 48.1875 33.59375 48.1875 
Q 44.578125 48.1875 50.953125 41.515625 
Q 57.328125 34.859375 57.328125 23.390625 
Q 57.328125 12.15625 50.6875 5.359375 
Q 44.046875 -1.421875 33.015625 -1.421875 
Q 20.359375 -1.421875 13.671875 8.265625 
Q 6.984375 17.96875 6.984375 36.375 
Q 6.984375 53.65625 15.1875 63.9375 
Q 23.390625 74.21875 37.203125 74.21875 
Q 40.921875 74.21875 44.703125 73.484375 
Q 48.484375 72.75 52.59375 71.296875 
z
" id="DejaVuSans-36"/>
      </defs>
      <g transform="translate(358.619538 644.598438)scale(0.1 -0.1)">
       <use xlink:href="#DejaVuSans-31"/>
       <use x="63.623047" xlink:href="#DejaVuSans-39"/>
       <use x="127.246094" xlink:href="#DejaVuSans-36"/>
       <use x="190.869141" xlink:href="#DejaVuSans-30"/>
      </g>
     </g>
    </g>
    <g id="xtick_5">
     <g id="line2d_5">
      <g>
       <use style="stroke:#000000;stroke-width:0.8;" x="465.12605" xlink:href="#m2fcfe3f7eb" y="630"/>
      </g>
     </g>
     <g id="text_5">
      <!-- 1980 -->
      <defs>
       <path d="M 31.78125 34.625 
Q 24.75 34.625 20.71875 30.859375 
Q 16.703125 27.09375 16.703125 20.515625 
Q 16.703125 13.921875 20.71875 10.15625 
Q 24.75 6.390625 31.78125 6.390625 
Q 38.8125 6.390625 42.859375 10.171875 
Q 46.921875 13.96875 46.921875 20.515625 
Q 46.921875 27.09375 42.890625 30.859375 
Q 38.875 34.625 31.78125 34.625 
z
M 21.921875 38.8125 
Q 15.578125 40.375 12.03125 44.71875 
Q 8.5 49.078125 8.5 55.328125 
Q 8.5 64.0625 14.71875 69.140625 
Q 20.953125 74.21875 31.78125 74.21875 
Q 42.671875 74.21875 48.875 69.140625 
Q 55.078125 64.0625 55.078125 55.328125 
Q 55.078125 49.078125 51.53125 44.71875 
Q 48 40.375 41.703125 38.8125 
Q 48.828125 37.15625 52.796875 32.3125 
Q 56.78125 27.484375 56.78125 20.515625 
Q 56.78125 9.90625 50.3125 4.234375 
Q 43.84375 -1.421875 31.78125 -1.421875 
Q 19.734375 -1.421875 13.25 4.234375 
Q 6.78125 9.90625 6.78125 20.515625 
Q 6.78125 27.484375 10.78125 32.3125 
Q 14.796875 37.15625 21.921875 38.8125 
z
M 18.3125 54.390625 
Q 18.3125 48.734375 21.84375 45.5625 
Q 25.390625 42.390625 31.78125 42.390625 
Q 38.140625 42.390625 41.71875 45.5625 
Q 45.3125 48.734375 45.3125 54.390625 
Q 45.3125 60.0625 41.71875 63.234375 
Q 38.140625 66.40625 31.78125 66.40625 
Q 25.390625 66.40625 21.84375 63.234375 
Q 18.3125 60.0625 18.3125 54.390625 
z
" id="DejaVuSans-38"/>
      </defs>
      <g transform="translate(452.40105 644.598438)scale(0.1 -0.1)">
       <use xlink:href="#DejaVuSans-31"/>
       <use x="63.623047" xlink:href="#DejaVuSans-39"/>
       <use x="127.246094" xlink:href="#DejaVuSans-38"/>
       <use x="190.869141" xlink:href="#DejaVuSans-30"/>
      </g>
     </g>
    </g>
    <g id="xtick_6">
     <g id="line2d_6">
      <g>
       <use style="stroke:#000000;stroke-width:0.8;" x="558.907563" xlink:href="#m2fcfe3f7eb" y="630"/>
      </g>
     </g>
     <g id="text_6">
      <!-- 2000 -->
      <g transform="translate(546.182563 644.598438)scale(0.1 -0.1)">
       <use xlink:href="#DejaVuSans-32"/>
       <use x="63.623047" xlink:href="#DejaVuSans-30"/>
       <use x="127.246094" xlink:href="#DejaVuSans-30"/>
       <use x="190.869141" xlink:href="#DejaVuSans-30"/>
      </g>
     </g>
    </g>
    <g id="text_7">
     <!-- julkaisuvuosi -->
     <defs>
      <path d="M 9.421875 54.6875 
L 18.40625 54.6875 
L 18.40625 -0.984375 
Q 18.40625 -11.421875 14.421875 -16.109375 
Q 10.453125 -20.796875 1.609375 -20.796875 
L -1.8125 -20.796875 
L -1.8125 -13.1875 
L 0.59375 -13.1875 
Q 5.71875 -13.1875 7.5625 -10.8125 
Q 9.421875 -8.453125 9.421875 -0.984375 
z
M 9.421875 75.984375 
L 18.40625 75.984375 
L 18.40625 64.59375 
L 9.421875 64.59375 
z
" id="DejaVuSans-6a"/>
      <path d="M 8.5 21.578125 
L 8.5 54.6875 
L 17.484375 54.6875 
L 17.484375 21.921875 
Q 17.484375 14.15625 20.5 10.265625 
Q 23.53125 6.390625 29.59375 6.390625 
Q 36.859375 6.390625 41.078125 11.03125 
Q 45.3125 15.671875 45.3125 23.6875 
L 45.3125 54.6875 
L 54.296875 54.6875 
L 54.296875 0 
L 45.3125 0 
L 45.3125 8.40625 
Q 42.046875 3.421875 37.71875 1 
Q 33.40625 -1.421875 27.6875 -1.421875 
Q 18.265625 -1.421875 13.375 4.4375 
Q 8.5 10.296875 8.5 21.578125 
z
M 31.109375 56 
z
" id="DejaVuSans-75"/>
      <path d="M 9.421875 75.984375 
L 18.40625 75.984375 
L 18.40625 0 
L 9.421875 0 
z
" id="DejaVuSans-6c"/>
      <path d="M 9.078125 75.984375 
L 18.109375 75.984375 
L 18.109375 31.109375 
L 44.921875 54.6875 
L 56.390625 54.6875 
L 27.390625 29.109375 
L 57.625 0 
L 45.90625 0 
L 18.109375 26.703125 
L 18.109375 0 
L 9.078125 0 
z
" id="DejaVuSans-6b"/>
      <path d="M 34.28125 27.484375 
Q 23.390625 27.484375 19.1875 25 
Q 14.984375 22.515625 14.984375 16.5 
Q 14.984375 11.71875 18.140625 8.90625 
Q 21.296875 6.109375 26.703125 6.109375 
Q 34.1875 6.109375 38.703125 11.40625 
Q 43.21875 16.703125 43.21875 25.484375 
L 43.21875 27.484375 
z
M 52.203125 31.203125 
L 52.203125 0 
L 43.21875 0 
L 43.21875 8.296875 
Q 40.140625 3.328125 35.546875 0.953125 
Q 30.953125 -1.421875 24.3125 -1.421875 
Q 15.921875 -1.421875 10.953125 3.296875 
Q 6 8.015625 6 15.921875 
Q 6 25.140625 12.171875 29.828125 
Q 18.359375 34.515625 30.609375 34.515625 
L 43.21875 34.515625 
L 43.21875 35.40625 
Q 43.21875 41.609375 39.140625 45 
Q 35.0625 48.390625 27.6875 48.390625 
Q 23 48.390625 18.546875 47.265625 
Q 14.109375 46.140625 10.015625 43.890625 
L 10.015625 52.203125 
Q 14.9375 54.109375 19.578125 55.046875 
Q 24.21875 56 28.609375 56 
Q 40.484375 56 46.34375 49.84375 
Q 52.203125 43.703125 52.203125 31.203125 
z
" id="DejaVuSans-61"/>
      <path d="M 9.421875 54.6875 
L 18.40625 54.6875 
L 18.40625 0 
L 9.421875 0 
z
M 9.421875 75.984375 
L 18.40625 75.984375 
L 18.40625 64.59375 
L 9.421875 64.59375 
z
" id="DejaVuSans-69"/>
      <path d="M 44.28125 53.078125 
L 44.28125 44.578125 
Q 40.484375 46.53125 36.375 47.5 
Q 32.28125 48.484375 27.875 48.484375 
Q 21.1875 48.484375 17.84375 46.4375 
Q 14.5 44.390625 14.5 40.28125 
Q 14.5 37.15625 16.890625 35.375 
Q 19.28125 33.59375 26.515625 31.984375 
L 29.59375 31.296875 
Q 39.15625 29.25 43.1875 25.515625 
Q 47.21875 21.78125 47.21875 15.09375 
Q 47.21875 7.46875 41.1875 3.015625 
Q 35.15625 -1.421875 24.609375 -1.421875 
Q 20.21875 -1.421875 15.453125 -0.5625 
Q 10.6875 0.296875 5.421875 2 
L 5.421875 11.28125 
Q 10.40625 8.6875 15.234375 7.390625 
Q 20.0625 6.109375 24.8125 6.109375 
Q 31.15625 6.109375 34.5625 8.28125 
Q 37.984375 10.453125 37.984375 14.40625 
Q 37.984375 18.0625 35.515625 20.015625 
Q 33.0625 21.96875 24.703125 23.78125 
L 21.578125 24.515625 
Q 13.234375 26.265625 9.515625 29.90625 
Q 5.8125 33.546875 5.8125 39.890625 
Q 5.8125 47.609375 11.28125 51.796875 
Q 16.75 56 26.8125 56 
Q 31.78125 56 36.171875 55.265625 
Q 40.578125 54.546875 44.28125 53.078125 
z
" id="DejaVuSans-73"/>
      <path d="M 2.984375 54.6875 
L 12.5 54.6875 
L 29.59375 8.796875 
L 46.6875 54.6875 
L 56.203125 54.6875 
L 35.6875 0 
L 23.484375 0 
z
" id="DejaVuSans-76"/>
      <path d="M 30.609375 48.390625 
Q 23.390625 48.390625 19.1875 42.75 
Q 14.984375 37.109375 14.984375 27.296875 
Q 14.984375 17.484375 19.15625 11.84375 
Q 23.34375 6.203125 30.609375 6.203125 
Q 37.796875 6.203125 41.984375 11.859375 
Q 46.1875 17.53125 46.1875 27.296875 
Q 46.1875 37.015625 41.984375 42.703125 
Q 37.796875 48.390625 30.609375 48.390625 
z
M 30.609375 56 
Q 42.328125 56 49.015625 48.375 
Q 55.71875 40.765625 55.71875 27.296875 
Q 55.71875 13.875 49.015625 6.21875 
Q 42.328125 -1.421875 30.609375 -1.421875 
Q 18.84375 -1.421875 12.171875 6.21875 
Q 5.515625 13.875 5.515625 27.296875 
Q 5.515625 40.765625 12.171875 48.375 
Q 18.84375 56 30.609375 56 
z
" id="DejaVuSans-6f"/>
     </defs>
     <g transform="translate(336.750781 658.276562)scale(0.1 -0.1)">
      <use xlink:href="#DejaVuSans-6a"/>
      <use x="27.783203" xlink:href="#DejaVuSans-75"/>
      <use x="91.162109" xlink:href="#DejaVuSans-6c"/>
      <use x="118.945312" xlink:href="#DejaVuSans-6b"/>
      <use x="176.839844" xlink:href="#DejaVuSans-61"/>
      <use x="238.119141" xlink:href="#DejaVuSans-69"/>
      <use x="265.902344" xlink:href="#DejaVuSans-73"/>
      <use x="318.001953" xlink:href="#DejaVuSans-75"/>
      <use x="381.380859" xlink:href="#DejaVuSans-76"/>
      <use x="440.560547" xlink:href="#DejaVuSans-75"/>
      <use x="503.939453" xlink:href="#DejaVuSans-6f"/>
      <use x="565.121094" xlink:href="#DejaVuSans-73"/>
      <use x="617.220703" xlink:href="#DejaVuSans-69"/>
     </g>
    </g>
   </g>
   <g id="matplotlib.axis_2">
    <g id="ytick_1">
     <g id="line2d_7">
      <defs>
       <path d="M 0 0 
L -3.5 0 
" id="me73afcdfd0" style="stroke:#000000;stroke-width:0.8;"/>
      </defs>
      <g>
       <use style="stroke:#000000;stroke-width:0.8;" x="90" xlink:href="#me73afcdfd0" y="630"/>
      </g>
     </g>
     <g id="text_8">
      <!-- 0 -->
      <g transform="translate(76.6375 633.799219)scale(0.1 -0.1)">
       <use xlink:href="#DejaVuSans-30"/>
      </g>
     </g>
    </g>
    <g id="ytick_2">
     <g id="line2d_8">
      <g>
       <use style="stroke:#000000;stroke-width:0.8;" x="90" xlink:href="#me73afcdfd0" y="551.771791"/>
      </g>
     </g>
     <g id="text_9">
      <!-- 2000 -->
      <g transform="translate(57.55 555.57101)scale(0.1 -0.1)">
       <use xlink:href="#DejaVuSans-32"/>
       <use x="63.623047" xlink:href="#DejaVuSans-30"/>
       <use x="127.246094" xlink:href="#DejaVuSans-30"/>
       <use x="190.869141" xlink:href="#DejaVuSans-30"/>
      </g>
     </g>
    </g>
    <g id="ytick_3">
     <g id="line2d_9">
      <g>
       <use style="stroke:#000000;stroke-width:0.8;" x="90" xlink:href="#me73afcdfd0" y="473.543582"/>
      </g>
     </g>
     <g id="text_10">
      <!-- 4000 -->
      <g transform="translate(57.55 477.342801)scale(0.1 -0.1)">
       <use xlink:href="#DejaVuSans-34"/>
       <use x="63.623047" xlink:href="#DejaVuSans-30"/>
       <use x="127.246094" xlink:href="#DejaVuSans-30"/>
       <use x="190.869141" xlink:href="#DejaVuSans-30"/>
      </g>
     </g>
    </g>
    <g id="ytick_4">
     <g id="line2d_10">
      <g>
       <use style="stroke:#000000;stroke-width:0.8;" x="90" xlink:href="#me73afcdfd0" y="395.315374"/>
      </g>
     </g>
     <g id="text_11">
      <!-- 6000 -->
      <g transform="translate(57.55 399.114592)scale(0.1 -0.1)">
       <use xlink:href="#DejaVuSans-36"/>
       <use x="63.623047" xlink:href="#DejaVuSans-30"/>
       <use x="127.246094" xlink:href="#DejaVuSans-30"/>
       <use x="190.869141" xlink:href="#DejaVuSans-30"/>
      </g>
     </g>
    </g>
    <g id="ytick_5">
     <g id="line2d_11">
      <g>
       <use style="stroke:#000000;stroke-width:0.8;" x="90" xlink:href="#me73afcdfd0" y="317.087165"/>
      </g>
     </g>
     <g id="text_12">
      <!-- 8000 -->
      <g transform="translate(57.55 320.886384)scale(0.1 -0.1)">
       <use xlink:href="#DejaVuSans-38"/>
       <use x="63.623047" xlink:href="#DejaVuSans-30"/>
       <use x="127.246094" xlink:href="#DejaVuSans-30"/>
       <use x="190.869141" xlink:href="#DejaVuSans-30"/>
      </g>
     </g>
    </g>
    <g id="ytick_6">
     <g id="line2d_12">
      <g>
       <use style="stroke:#000000;stroke-width:0.8;" x="90" xlink:href="#me73afcdfd0" y="238.858956"/>
      </g>
     </g>
     <g id="text_13">
      <!-- 10000 -->
      <g transform="translate(51.1875 242.658175)scale(0.1 -0.1)">
       <use xlink:href="#DejaVuSans-31"/>
       <use x="63.623047" xlink:href="#DejaVuSans-30"/>
       <use x="127.246094" xlink:href="#DejaVuSans-30"/>
       <use x="190.869141" xlink:href="#DejaVuSans-30"/>
       <use x="254.492188" xlink:href="#DejaVuSans-30"/>
      </g>
     </g>
    </g>
    <g id="ytick_7">
     <g id="line2d_13">
      <g>
       <use style="stroke:#000000;stroke-width:0.8;" x="90" xlink:href="#me73afcdfd0" y="160.630747"/>
      </g>
     </g>
     <g id="text_14">
      <!-- 12000 -->
      <g transform="translate(51.1875 164.429966)scale(0.1 -0.1)">
       <use xlink:href="#DejaVuSans-31"/>
       <use x="63.623047" xlink:href="#DejaVuSans-32"/>
       <use x="127.246094" xlink:href="#DejaVuSans-30"/>
       <use x="190.869141" xlink:href="#DejaVuSans-30"/>
       <use x="254.492188" xlink:href="#DejaVuSans-30"/>
      </g>
     </g>
    </g>
    <g id="text_15">
     <!-- tietueiden mr -->
     <defs>
      <path d="M 18.3125 70.21875 
L 18.3125 54.6875 
L 36.8125 54.6875 
L 36.8125 47.703125 
L 18.3125 47.703125 
L 18.3125 18.015625 
Q 18.3125 11.328125 20.140625 9.421875 
Q 21.96875 7.515625 27.59375 7.515625 
L 36.8125 7.515625 
L 36.8125 0 
L 27.59375 0 
Q 17.1875 0 13.234375 3.875 
Q 9.28125 7.765625 9.28125 18.015625 
L 9.28125 47.703125 
L 2.6875 47.703125 
L 2.6875 54.6875 
L 9.28125 54.6875 
L 9.28125 70.21875 
z
" id="DejaVuSans-74"/>
      <path d="M 56.203125 29.59375 
L 56.203125 25.203125 
L 14.890625 25.203125 
Q 15.484375 15.921875 20.484375 11.0625 
Q 25.484375 6.203125 34.421875 6.203125 
Q 39.59375 6.203125 44.453125 7.46875 
Q 49.3125 8.734375 54.109375 11.28125 
L 54.109375 2.78125 
Q 49.265625 0.734375 44.1875 -0.34375 
Q 39.109375 -1.421875 33.890625 -1.421875 
Q 20.796875 -1.421875 13.15625 6.1875 
Q 5.515625 13.8125 5.515625 26.8125 
Q 5.515625 40.234375 12.765625 48.109375 
Q 20.015625 56 32.328125 56 
Q 43.359375 56 49.78125 48.890625 
Q 56.203125 41.796875 56.203125 29.59375 
z
M 47.21875 32.234375 
Q 47.125 39.59375 43.09375 43.984375 
Q 39.0625 48.390625 32.421875 48.390625 
Q 24.90625 48.390625 20.390625 44.140625 
Q 15.875 39.890625 15.1875 32.171875 
z
" id="DejaVuSans-65"/>
      <path d="M 45.40625 46.390625 
L 45.40625 75.984375 
L 54.390625 75.984375 
L 54.390625 0 
L 45.40625 0 
L 45.40625 8.203125 
Q 42.578125 3.328125 38.25 0.953125 
Q 33.9375 -1.421875 27.875 -1.421875 
Q 17.96875 -1.421875 11.734375 6.484375 
Q 5.515625 14.40625 5.515625 27.296875 
Q 5.515625 40.1875 11.734375 48.09375 
Q 17.96875 56 27.875 56 
Q 33.9375 56 38.25 53.625 
Q 42.578125 51.265625 45.40625 46.390625 
z
M 14.796875 27.296875 
Q 14.796875 17.390625 18.875 11.75 
Q 22.953125 6.109375 30.078125 6.109375 
Q 37.203125 6.109375 41.296875 11.75 
Q 45.40625 17.390625 45.40625 27.296875 
Q 45.40625 37.203125 41.296875 42.84375 
Q 37.203125 48.484375 30.078125 48.484375 
Q 22.953125 48.484375 18.875 42.84375 
Q 14.796875 37.203125 14.796875 27.296875 
z
" id="DejaVuSans-64"/>
      <path d="M 54.890625 33.015625 
L 54.890625 0 
L 45.90625 0 
L 45.90625 32.71875 
Q 45.90625 40.484375 42.875 44.328125 
Q 39.84375 48.1875 33.796875 48.1875 
Q 26.515625 48.1875 22.3125 43.546875 
Q 18.109375 38.921875 18.109375 30.90625 
L 18.109375 0 
L 9.078125 0 
L 9.078125 54.6875 
L 18.109375 54.6875 
L 18.109375 46.1875 
Q 21.34375 51.125 25.703125 53.5625 
Q 30.078125 56 35.796875 56 
Q 45.21875 56 50.046875 50.171875 
Q 54.890625 44.34375 54.890625 33.015625 
z
" id="DejaVuSans-6e"/>
      <path id="DejaVuSans-20"/>
      <path d="M 52 44.1875 
Q 55.375 50.25 60.0625 53.125 
Q 64.75 56 71.09375 56 
Q 79.640625 56 84.28125 50.015625 
Q 88.921875 44.046875 88.921875 33.015625 
L 88.921875 0 
L 79.890625 0 
L 79.890625 32.71875 
Q 79.890625 40.578125 77.09375 44.375 
Q 74.3125 48.1875 68.609375 48.1875 
Q 61.625 48.1875 57.5625 43.546875 
Q 53.515625 38.921875 53.515625 30.90625 
L 53.515625 0 
L 44.484375 0 
L 44.484375 32.71875 
Q 44.484375 40.625 41.703125 44.40625 
Q 38.921875 48.1875 33.109375 48.1875 
Q 26.21875 48.1875 22.15625 43.53125 
Q 18.109375 38.875 18.109375 30.90625 
L 18.109375 0 
L 9.078125 0 
L 9.078125 54.6875 
L 18.109375 54.6875 
L 18.109375 46.1875 
Q 21.1875 51.21875 25.484375 53.609375 
Q 29.78125 56 35.6875 56 
Q 41.65625 56 45.828125 52.96875 
Q 50 49.953125 52 44.1875 
z
" id="DejaVuSans-6d"/>
      <path d="M 34.28125 27.484375 
Q 23.390625 27.484375 19.1875 25 
Q 14.984375 22.515625 14.984375 16.5 
Q 14.984375 11.71875 18.140625 8.90625 
Q 21.296875 6.109375 26.703125 6.109375 
Q 34.1875 6.109375 38.703125 11.40625 
Q 43.21875 16.703125 43.21875 25.484375 
L 43.21875 27.484375 
z
M 52.203125 31.203125 
L 52.203125 0 
L 43.21875 0 
L 43.21875 8.296875 
Q 40.140625 3.328125 35.546875 0.953125 
Q 30.953125 -1.421875 24.3125 -1.421875 
Q 15.921875 -1.421875 10.953125 3.296875 
Q 6 8.015625 6 15.921875 
Q 6 25.140625 12.171875 29.828125 
Q 18.359375 34.515625 30.609375 34.515625 
L 43.21875 34.515625 
L 43.21875 35.40625 
Q 43.21875 41.609375 39.140625 45 
Q 35.0625 48.390625 27.6875 48.390625 
Q 23 48.390625 18.546875 47.265625 
Q 14.109375 46.140625 10.015625 43.890625 
L 10.015625 52.203125 
Q 14.9375 54.109375 19.578125 55.046875 
Q 24.21875 56 28.609375 56 
Q 40.484375 56 46.34375 49.84375 
Q 52.203125 43.703125 52.203125 31.203125 
z
M 33.59375 75.78125 
L 43.5 75.78125 
L 43.5 65.921875 
L 33.59375 65.921875 
z
M 14.5 75.78125 
L 24.40625 75.78125 
L 24.40625 65.921875 
L 14.5 65.921875 
z
" id="DejaVuSans-e4"/>
      <path d="M 41.109375 46.296875 
Q 39.59375 47.171875 37.8125 47.578125 
Q 36.03125 48 33.890625 48 
Q 26.265625 48 22.1875 43.046875 
Q 18.109375 38.09375 18.109375 28.8125 
L 18.109375 0 
L 9.078125 0 
L 9.078125 54.6875 
L 18.109375 54.6875 
L 18.109375 46.1875 
Q 20.953125 51.171875 25.484375 53.578125 
Q 30.03125 56 36.53125 56 
Q 37.453125 56 38.578125 55.875 
Q 39.703125 55.765625 41.0625 55.515625 
z
" id="DejaVuSans-72"/>
     </defs>
     <g transform="translate(45.107812 401.346875)rotate(-90)scale(0.1 -0.1)">
      <use xlink:href="#DejaVuSans-74"/>
      <use x="39.208984" xlink:href="#DejaVuSans-69"/>
      <use x="66.992188" xlink:href="#DejaVuSans-65"/>
      <use x="128.515625" xlink:href="#DejaVuSans-74"/>
      <use x="167.724609" xlink:href="#DejaVuSans-75"/>
      <use x="231.103516" xlink:href="#DejaVuSans-65"/>
      <use x="292.626953" xlink:href="#DejaVuSans-69"/>
      <use x="320.410156" xlink:href="#DejaVuSans-64"/>
      <use x="383.886719" xlink:href="#DejaVuSans-65"/>
      <use x="445.410156" xlink:href="#DejaVuSans-6e"/>
      <use x="508.789062" xlink:href="#DejaVuSans-20"/>
      <use x="540.576172" xlink:href="#DejaVuSans-6d"/>
      <use x="637.988281" xlink:href="#DejaVuSans-e4"/>
      <use x="699.267578" xlink:href="#DejaVuSans-e4"/>
      <use x="760.546875" xlink:href="#DejaVuSans-72"/>
      <use x="801.660156" xlink:href="#DejaVuSans-e4"/>
     </g>
    </g>
   </g>
   <g id="patch_239">
    <path d="M 90 630 
L 90 86.4 
" style="fill:none;stroke:#000000;stroke-linecap:square;stroke-linejoin:miter;stroke-width:0.8;"/>
   </g>
   <g id="patch_240">
    <path d="M 648 630 
L 648 86.4 
" style="fill:none;stroke:#000000;stroke-linecap:square;stroke-linejoin:miter;stroke-width:0.8;"/>
   </g>
   <g id="patch_241">
    <path d="M 90 630 
L 648 630 
" style="fill:none;stroke:#000000;stroke-linecap:square;stroke-linejoin:miter;stroke-width:0.8;"/>
   </g>
   <g id="patch_242">
    <path d="M 90 86.4 
L 648 86.4 
" style="fill:none;stroke:#000000;stroke-linecap:square;stroke-linejoin:miter;stroke-width:0.8;"/>
   </g>
   <g id="text_16">
    <!-- Pilottien ja Vaskin aineistojen julkaisuvuosien jakauma -->
    <defs>
     <path d="M 19.671875 64.796875 
L 19.671875 37.40625 
L 32.078125 37.40625 
Q 38.96875 37.40625 42.71875 40.96875 
Q 46.484375 44.53125 46.484375 51.125 
Q 46.484375 57.671875 42.71875 61.234375 
Q 38.96875 64.796875 32.078125 64.796875 
z
M 9.8125 72.90625 
L 32.078125 72.90625 
Q 44.34375 72.90625 50.609375 67.359375 
Q 56.890625 61.8125 56.890625 51.125 
Q 56.890625 40.328125 50.609375 34.8125 
Q 44.34375 29.296875 32.078125 29.296875 
L 19.671875 29.296875 
L 19.671875 0 
L 9.8125 0 
z
" id="DejaVuSans-50"/>
     <path d="M 28.609375 0 
L 0.78125 72.90625 
L 11.078125 72.90625 
L 34.1875 11.53125 
L 57.328125 72.90625 
L 67.578125 72.90625 
L 39.796875 0 
z
" id="DejaVuSans-56"/>
    </defs>
    <g transform="translate(204.964687 80.4)scale(0.12 -0.12)">
     <use xlink:href="#DejaVuSans-50"/>
     <use x="60.271484" xlink:href="#DejaVuSans-69"/>
     <use x="88.054688" xlink:href="#DejaVuSans-6c"/>
     <use x="115.837891" xlink:href="#DejaVuSans-6f"/>
     <use x="177.019531" xlink:href="#DejaVuSans-74"/>
     <use x="216.228516" xlink:href="#DejaVuSans-74"/>
     <use x="255.4375" xlink:href="#DejaVuSans-69"/>
     <use x="283.220703" xlink:href="#DejaVuSans-65"/>
     <use x="344.744141" xlink:href="#DejaVuSans-6e"/>
     <use x="408.123047" xlink:href="#DejaVuSans-20"/>
     <use x="439.910156" xlink:href="#DejaVuSans-6a"/>
     <use x="467.693359" xlink:href="#DejaVuSans-61"/>
     <use x="528.972656" xlink:href="#DejaVuSans-20"/>
     <use x="560.759766" xlink:href="#DejaVuSans-56"/>
     <use x="629.058594" xlink:href="#DejaVuSans-61"/>
     <use x="690.337891" xlink:href="#DejaVuSans-73"/>
     <use x="742.4375" xlink:href="#DejaVuSans-6b"/>
     <use x="800.347656" xlink:href="#DejaVuSans-69"/>
     <use x="828.130859" xlink:href="#DejaVuSans-6e"/>
     <use x="891.509766" xlink:href="#DejaVuSans-20"/>
     <use x="923.296875" xlink:href="#DejaVuSans-61"/>
     <use x="984.576172" xlink:href="#DejaVuSans-69"/>
     <use x="1012.359375" xlink:href="#DejaVuSans-6e"/>
     <use x="1075.738281" xlink:href="#DejaVuSans-65"/>
     <use x="1137.261719" xlink:href="#DejaVuSans-69"/>
     <use x="1165.044922" xlink:href="#DejaVuSans-73"/>
     <use x="1217.144531" xlink:href="#DejaVuSans-74"/>
     <use x="1256.353516" xlink:href="#DejaVuSans-6f"/>
     <use x="1317.535156" xlink:href="#DejaVuSans-6a"/>
     <use x="1345.318359" xlink:href="#DejaVuSans-65"/>
     <use x="1406.841797" xlink:href="#DejaVuSans-6e"/>
     <use x="1470.220703" xlink:href="#DejaVuSans-20"/>
     <use x="1502.007812" xlink:href="#DejaVuSans-6a"/>
     <use x="1529.791016" xlink:href="#DejaVuSans-75"/>
     <use x="1593.169922" xlink:href="#DejaVuSans-6c"/>
     <use x="1620.953125" xlink:href="#DejaVuSans-6b"/>
     <use x="1678.847656" xlink:href="#DejaVuSans-61"/>
     <use x="1740.126953" xlink:href="#DejaVuSans-69"/>
     <use x="1767.910156" xlink:href="#DejaVuSans-73"/>
     <use x="1820.009766" xlink:href="#DejaVuSans-75"/>
     <use x="1883.388672" xlink:href="#DejaVuSans-76"/>
     <use x="1942.568359" xlink:href="#DejaVuSans-75"/>
     <use x="2005.947266" xlink:href="#DejaVuSans-6f"/>
     <use x="2067.128906" xlink:href="#DejaVuSans-73"/>
     <use x="2119.228516" xlink:href="#DejaVuSans-69"/>
     <use x="2147.011719" xlink:href="#DejaVuSans-65"/>
     <use x="2208.535156" xlink:href="#DejaVuSans-6e"/>
     <use x="2271.914062" xlink:href="#DejaVuSans-20"/>
     <use x="2303.701172" xlink:href="#DejaVuSans-6a"/>
     <use x="2331.484375" xlink:href="#DejaVuSans-61"/>
     <use x="2392.763672" xlink:href="#DejaVuSans-6b"/>
     <use x="2450.658203" xlink:href="#DejaVuSans-61"/>
     <use x="2511.9375" xlink:href="#DejaVuSans-75"/>
     <use x="2575.316406" xlink:href="#DejaVuSans-6d"/>
     <use x="2672.728516" xlink:href="#DejaVuSans-61"/>
    </g>
   </g>
   <g id="legend_1">
    <g id="patch_243">
     <path d="M 97 123.75625 
L 157.642188 123.75625 
Q 159.642188 123.75625 159.642188 121.75625 
L 159.642188 93.4 
Q 159.642188 91.4 157.642188 91.4 
L 97 91.4 
Q 95 91.4 95 93.4 
L 95 121.75625 
Q 95 123.75625 97 123.75625 
z
" style="fill:#ffffff;opacity:0.8;stroke:#cccccc;stroke-linejoin:miter;"/>
    </g>
    <g id="patch_244">
     <path d="M 99 102.998437 
L 119 102.998437 
L 119 95.998437 
L 99 95.998437 
z
" style="fill:#4c72b0;"/>
    </g>
    <g id="text_17">
     <!-- pilotit -->
     <defs>
      <path d="M 18.109375 8.203125 
L 18.109375 -20.796875 
L 9.078125 -20.796875 
L 9.078125 54.6875 
L 18.109375 54.6875 
L 18.109375 46.390625 
Q 20.953125 51.265625 25.265625 53.625 
Q 29.59375 56 35.59375 56 
Q 45.5625 56 51.78125 48.09375 
Q 58.015625 40.1875 58.015625 27.296875 
Q 58.015625 14.40625 51.78125 6.484375 
Q 45.5625 -1.421875 35.59375 -1.421875 
Q 29.59375 -1.421875 25.265625 0.953125 
Q 20.953125 3.328125 18.109375 8.203125 
z
M 48.6875 27.296875 
Q 48.6875 37.203125 44.609375 42.84375 
Q 40.53125 48.484375 33.40625 48.484375 
Q 26.265625 48.484375 22.1875 42.84375 
Q 18.109375 37.203125 18.109375 27.296875 
Q 18.109375 17.390625 22.1875 11.75 
Q 26.265625 6.109375 33.40625 6.109375 
Q 40.53125 6.109375 44.609375 11.75 
Q 48.6875 17.390625 48.6875 27.296875 
z
" id="DejaVuSans-70"/>
     </defs>
     <g transform="translate(127 102.998437)scale(0.1 -0.1)">
      <use xlink:href="#DejaVuSans-70"/>
      <use x="63.476562" xlink:href="#DejaVuSans-69"/>
      <use x="91.259766" xlink:href="#DejaVuSans-6c"/>
      <use x="119.042969" xlink:href="#DejaVuSans-6f"/>
      <use x="180.224609" xlink:href="#DejaVuSans-74"/>
      <use x="219.433594" xlink:href="#DejaVuSans-69"/>
      <use x="247.216797" xlink:href="#DejaVuSans-74"/>
     </g>
    </g>
    <g id="patch_245">
     <path d="M 99 117.676562 
L 119 117.676562 
L 119 110.676562 
L 99 110.676562 
z
" style="fill:#55a868;"/>
    </g>
    <g id="text_18">
     <!-- Vaski -->
     <g transform="translate(127 117.676562)scale(0.1 -0.1)">
      <use xlink:href="#DejaVuSans-56"/>
      <use x="68.298828" xlink:href="#DejaVuSans-61"/>
      <use x="129.578125" xlink:href="#DejaVuSans-73"/>
      <use x="181.677734" xlink:href="#DejaVuSans-6b"/>
      <use x="239.587891" xlink:href="#DejaVuSans-69"/>
     </g>
    </g>
   </g>
  </g>
 </g>
 <defs>
  <clipPath id="p9f08b5d1eb">
   <rect height="543.6" width="558" x="90" y="86.4"/>
  </clipPath>
 </defs>
</svg>
