<?xml version="1.0" encoding="utf-8" standalone="no"?>
<!DOCTYPE svg PUBLIC "-//W3C//DTD SVG 1.1//EN"
  "http://www.w3.org/Graphics/SVG/1.1/DTD/svg11.dtd">
<!-- Created with matplotlib (http://matplotlib.org/) -->
<svg height="720pt" version="1.1" viewBox="0 0 1440 720" width="1440pt" xmlns="http://www.w3.org/2000/svg" xmlns:xlink="http://www.w3.org/1999/xlink">
 <defs>
  <style type="text/css">
*{stroke-linecap:butt;stroke-linejoin:round;}
  </style>
 </defs>
 <g id="figure_1">
  <g id="patch_1">
   <path d="M 0 720 
L 1440 720 
L 1440 0 
L 0 0 
z
" style="fill:#ffffff;"/>
  </g>
  <g id="axes_1">
   <g id="patch_2">
    <path d="M 180 630 
L 1296 630 
L 1296 86.4 
L 180 86.4 
z
" style="fill:#e5e5e5;"/>
   </g>
   <g id="matplotlib.axis_1">
    <g id="xtick_1">
     <g id="line2d_1">
      <path clip-path="url(#p3e7edfecb0)" d="M 180 630 
L 180 86.4 
" style="fill:none;stroke:#ffffff;stroke-linecap:square;stroke-width:0.8;"/>
     </g>
     <g id="line2d_2">
      <defs>
       <path d="M 0 0 
L 0 3.5 
" id="ma297cb2210" style="stroke:#555555;stroke-width:0.8;"/>
      </defs>
      <g>
       <use style="fill:#555555;stroke:#555555;stroke-width:0.8;" x="180" xlink:href="#ma297cb2210" y="630"/>
      </g>
     </g>
     <g id="text_1">
      <!-- 1900 -->
      <defs>
       <path d="M 12.40625 8.296875 
L 28.515625 8.296875 
L 28.515625 63.921875 
L 10.984375 60.40625 
L 10.984375 69.390625 
L 28.421875 72.90625 
L 38.28125 72.90625 
L 38.28125 8.296875 
L 54.390625 8.296875 
L 54.390625 0 
L 12.40625 0 
z
" id="DejaVuSans-31"/>
       <path d="M 10.984375 1.515625 
L 10.984375 10.5 
Q 14.703125 8.734375 18.5 7.8125 
Q 22.3125 6.890625 25.984375 6.890625 
Q 35.75 6.890625 40.890625 13.453125 
Q 46.046875 20.015625 46.78125 33.40625 
Q 43.953125 29.203125 39.59375 26.953125 
Q 35.25 24.703125 29.984375 24.703125 
Q 19.046875 24.703125 12.671875 31.3125 
Q 6.296875 37.9375 6.296875 49.421875 
Q 6.296875 60.640625 12.9375 67.421875 
Q 19.578125 74.21875 30.609375 74.21875 
Q 43.265625 74.21875 49.921875 64.515625 
Q 56.59375 54.828125 56.59375 36.375 
Q 56.59375 19.140625 48.40625 8.859375 
Q 40.234375 -1.421875 26.421875 -1.421875 
Q 22.703125 -1.421875 18.890625 -0.6875 
Q 15.09375 0.046875 10.984375 1.515625 
z
M 30.609375 32.421875 
Q 37.25 32.421875 41.125 36.953125 
Q 45.015625 41.5 45.015625 49.421875 
Q 45.015625 57.28125 41.125 61.84375 
Q 37.25 66.40625 30.609375 66.40625 
Q 23.96875 66.40625 20.09375 61.84375 
Q 16.21875 57.28125 16.21875 49.421875 
Q 16.21875 41.5 20.09375 36.953125 
Q 23.96875 32.421875 30.609375 32.421875 
z
" id="DejaVuSans-39"/>
       <path d="M 31.78125 66.40625 
Q 24.171875 66.40625 20.328125 58.90625 
Q 16.5 51.421875 16.5 36.375 
Q 16.5 21.390625 20.328125 13.890625 
Q 24.171875 6.390625 31.78125 6.390625 
Q 39.453125 6.390625 43.28125 13.890625 
Q 47.125 21.390625 47.125 36.375 
Q 47.125 51.421875 43.28125 58.90625 
Q 39.453125 66.40625 31.78125 66.40625 
z
M 31.78125 74.21875 
Q 44.046875 74.21875 50.515625 64.515625 
Q 56.984375 54.828125 56.984375 36.375 
Q 56.984375 17.96875 50.515625 8.265625 
Q 44.046875 -1.421875 31.78125 -1.421875 
Q 19.53125 -1.421875 13.0625 8.265625 
Q 6.59375 17.96875 6.59375 36.375 
Q 6.59375 54.828125 13.0625 64.515625 
Q 19.53125 74.21875 31.78125 74.21875 
z
" id="DejaVuSans-30"/>
      </defs>
      <g style="fill:#555555;" transform="translate(167.275 644.598438)scale(0.1 -0.1)">
       <use xlink:href="#DejaVuSans-31"/>
       <use x="63.623047" xlink:href="#DejaVuSans-39"/>
       <use x="127.246094" xlink:href="#DejaVuSans-30"/>
       <use x="190.869141" xlink:href="#DejaVuSans-30"/>
      </g>
     </g>
    </g>
    <g id="xtick_2">
     <g id="line2d_3">
      <path clip-path="url(#p3e7edfecb0)" d="M 369.152542 630 
L 369.152542 86.4 
" style="fill:none;stroke:#ffffff;stroke-linecap:square;stroke-width:0.8;"/>
     </g>
     <g id="line2d_4">
      <g>
       <use style="fill:#555555;stroke:#555555;stroke-width:0.8;" x="369.152542" xlink:href="#ma297cb2210" y="630"/>
      </g>
     </g>
     <g id="text_2">
      <!-- 1920 -->
      <defs>
       <path d="M 19.1875 8.296875 
L 53.609375 8.296875 
L 53.609375 0 
L 7.328125 0 
L 7.328125 8.296875 
Q 12.9375 14.109375 22.625 23.890625 
Q 32.328125 33.6875 34.8125 36.53125 
Q 39.546875 41.84375 41.421875 45.53125 
Q 43.3125 49.21875 43.3125 52.78125 
Q 43.3125 58.59375 39.234375 62.25 
Q 35.15625 65.921875 28.609375 65.921875 
Q 23.96875 65.921875 18.8125 64.3125 
Q 13.671875 62.703125 7.8125 59.421875 
L 7.8125 69.390625 
Q 13.765625 71.78125 18.9375 73 
Q 24.125 74.21875 28.421875 74.21875 
Q 39.75 74.21875 46.484375 68.546875 
Q 53.21875 62.890625 53.21875 53.421875 
Q 53.21875 48.921875 51.53125 44.890625 
Q 49.859375 40.875 45.40625 35.40625 
Q 44.1875 33.984375 37.640625 27.21875 
Q 31.109375 20.453125 19.1875 8.296875 
z
" id="DejaVuSans-32"/>
      </defs>
      <g style="fill:#555555;" transform="translate(356.427542 644.598438)scale(0.1 -0.1)">
       <use xlink:href="#DejaVuSans-31"/>
       <use x="63.623047" xlink:href="#DejaVuSans-39"/>
       <use x="127.246094" xlink:href="#DejaVuSans-32"/>
       <use x="190.869141" xlink:href="#DejaVuSans-30"/>
      </g>
     </g>
    </g>
    <g id="xtick_3">
     <g id="line2d_5">
      <path clip-path="url(#p3e7edfecb0)" d="M 558.305085 630 
L 558.305085 86.4 
" style="fill:none;stroke:#ffffff;stroke-linecap:square;stroke-width:0.8;"/>
     </g>
     <g id="line2d_6">
      <g>
       <use style="fill:#555555;stroke:#555555;stroke-width:0.8;" x="558.305085" xlink:href="#ma297cb2210" y="630"/>
      </g>
     </g>
     <g id="text_3">
      <!-- 1940 -->
      <defs>
       <path d="M 37.796875 64.3125 
L 12.890625 25.390625 
L 37.796875 25.390625 
z
M 35.203125 72.90625 
L 47.609375 72.90625 
L 47.609375 25.390625 
L 58.015625 25.390625 
L 58.015625 17.1875 
L 47.609375 17.1875 
L 47.609375 0 
L 37.796875 0 
L 37.796875 17.1875 
L 4.890625 17.1875 
L 4.890625 26.703125 
z
" id="DejaVuSans-34"/>
      </defs>
      <g style="fill:#555555;" transform="translate(545.580085 644.598438)scale(0.1 -0.1)">
       <use xlink:href="#DejaVuSans-31"/>
       <use x="63.623047" xlink:href="#DejaVuSans-39"/>
       <use x="127.246094" xlink:href="#DejaVuSans-34"/>
       <use x="190.869141" xlink:href="#DejaVuSans-30"/>
      </g>
     </g>
    </g>
    <g id="xtick_4">
     <g id="line2d_7">
      <path clip-path="url(#p3e7edfecb0)" d="M 747.457627 630 
L 747.457627 86.4 
" style="fill:none;stroke:#ffffff;stroke-linecap:square;stroke-width:0.8;"/>
     </g>
     <g id="line2d_8">
      <g>
       <use style="fill:#555555;stroke:#555555;stroke-width:0.8;" x="747.457627" xlink:href="#ma297cb2210" y="630"/>
      </g>
     </g>
     <g id="text_4">
      <!-- 1960 -->
      <defs>
       <path d="M 33.015625 40.375 
Q 26.375 40.375 22.484375 35.828125 
Q 18.609375 31.296875 18.609375 23.390625 
Q 18.609375 15.53125 22.484375 10.953125 
Q 26.375 6.390625 33.015625 6.390625 
Q 39.65625 6.390625 43.53125 10.953125 
Q 47.40625 15.53125 47.40625 23.390625 
Q 47.40625 31.296875 43.53125 35.828125 
Q 39.65625 40.375 33.015625 40.375 
z
M 52.59375 71.296875 
L 52.59375 62.3125 
Q 48.875 64.0625 45.09375 64.984375 
Q 41.3125 65.921875 37.59375 65.921875 
Q 27.828125 65.921875 22.671875 59.328125 
Q 17.53125 52.734375 16.796875 39.40625 
Q 19.671875 43.65625 24.015625 45.921875 
Q 28.375 48.1875 33.59375 48.1875 
Q 44.578125 48.1875 50.953125 41.515625 
Q 57.328125 34.859375 57.328125 23.390625 
Q 57.328125 12.15625 50.6875 5.359375 
Q 44.046875 -1.421875 33.015625 -1.421875 
Q 20.359375 -1.421875 13.671875 8.265625 
Q 6.984375 17.96875 6.984375 36.375 
Q 6.984375 53.65625 15.1875 63.9375 
Q 23.390625 74.21875 37.203125 74.21875 
Q 40.921875 74.21875 44.703125 73.484375 
Q 48.484375 72.75 52.59375 71.296875 
z
" id="DejaVuSans-36"/>
      </defs>
      <g style="fill:#555555;" transform="translate(734.732627 644.598438)scale(0.1 -0.1)">
       <use xlink:href="#DejaVuSans-31"/>
       <use x="63.623047" xlink:href="#DejaVuSans-39"/>
       <use x="127.246094" xlink:href="#DejaVuSans-36"/>
       <use x="190.869141" xlink:href="#DejaVuSans-30"/>
      </g>
     </g>
    </g>
    <g id="xtick_5">
     <g id="line2d_9">
      <path clip-path="url(#p3e7edfecb0)" d="M 936.610169 630 
L 936.610169 86.4 
" style="fill:none;stroke:#ffffff;stroke-linecap:square;stroke-width:0.8;"/>
     </g>
     <g id="line2d_10">
      <g>
       <use style="fill:#555555;stroke:#555555;stroke-width:0.8;" x="936.610169" xlink:href="#ma297cb2210" y="630"/>
      </g>
     </g>
     <g id="text_5">
      <!-- 1980 -->
      <defs>
       <path d="M 31.78125 34.625 
Q 24.75 34.625 20.71875 30.859375 
Q 16.703125 27.09375 16.703125 20.515625 
Q 16.703125 13.921875 20.71875 10.15625 
Q 24.75 6.390625 31.78125 6.390625 
Q 38.8125 6.390625 42.859375 10.171875 
Q 46.921875 13.96875 46.921875 20.515625 
Q 46.921875 27.09375 42.890625 30.859375 
Q 38.875 34.625 31.78125 34.625 
z
M 21.921875 38.8125 
Q 15.578125 40.375 12.03125 44.71875 
Q 8.5 49.078125 8.5 55.328125 
Q 8.5 64.0625 14.71875 69.140625 
Q 20.953125 74.21875 31.78125 74.21875 
Q 42.671875 74.21875 48.875 69.140625 
Q 55.078125 64.0625 55.078125 55.328125 
Q 55.078125 49.078125 51.53125 44.71875 
Q 48 40.375 41.703125 38.8125 
Q 48.828125 37.15625 52.796875 32.3125 
Q 56.78125 27.484375 56.78125 20.515625 
Q 56.78125 9.90625 50.3125 4.234375 
Q 43.84375 -1.421875 31.78125 -1.421875 
Q 19.734375 -1.421875 13.25 4.234375 
Q 6.78125 9.90625 6.78125 20.515625 
Q 6.78125 27.484375 10.78125 32.3125 
Q 14.796875 37.15625 21.921875 38.8125 
z
M 18.3125 54.390625 
Q 18.3125 48.734375 21.84375 45.5625 
Q 25.390625 42.390625 31.78125 42.390625 
Q 38.140625 42.390625 41.71875 45.5625 
Q 45.3125 48.734375 45.3125 54.390625 
Q 45.3125 60.0625 41.71875 63.234375 
Q 38.140625 66.40625 31.78125 66.40625 
Q 25.390625 66.40625 21.84375 63.234375 
Q 18.3125 60.0625 18.3125 54.390625 
z
" id="DejaVuSans-38"/>
      </defs>
      <g style="fill:#555555;" transform="translate(923.885169 644.598438)scale(0.1 -0.1)">
       <use xlink:href="#DejaVuSans-31"/>
       <use x="63.623047" xlink:href="#DejaVuSans-39"/>
       <use x="127.246094" xlink:href="#DejaVuSans-38"/>
       <use x="190.869141" xlink:href="#DejaVuSans-30"/>
      </g>
     </g>
    </g>
    <g id="xtick_6">
     <g id="line2d_11">
      <path clip-path="url(#p3e7edfecb0)" d="M 1125.762712 630 
L 1125.762712 86.4 
" style="fill:none;stroke:#ffffff;stroke-linecap:square;stroke-width:0.8;"/>
     </g>
     <g id="line2d_12">
      <g>
       <use style="fill:#555555;stroke:#555555;stroke-width:0.8;" x="1125.762712" xlink:href="#ma297cb2210" y="630"/>
      </g>
     </g>
     <g id="text_6">
      <!-- 2000 -->
      <g style="fill:#555555;" transform="translate(1113.037712 644.598438)scale(0.1 -0.1)">
       <use xlink:href="#DejaVuSans-32"/>
       <use x="63.623047" xlink:href="#DejaVuSans-30"/>
       <use x="127.246094" xlink:href="#DejaVuSans-30"/>
       <use x="190.869141" xlink:href="#DejaVuSans-30"/>
      </g>
     </g>
    </g>
   </g>
   <g id="matplotlib.axis_2">
    <g id="ytick_1">
     <g id="line2d_13">
      <path clip-path="url(#p3e7edfecb0)" d="M 180 630 
L 1296 630 
" style="fill:none;stroke:#ffffff;stroke-linecap:square;stroke-width:0.8;"/>
     </g>
     <g id="line2d_14">
      <defs>
       <path d="M 0 0 
L -3.5 0 
" id="m1c46eaf869" style="stroke:#555555;stroke-width:0.8;"/>
      </defs>
      <g>
       <use style="fill:#555555;stroke:#555555;stroke-width:0.8;" x="180" xlink:href="#m1c46eaf869" y="630"/>
      </g>
     </g>
     <g id="text_7">
      <!-- 0 -->
      <g style="fill:#555555;" transform="translate(166.6375 633.799219)scale(0.1 -0.1)">
       <use xlink:href="#DejaVuSans-30"/>
      </g>
     </g>
    </g>
    <g id="ytick_2">
     <g id="line2d_15">
      <path clip-path="url(#p3e7edfecb0)" d="M 180 514.296113 
L 1296 514.296113 
" style="fill:none;stroke:#ffffff;stroke-linecap:square;stroke-width:0.8;"/>
     </g>
     <g id="line2d_16">
      <g>
       <use style="fill:#555555;stroke:#555555;stroke-width:0.8;" x="180" xlink:href="#m1c46eaf869" y="514.296113"/>
      </g>
     </g>
     <g id="text_8">
      <!-- 5000 -->
      <defs>
       <path d="M 10.796875 72.90625 
L 49.515625 72.90625 
L 49.515625 64.59375 
L 19.828125 64.59375 
L 19.828125 46.734375 
Q 21.96875 47.46875 24.109375 47.828125 
Q 26.265625 48.1875 28.421875 48.1875 
Q 40.625 48.1875 47.75 41.5 
Q 54.890625 34.8125 54.890625 23.390625 
Q 54.890625 11.625 47.5625 5.09375 
Q 40.234375 -1.421875 26.90625 -1.421875 
Q 22.3125 -1.421875 17.546875 -0.640625 
Q 12.796875 0.140625 7.71875 1.703125 
L 7.71875 11.625 
Q 12.109375 9.234375 16.796875 8.0625 
Q 21.484375 6.890625 26.703125 6.890625 
Q 35.15625 6.890625 40.078125 11.328125 
Q 45.015625 15.765625 45.015625 23.390625 
Q 45.015625 31 40.078125 35.4375 
Q 35.15625 39.890625 26.703125 39.890625 
Q 22.75 39.890625 18.8125 39.015625 
Q 14.890625 38.140625 10.796875 36.28125 
z
" id="DejaVuSans-35"/>
      </defs>
      <g style="fill:#555555;" transform="translate(147.55 518.095332)scale(0.1 -0.1)">
       <use xlink:href="#DejaVuSans-35"/>
       <use x="63.623047" xlink:href="#DejaVuSans-30"/>
       <use x="127.246094" xlink:href="#DejaVuSans-30"/>
       <use x="190.869141" xlink:href="#DejaVuSans-30"/>
      </g>
     </g>
    </g>
    <g id="ytick_3">
     <g id="line2d_17">
      <path clip-path="url(#p3e7edfecb0)" d="M 180 398.592227 
L 1296 398.592227 
" style="fill:none;stroke:#ffffff;stroke-linecap:square;stroke-width:0.8;"/>
     </g>
     <g id="line2d_18">
      <g>
       <use style="fill:#555555;stroke:#555555;stroke-width:0.8;" x="180" xlink:href="#m1c46eaf869" y="398.592227"/>
      </g>
     </g>
     <g id="text_9">
      <!-- 10000 -->
      <g style="fill:#555555;" transform="translate(141.1875 402.391446)scale(0.1 -0.1)">
       <use xlink:href="#DejaVuSans-31"/>
       <use x="63.623047" xlink:href="#DejaVuSans-30"/>
       <use x="127.246094" xlink:href="#DejaVuSans-30"/>
       <use x="190.869141" xlink:href="#DejaVuSans-30"/>
       <use x="254.492188" xlink:href="#DejaVuSans-30"/>
      </g>
     </g>
    </g>
    <g id="ytick_4">
     <g id="line2d_19">
      <path clip-path="url(#p3e7edfecb0)" d="M 180 282.88834 
L 1296 282.88834 
" style="fill:none;stroke:#ffffff;stroke-linecap:square;stroke-width:0.8;"/>
     </g>
     <g id="line2d_20">
      <g>
       <use style="fill:#555555;stroke:#555555;stroke-width:0.8;" x="180" xlink:href="#m1c46eaf869" y="282.88834"/>
      </g>
     </g>
     <g id="text_10">
      <!-- 15000 -->
      <g style="fill:#555555;" transform="translate(141.1875 286.687559)scale(0.1 -0.1)">
       <use xlink:href="#DejaVuSans-31"/>
       <use x="63.623047" xlink:href="#DejaVuSans-35"/>
       <use x="127.246094" xlink:href="#DejaVuSans-30"/>
       <use x="190.869141" xlink:href="#DejaVuSans-30"/>
       <use x="254.492188" xlink:href="#DejaVuSans-30"/>
      </g>
     </g>
    </g>
    <g id="ytick_5">
     <g id="line2d_21">
      <path clip-path="url(#p3e7edfecb0)" d="M 180 167.184454 
L 1296 167.184454 
" style="fill:none;stroke:#ffffff;stroke-linecap:square;stroke-width:0.8;"/>
     </g>
     <g id="line2d_22">
      <g>
       <use style="fill:#555555;stroke:#555555;stroke-width:0.8;" x="180" xlink:href="#m1c46eaf869" y="167.184454"/>
      </g>
     </g>
     <g id="text_11">
      <!-- 20000 -->
      <g style="fill:#555555;" transform="translate(141.1875 170.983672)scale(0.1 -0.1)">
       <use xlink:href="#DejaVuSans-32"/>
       <use x="63.623047" xlink:href="#DejaVuSans-30"/>
       <use x="127.246094" xlink:href="#DejaVuSans-30"/>
       <use x="190.869141" xlink:href="#DejaVuSans-30"/>
       <use x="254.492188" xlink:href="#DejaVuSans-30"/>
      </g>
     </g>
    </g>
   </g>
   <g id="line2d_23">
    <path clip-path="url(#p3e7edfecb0)" d="M -1 627.945281 
L 0.305085 627.894189 
L 9.762712 627.824767 
L 19.220339 628.079315 
L 28.677966 627.732204 
L 38.135593 627.6165 
L 47.59322 627.361951 
L 57.050847 626.922277 
L 66.508475 627.801626 
L 85.423729 626.366898 
L 104.338983 626.829714 
L 113.79661 626.528883 
L 123.254237 626.621447 
L 132.711864 627.223107 
L 142.169492 626.644587 
L 161.084746 625.001592 
L 170.542373 625.094155 
L 180 622.340403 
L 189.457627 624.63134 
L 198.915254 625.140437 
L 208.372881 625.140437 
L 217.830508 623.381738 
L 246.20339 621.113942 
L 255.661017 619.216398 
L 265.118644 620.998238 
L 274.576271 620.466 
L 284.033898 621.623039 
L 293.491525 620.003184 
L 302.949153 620.813111 
L 312.40678 622.155276 
L 321.864407 622.085854 
L 331.322034 622.456107 
L 340.779661 620.651126 
L 350.237288 619.563509 
L 359.694915 618.151922 
L 369.152542 615.305606 
L 378.610169 616.624631 
L 388.067797 615.236184 
L 397.525424 615.189903 
L 406.983051 615.99983 
L 416.440678 615.652718 
L 425.898305 616.138674 
L 435.355932 615.72214 
L 444.813559 613.662611 
L 454.271186 613.153514 
L 463.728814 612.366728 
L 473.186441 615.907267 
L 482.644068 618.221344 
L 492.101695 617.018024 
L 511.016949 615.606437 
L 520.474576 615.814704 
L 529.932203 615.166762 
L 539.389831 615.884126 
L 548.847458 615.930407 
L 558.305085 617.341995 
L 567.762712 618.013077 
L 577.220339 617.851092 
L 586.677966 617.272572 
L 596.135593 613.523767 
L 605.59322 607.275757 
L 615.050847 605.540198 
L 624.508475 606.951786 
L 633.966102 606.118718 
L 643.423729 609.566694 
L 652.881356 603.179839 
L 662.338983 610.191495 
L 671.79661 605.447635 
L 681.254237 603.295543 
L 690.711864 603.619514 
L 700.169492 602.138504 
L 709.627119 603.434388 
L 719.084746 598.621106 
L 728.542373 598.690528 
L 738 598.482261 
L 747.457627 584.435809 
L 756.915254 594.016091 
L 766.372881 594.224358 
L 775.830508 591.60945 
L 785.288136 588.578009 
L 794.745763 586.217649 
L 804.20339 587.397829 
L 813.661017 580.455596 
L 823.118644 582.237436 
L 832.576271 582.191154 
L 842.033898 565.738061 
L 851.491525 577.053901 
L 860.949153 569.093474 
L 870.40678 563.724814 
L 879.864407 562.081819 
L 889.322034 549.724643 
L 898.779661 559.351207 
L 908.237288 549.886629 
L 917.694915 542.551003 
L 927.152542 537.436891 
L 936.610169 501.591827 
L 946.067797 533.54924 
L 955.525424 523.552424 
L 964.983051 518.577157 
L 974.440678 513.069652 
L 983.898305 497.634754 
L 993.355932 489.998297 
L 1002.813559 479.446103 
L 1012.271186 457.902039 
L 1021.728814 452.510238 
L 1031.186441 437.908407 
L 1040.644068 453.181321 
L 1050.101695 448.923417 
L 1059.559322 448.830854 
L 1069.016949 432.215776 
L 1078.474576 423.514844 
L 1087.932203 419.048674 
L 1097.389831 403.868324 
L 1106.847458 406.205543 
L 1116.305085 386.073066 
L 1125.762712 362.6546 
L 1135.220339 361.289294 
L 1144.677966 360.59507 
L 1154.135593 337.130322 
L 1163.59322 312.34655 
L 1173.050847 297.76786 
L 1182.508475 271.202248 
L 1191.966102 265.62532 
L 1201.423729 261.089728 
L 1210.881356 264.491422 
L 1220.338983 201.386522 
L 1229.79661 225.383509 
L 1239.254237 241.165519 
L 1248.711864 261.992218 
L 1258.169492 284.299928 
L 1267.627119 313.457307 
L 1277.084746 324.773147 
L 1286.542373 459.521893 
L 1296 629.166932 
L 1305.457627 629.953718 
L 1314.915254 629.976859 
L 1441 629.976859 
L 1441 629.976859 
" style="fill:none;stroke:#ff0000;stroke-linecap:square;stroke-width:1.5;"/>
   </g>
   <g id="line2d_24">
    <path clip-path="url(#p3e7edfecb0)" d="M -1 629.427867 
L 38.135593 629.282636 
L 47.59322 628.889243 
L 57.050847 629.190073 
L 66.508475 629.328917 
L 75.966102 629.190073 
L 85.423729 628.842961 
L 94.881356 628.81982 
L 104.338983 628.935524 
L 113.79661 628.866102 
L 123.254237 628.611553 
L 132.711864 628.958665 
L 189.457627 628.171879 
L 198.915254 627.547078 
L 208.372881 627.91733 
L 217.830508 627.685922 
L 227.288136 627.570218 
L 236.745763 626.644587 
L 246.20339 626.343757 
L 255.661017 626.644587 
L 265.118644 626.343757 
L 274.576271 625.556971 
L 293.491525 625.996646 
L 302.949153 625.788379 
L 312.40678 626.43632 
L 321.864407 626.089209 
L 331.322034 626.042927 
L 340.779661 625.811519 
L 350.237288 625.024733 
L 359.694915 623.913976 
L 369.152542 624.214806 
L 378.610169 624.33051 
L 388.067797 622.502388 
L 397.525424 623.705709 
L 406.983051 623.358597 
L 416.440678 623.381738 
L 425.898305 622.664374 
L 435.355932 622.085854 
L 444.813559 621.738742 
L 454.271186 621.507335 
L 463.728814 622.108995 
L 473.186441 622.294121 
L 482.644068 623.798272 
L 492.101695 624.723903 
L 511.016949 622.965204 
L 520.474576 623.543723 
L 529.932203 622.224699 
L 539.389831 621.947009 
L 548.847458 622.780077 
L 558.305085 622.895781 
L 567.762712 624.05282 
L 577.220339 622.664374 
L 586.677966 622.24784 
L 596.135593 620.118888 
L 605.59322 617.365136 
L 615.050847 616.555208 
L 624.508475 617.80481 
L 633.966102 617.50398 
L 643.423729 618.823005 
L 652.881356 617.434558 
L 662.338983 618.869286 
L 671.79661 616.763475 
L 681.254237 616.462645 
L 690.711864 614.148568 
L 700.169492 614.287412 
L 709.627119 613.593189 
L 719.084746 611.510519 
L 728.542373 610.422902 
L 738 613.870878 
L 747.457627 608.687344 
L 756.915254 609.636116 
L 766.372881 609.682398 
L 775.830508 609.289004 
L 794.745763 606.836082 
L 804.20339 606.095577 
L 813.661017 604.082329 
L 823.118644 607.044349 
L 832.576271 605.794747 
L 842.033898 600.865761 
L 851.491525 600.912043 
L 860.949153 595.543383 
L 870.40678 590.336708 
L 879.864407 590.568115 
L 889.322034 582.491984 
L 898.779661 582.006028 
L 908.237288 578.858882 
L 917.694915 573.582785 
L 927.152542 566.59427 
L 936.610169 562.058678 
L 946.067797 559.906586 
L 955.525424 561.82727 
L 974.440678 553.936265 
L 983.898305 548.822153 
L 993.355932 542.597284 
L 1002.813559 540.560896 
L 1012.271186 535.608769 
L 1021.728814 533.317832 
L 1031.186441 522.927623 
L 1040.644068 525.264842 
L 1050.101695 527.856609 
L 1059.559322 524.871449 
L 1069.016949 512.815104 
L 1078.474576 503.142259 
L 1087.932203 504.438142 
L 1097.389831 502.147205 
L 1106.847458 501.337278 
L 1116.305085 490.39169 
L 1125.762712 482.894079 
L 1135.220339 478.705598 
L 1144.677966 471.647661 
L 1154.135593 467.829433 
L 1163.59322 467.690588 
L 1173.050847 450.149879 
L 1182.508475 430.989315 
L 1191.966102 409.283266 
L 1201.423729 396.60212 
L 1210.881356 407.154314 
L 1220.338983 403.336086 
L 1229.79661 403.590635 
L 1239.254237 428.119859 
L 1248.711864 432.771155 
L 1258.169492 441.402665 
L 1267.627119 465.260806 
L 1277.084746 483.958554 
L 1286.542373 514.388677 
L 1296 629.722311 
L 1305.457627 629.953718 
L 1441 629.95753 
L 1441 629.95753 
" style="fill:none;stroke:#0000ff;stroke-linecap:square;stroke-width:1.5;"/>
   </g>
   <g id="line2d_25">
    <path clip-path="url(#p3e7edfecb0)" d="M -1 628.657835 
L 0.305085 628.657835 
L 9.762712 628.426427 
L 19.220339 628.704116 
L 28.677966 628.079315 
L 38.135593 627.940471 
L 47.59322 628.125597 
L 57.050847 627.385092 
L 66.508475 628.079315 
L 75.966102 627.732204 
L 85.423729 626.783432 
L 94.881356 626.852854 
L 104.338983 627.385092 
L 113.79661 627.061121 
L 123.254237 627.153684 
L 132.711864 627.061121 
L 142.169492 627.153684 
L 170.542373 625.718956 
L 180 622.340403 
L 189.457627 626.204913 
L 198.915254 626.158631 
L 208.372881 625.83466 
L 217.830508 624.816466 
L 227.288136 624.168524 
L 236.745763 624.099102 
L 255.661017 621.947009 
L 265.118644 621.66932 
L 274.576271 621.97015 
L 284.033898 621.322209 
L 293.491525 619.88748 
L 302.949153 620.882534 
L 312.40678 622.918922 
L 321.864407 622.108995 
L 340.779661 619.563509 
L 350.237288 618.545315 
L 359.694915 616.208097 
L 369.152542 616.670912 
L 378.610169 616.346941 
L 388.067797 615.537014 
L 397.525424 615.351888 
L 406.983051 616.555208 
L 416.440678 614.333694 
L 425.898305 613.824597 
L 435.355932 611.302252 
L 444.813559 610.862577 
L 454.271186 611.811349 
L 463.728814 613.477485 
L 473.186441 615.606437 
L 482.644068 616.856038 
L 492.101695 615.791563 
L 501.559322 615.004776 
L 511.016949 615.143621 
L 520.474576 615.490733 
L 529.932203 613.130373 
L 539.389831 611.510519 
L 548.847458 615.560155 
L 558.305085 615.860985 
L 567.762712 617.133728 
L 577.220339 613.477485 
L 586.677966 613.269218 
L 596.135593 612.065898 
L 605.59322 601.097169 
L 615.050847 599.685582 
L 624.508475 606.049295 
L 633.966102 602.138504 
L 643.423729 605.956732 
L 652.881356 603.688936 
L 662.338983 604.915397 
L 671.79661 603.827781 
L 681.254237 601.189732 
L 690.711864 599.801286 
L 700.169492 594.27064 
L 709.627119 597.348363 
L 719.084746 594.918582 
L 738 589.017683 
L 747.457627 557.523085 
L 756.915254 587.999489 
L 775.830508 578.673756 
L 785.288136 585.199455 
L 794.745763 579.252275 
L 804.20339 578.743178 
L 813.661017 570.921596 
L 823.118644 566.455425 
L 832.576271 563.470265 
L 842.033898 539.565842 
L 851.491525 566.617411 
L 860.949153 553.866843 
L 870.40678 547.942804 
L 879.864407 544.980784 
L 889.322034 529.036789 
L 898.779661 531.235162 
L 908.237288 525.264842 
L 917.694915 510.686152 
L 927.152542 509.853084 
L 936.610169 479.214695 
L 946.067797 500.226521 
L 955.525424 495.575225 
L 964.983051 487.730501 
L 974.440678 485.555268 
L 983.898305 469.935243 
L 993.355932 464.17319 
L 1002.813559 447.696956 
L 1012.271186 430.295092 
L 1021.728814 423.815674 
L 1031.186441 405.025363 
L 1040.644068 421.478456 
L 1050.101695 419.326363 
L 1059.559322 413.494887 
L 1069.016949 395.051688 
L 1078.474576 392.228513 
L 1087.932203 386.119348 
L 1097.389831 381.630037 
L 1106.847458 378.830003 
L 1116.305085 348.492444 
L 1125.762712 328.244264 
L 1135.220339 325.606215 
L 1144.677966 315.586259 
L 1154.135593 297.721578 
L 1163.59322 261.251713 
L 1173.050847 237.694402 
L 1182.508475 190.417794 
L 1191.966102 170.678711 
L 1201.423729 164.291856 
L 1210.881356 166.351386 
L 1220.338983 125.09138 
L 1229.79661 155.012405 
L 1239.254237 144.529633 
L 1248.711864 196.017862 
L 1258.169492 202.103887 
L 1267.627119 134.231987 
L 1277.084746 88.714078 
L 1286.542373 466.209578 
L 1296 628.81982 
L 1305.457627 629.953718 
L 1314.915254 629.976859 
L 1441 629.976859 
L 1441 629.976859 
" style="fill:none;stroke:#008000;stroke-linecap:square;stroke-width:1.5;"/>
   </g>
   <g id="patch_3">
    <path d="M 180 630 
L 180 86.4 
" style="fill:none;stroke:#ffffff;stroke-linecap:square;stroke-linejoin:miter;"/>
   </g>
   <g id="patch_4">
    <path d="M 1296 630 
L 1296 86.4 
" style="fill:none;stroke:#ffffff;stroke-linecap:square;stroke-linejoin:miter;"/>
   </g>
   <g id="patch_5">
    <path d="M 180 630 
L 1296 630 
" style="fill:none;stroke:#ffffff;stroke-linecap:square;stroke-linejoin:miter;"/>
   </g>
   <g id="patch_6">
    <path d="M 180 86.4 
L 1296 86.4 
" style="fill:none;stroke:#ffffff;stroke-linecap:square;stroke-linejoin:miter;"/>
   </g>
   <g id="legend_1">
    <g id="patch_7">
     <path d="M 187 138.434375 
L 254 138.434375 
Q 256 138.434375 256 136.434375 
L 256 93.4 
Q 256 91.4 254 91.4 
L 187 91.4 
Q 185 91.4 185 93.4 
L 185 136.434375 
Q 185 138.434375 187 138.434375 
z
" style="fill:#e5e5e5;opacity:0.8;stroke:#cccccc;stroke-linejoin:miter;stroke-width:0.5;"/>
    </g>
    <g id="line2d_26">
     <path d="M 189 99.498438 
L 209 99.498438 
" style="fill:none;stroke:#ff0000;stroke-linecap:square;stroke-width:1.5;"/>
    </g>
    <g id="line2d_27"/>
    <g id="text_12">
     <!-- Piki -->
     <defs>
      <path d="M 19.671875 64.796875 
L 19.671875 37.40625 
L 32.078125 37.40625 
Q 38.96875 37.40625 42.71875 40.96875 
Q 46.484375 44.53125 46.484375 51.125 
Q 46.484375 57.671875 42.71875 61.234375 
Q 38.96875 64.796875 32.078125 64.796875 
z
M 9.8125 72.90625 
L 32.078125 72.90625 
Q 44.34375 72.90625 50.609375 67.359375 
Q 56.890625 61.8125 56.890625 51.125 
Q 56.890625 40.328125 50.609375 34.8125 
Q 44.34375 29.296875 32.078125 29.296875 
L 19.671875 29.296875 
L 19.671875 0 
L 9.8125 0 
z
" id="DejaVuSans-50"/>
      <path d="M 9.421875 54.6875 
L 18.40625 54.6875 
L 18.40625 0 
L 9.421875 0 
z
M 9.421875 75.984375 
L 18.40625 75.984375 
L 18.40625 64.59375 
L 9.421875 64.59375 
z
" id="DejaVuSans-69"/>
      <path d="M 9.078125 75.984375 
L 18.109375 75.984375 
L 18.109375 31.109375 
L 44.921875 54.6875 
L 56.390625 54.6875 
L 27.390625 29.109375 
L 57.625 0 
L 45.90625 0 
L 18.109375 26.703125 
L 18.109375 0 
L 9.078125 0 
z
" id="DejaVuSans-6b"/>
     </defs>
     <g transform="translate(217 102.998438)scale(0.1 -0.1)">
      <use xlink:href="#DejaVuSans-50"/>
      <use x="60.271484" xlink:href="#DejaVuSans-69"/>
      <use x="88.054688" xlink:href="#DejaVuSans-6b"/>
      <use x="145.964844" xlink:href="#DejaVuSans-69"/>
     </g>
    </g>
    <g id="line2d_28">
     <path d="M 189 114.176563 
L 209 114.176563 
" style="fill:none;stroke:#0000ff;stroke-linecap:square;stroke-width:1.5;"/>
    </g>
    <g id="line2d_29"/>
    <g id="text_13">
     <!-- Anders -->
     <defs>
      <path d="M 34.1875 63.1875 
L 20.796875 26.90625 
L 47.609375 26.90625 
z
M 28.609375 72.90625 
L 39.796875 72.90625 
L 67.578125 0 
L 57.328125 0 
L 50.6875 18.703125 
L 17.828125 18.703125 
L 11.1875 0 
L 0.78125 0 
z
" id="DejaVuSans-41"/>
      <path d="M 54.890625 33.015625 
L 54.890625 0 
L 45.90625 0 
L 45.90625 32.71875 
Q 45.90625 40.484375 42.875 44.328125 
Q 39.84375 48.1875 33.796875 48.1875 
Q 26.515625 48.1875 22.3125 43.546875 
Q 18.109375 38.921875 18.109375 30.90625 
L 18.109375 0 
L 9.078125 0 
L 9.078125 54.6875 
L 18.109375 54.6875 
L 18.109375 46.1875 
Q 21.34375 51.125 25.703125 53.5625 
Q 30.078125 56 35.796875 56 
Q 45.21875 56 50.046875 50.171875 
Q 54.890625 44.34375 54.890625 33.015625 
z
" id="DejaVuSans-6e"/>
      <path d="M 45.40625 46.390625 
L 45.40625 75.984375 
L 54.390625 75.984375 
L 54.390625 0 
L 45.40625 0 
L 45.40625 8.203125 
Q 42.578125 3.328125 38.25 0.953125 
Q 33.9375 -1.421875 27.875 -1.421875 
Q 17.96875 -1.421875 11.734375 6.484375 
Q 5.515625 14.40625 5.515625 27.296875 
Q 5.515625 40.1875 11.734375 48.09375 
Q 17.96875 56 27.875 56 
Q 33.9375 56 38.25 53.625 
Q 42.578125 51.265625 45.40625 46.390625 
z
M 14.796875 27.296875 
Q 14.796875 17.390625 18.875 11.75 
Q 22.953125 6.109375 30.078125 6.109375 
Q 37.203125 6.109375 41.296875 11.75 
Q 45.40625 17.390625 45.40625 27.296875 
Q 45.40625 37.203125 41.296875 42.84375 
Q 37.203125 48.484375 30.078125 48.484375 
Q 22.953125 48.484375 18.875 42.84375 
Q 14.796875 37.203125 14.796875 27.296875 
z
" id="DejaVuSans-64"/>
      <path d="M 56.203125 29.59375 
L 56.203125 25.203125 
L 14.890625 25.203125 
Q 15.484375 15.921875 20.484375 11.0625 
Q 25.484375 6.203125 34.421875 6.203125 
Q 39.59375 6.203125 44.453125 7.46875 
Q 49.3125 8.734375 54.109375 11.28125 
L 54.109375 2.78125 
Q 49.265625 0.734375 44.1875 -0.34375 
Q 39.109375 -1.421875 33.890625 -1.421875 
Q 20.796875 -1.421875 13.15625 6.1875 
Q 5.515625 13.8125 5.515625 26.8125 
Q 5.515625 40.234375 12.765625 48.109375 
Q 20.015625 56 32.328125 56 
Q 43.359375 56 49.78125 48.890625 
Q 56.203125 41.796875 56.203125 29.59375 
z
M 47.21875 32.234375 
Q 47.125 39.59375 43.09375 43.984375 
Q 39.0625 48.390625 32.421875 48.390625 
Q 24.90625 48.390625 20.390625 44.140625 
Q 15.875 39.890625 15.1875 32.171875 
z
" id="DejaVuSans-65"/>
      <path d="M 41.109375 46.296875 
Q 39.59375 47.171875 37.8125 47.578125 
Q 36.03125 48 33.890625 48 
Q 26.265625 48 22.1875 43.046875 
Q 18.109375 38.09375 18.109375 28.8125 
L 18.109375 0 
L 9.078125 0 
L 9.078125 54.6875 
L 18.109375 54.6875 
L 18.109375 46.1875 
Q 20.953125 51.171875 25.484375 53.578125 
Q 30.03125 56 36.53125 56 
Q 37.453125 56 38.578125 55.875 
Q 39.703125 55.765625 41.0625 55.515625 
z
" id="DejaVuSans-72"/>
      <path d="M 44.28125 53.078125 
L 44.28125 44.578125 
Q 40.484375 46.53125 36.375 47.5 
Q 32.28125 48.484375 27.875 48.484375 
Q 21.1875 48.484375 17.84375 46.4375 
Q 14.5 44.390625 14.5 40.28125 
Q 14.5 37.15625 16.890625 35.375 
Q 19.28125 33.59375 26.515625 31.984375 
L 29.59375 31.296875 
Q 39.15625 29.25 43.1875 25.515625 
Q 47.21875 21.78125 47.21875 15.09375 
Q 47.21875 7.46875 41.1875 3.015625 
Q 35.15625 -1.421875 24.609375 -1.421875 
Q 20.21875 -1.421875 15.453125 -0.5625 
Q 10.6875 0.296875 5.421875 2 
L 5.421875 11.28125 
Q 10.40625 8.6875 15.234375 7.390625 
Q 20.0625 6.109375 24.8125 6.109375 
Q 31.15625 6.109375 34.5625 8.28125 
Q 37.984375 10.453125 37.984375 14.40625 
Q 37.984375 18.0625 35.515625 20.015625 
Q 33.0625 21.96875 24.703125 23.78125 
L 21.578125 24.515625 
Q 13.234375 26.265625 9.515625 29.90625 
Q 5.8125 33.546875 5.8125 39.890625 
Q 5.8125 47.609375 11.28125 51.796875 
Q 16.75 56 26.8125 56 
Q 31.78125 56 36.171875 55.265625 
Q 40.578125 54.546875 44.28125 53.078125 
z
" id="DejaVuSans-73"/>
     </defs>
     <g transform="translate(217 117.676563)scale(0.1 -0.1)">
      <use xlink:href="#DejaVuSans-41"/>
      <use x="68.408203" xlink:href="#DejaVuSans-6e"/>
      <use x="131.787109" xlink:href="#DejaVuSans-64"/>
      <use x="195.263672" xlink:href="#DejaVuSans-65"/>
      <use x="256.787109" xlink:href="#DejaVuSans-72"/>
      <use x="297.900391" xlink:href="#DejaVuSans-73"/>
     </g>
    </g>
    <g id="line2d_30">
     <path d="M 189 128.854688 
L 209 128.854688 
" style="fill:none;stroke:#008000;stroke-linecap:square;stroke-width:1.5;"/>
    </g>
    <g id="line2d_31"/>
    <g id="text_14">
     <!-- Vaski -->
     <defs>
      <path d="M 28.609375 0 
L 0.78125 72.90625 
L 11.078125 72.90625 
L 34.1875 11.53125 
L 57.328125 72.90625 
L 67.578125 72.90625 
L 39.796875 0 
z
" id="DejaVuSans-56"/>
      <path d="M 34.28125 27.484375 
Q 23.390625 27.484375 19.1875 25 
Q 14.984375 22.515625 14.984375 16.5 
Q 14.984375 11.71875 18.140625 8.90625 
Q 21.296875 6.109375 26.703125 6.109375 
Q 34.1875 6.109375 38.703125 11.40625 
Q 43.21875 16.703125 43.21875 25.484375 
L 43.21875 27.484375 
z
M 52.203125 31.203125 
L 52.203125 0 
L 43.21875 0 
L 43.21875 8.296875 
Q 40.140625 3.328125 35.546875 0.953125 
Q 30.953125 -1.421875 24.3125 -1.421875 
Q 15.921875 -1.421875 10.953125 3.296875 
Q 6 8.015625 6 15.921875 
Q 6 25.140625 12.171875 29.828125 
Q 18.359375 34.515625 30.609375 34.515625 
L 43.21875 34.515625 
L 43.21875 35.40625 
Q 43.21875 41.609375 39.140625 45 
Q 35.0625 48.390625 27.6875 48.390625 
Q 23 48.390625 18.546875 47.265625 
Q 14.109375 46.140625 10.015625 43.890625 
L 10.015625 52.203125 
Q 14.9375 54.109375 19.578125 55.046875 
Q 24.21875 56 28.609375 56 
Q 40.484375 56 46.34375 49.84375 
Q 52.203125 43.703125 52.203125 31.203125 
z
" id="DejaVuSans-61"/>
     </defs>
     <g transform="translate(217 132.354688)scale(0.1 -0.1)">
      <use xlink:href="#DejaVuSans-56"/>
      <use x="68.298828" xlink:href="#DejaVuSans-61"/>
      <use x="129.578125" xlink:href="#DejaVuSans-73"/>
      <use x="181.677734" xlink:href="#DejaVuSans-6b"/>
      <use x="239.587891" xlink:href="#DejaVuSans-69"/>
     </g>
    </g>
   </g>
  </g>
 </g>
 <defs>
  <clipPath id="p3e7edfecb0">
   <rect height="543.6" width="1116" x="180" y="86.4"/>
  </clipPath>
 </defs>
</svg>
