<?xml version="1.0" encoding="utf-8" standalone="no"?>
<!DOCTYPE svg PUBLIC "-//W3C//DTD SVG 1.1//EN"
  "http://www.w3.org/Graphics/SVG/1.1/DTD/svg11.dtd">
<!-- Created with matplotlib (http://matplotlib.org/) -->
<svg height="576pt" version="1.1" viewBox="0 0 579 576" width="579pt" xmlns="http://www.w3.org/2000/svg" xmlns:xlink="http://www.w3.org/1999/xlink">
 <defs>
  <style type="text/css">
*{stroke-linecap:butt;stroke-linejoin:round;}
  </style>
 </defs>
 <g id="figure_1">
  <g id="patch_1">
   <path d="M 0 576.618125 
L 579.4 576.618125 
L 579.4 0 
L 0 0 
z
" style="fill:#ffffff;"/>
  </g>
  <g id="axes_1">
   <g id="patch_2">
    <path d="M 431.668375 130.130947 
C 391.855033 95.521736 341.032883 76.123483 288.284608 75.402946 
C 235.536333 74.682409 184.203288 92.685232 143.459459 126.194038 
C 102.715631 159.702845 75.141949 206.595011 65.666244 258.4902 
C 56.19054 310.38539 65.413055 363.996288 91.685588 409.74182 
L 285.236 298.582125 
L 431.668375 130.130947 
z
" style="fill:#2e3e0f;opacity:0.5;stroke:#2e3e0f;stroke-linejoin:miter;"/>
   </g>
   <g id="patch_3">
    <path d="M 91.685588 409.74182 
C 112.914916 446.706165 144.295639 476.826625 182.098638 496.523845 
C 219.901636 516.221065 262.567711 524.682624 305.02665 520.902997 
C 347.48559 517.12337 387.98616 501.258448 421.715486 475.193534 
C 455.444812 449.128621 481.011716 413.938773 495.377961 373.805767 
L 285.236 298.582125 
L 91.685588 409.74182 
z
" style="fill:#4c0000;opacity:0.5;stroke:#4c0000;stroke-linejoin:miter;"/>
   </g>
   <g id="patch_4">
    <path d="M 495.377961 373.805767 
C 502.812216 353.037709 507.126851 331.281831 508.180991 309.248466 
C 509.235132 287.215101 507.01718 265.146685 501.599551 243.763755 
L 285.236 298.582125 
L 495.377961 373.805767 
z
" style="fill:#4c4000;opacity:0.5;stroke:#4c4000;stroke-linejoin:miter;"/>
   </g>
   <g id="patch_5">
    <path d="M 501.599551 243.763755 
C 500.351481 238.837724 498.935545 233.955753 497.35422 229.126378 
C 495.772895 224.297002 494.027102 219.523039 492.119895 214.812836 
L 285.236 298.582125 
L 501.599551 243.763755 
z
" style="fill:#283e4b;opacity:0.5;stroke:#283e4b;stroke-linejoin:miter;"/>
   </g>
   <g id="patch_6">
    <path d="M 492.119895 214.812836 
C 491.060407 212.196232 489.951373 209.599963 488.793392 207.025432 
C 487.635411 204.4509 486.428692 201.898569 485.173885 199.369816 
L 285.236 298.582125 
L 492.119895 214.812836 
z
" style="fill:#4c4c4c;opacity:0.5;stroke:#4c4c4c;stroke-linejoin:miter;"/>
   </g>
   <g id="patch_7">
    <path d="M 485.173885 199.369816 
C 484.17005 197.346835 483.13557 195.339206 482.070803 193.347623 
C 481.006035 191.356039 479.911103 189.38073 478.786383 187.422379 
L 285.236 298.582125 
L 485.173885 199.369816 
z
" style="fill:#482626;opacity:0.5;stroke:#482626;stroke-linejoin:miter;"/>
   </g>
   <g id="patch_8">
    <path d="M 478.786383 187.422379 
C 477.661664 185.464027 476.507287 183.522858 475.323652 181.599543 
C 474.140017 179.676227 472.92726 177.770986 471.685799 175.884479 
L 285.236 298.582125 
L 478.786383 187.422379 
z
" style="fill:#00004c;opacity:0.5;stroke:#00004c;stroke-linejoin:miter;"/>
   </g>
   <g id="patch_9">
    <path d="M 471.685799 175.884479 
C 470.754712 174.46961 469.807549 173.065385 468.844496 171.672078 
C 467.881443 170.27877 466.902561 168.89647 465.908042 167.525445 
L 285.236 298.582125 
L 471.685799 175.884479 
z
" style="fill:#4c3a3d;opacity:0.5;stroke:#4c3a3d;stroke-linejoin:miter;"/>
   </g>
   <g id="patch_10">
    <path d="M 465.908042 167.525445 
C 465.245033 166.611434 464.575097 165.702468 463.898293 164.798624 
C 463.221489 163.894781 462.537836 162.996086 461.847393 162.102618 
L 285.236 298.582125 
L 465.908042 167.525445 
z
" style="fill:#001e00;opacity:0.5;stroke:#001e00;stroke-linejoin:miter;"/>
   </g>
   <g id="patch_11">
    <path d="M 461.847393 162.102618 
C 457.358625 156.293925 452.58602 150.710219 447.546984 145.371862 
C 442.507947 140.033506 437.208611 134.946996 431.668304 130.130885 
L 285.236 298.582125 
L 461.847393 162.102618 
z
" style="fill:#4c4c00;opacity:0.5;stroke:#4c4c00;stroke-linejoin:miter;"/>
   </g>
   <g id="patch_12">
    <path d="M 436.132375 125.666947 
C 396.319033 91.057736 345.496883 71.659483 292.748608 70.938946 
C 240.000333 70.218409 188.667288 88.221232 147.923459 121.730038 
C 107.179631 155.238845 79.605949 202.131011 70.130244 254.0262 
C 60.65454 305.92139 69.877055 359.532288 96.149588 405.27782 
L 289.7 294.118125 
L 436.132375 125.666947 
z
" style="fill:#9acd32;"/>
   </g>
   <g id="patch_13">
    <path d="M 96.149588 405.27782 
C 117.378916 442.242165 148.759639 472.362625 186.562638 492.059845 
C 224.365636 511.757065 267.031711 520.218624 309.49065 516.438997 
C 351.94959 512.65937 392.45016 496.794448 426.179486 470.729534 
C 459.908812 444.664621 485.475716 409.474773 499.841961 369.341767 
L 289.7 294.118125 
L 96.149588 405.27782 
z
" style="fill:#ff0000;"/>
   </g>
   <g id="patch_14">
    <path d="M 499.841961 369.341767 
C 507.276216 348.573709 511.590851 326.817831 512.644991 304.784466 
C 513.699132 282.751101 511.48118 260.682685 506.063551 239.299755 
L 289.7 294.118125 
L 499.841961 369.341767 
z
" style="fill:#ffd700;"/>
   </g>
   <g id="patch_15">
    <path d="M 506.063551 239.299755 
C 504.815481 234.373724 503.399545 229.491753 501.81822 224.662378 
C 500.236895 219.833002 498.491102 215.059039 496.583895 210.348836 
L 289.7 294.118125 
L 506.063551 239.299755 
z
" style="fill:#87cefa;"/>
   </g>
   <g id="patch_16">
    <path d="M 496.583895 210.348836 
C 495.524407 207.732232 494.415373 205.135963 493.257392 202.561432 
C 492.099411 199.9869 490.892692 197.434569 489.637885 194.905816 
L 289.7 294.118125 
L 496.583895 210.348836 
z
" style="fill:#ffffff;"/>
   </g>
   <g id="patch_17">
    <path d="M 489.637885 194.905816 
C 488.63405 192.882835 487.59957 190.875206 486.534803 188.883623 
C 485.470035 186.892039 484.375103 184.91673 483.250383 182.958379 
L 289.7 294.118125 
L 489.637885 194.905816 
z
" style="fill:#f08080;"/>
   </g>
   <g id="patch_18">
    <path d="M 483.250383 182.958379 
C 482.125664 181.000027 480.971287 179.058858 479.787652 177.135543 
C 478.604017 175.212227 477.39126 173.306986 476.149799 171.420479 
L 289.7 294.118125 
L 483.250383 182.958379 
z
" style="fill:#0000ff;"/>
   </g>
   <g id="patch_19">
    <path d="M 476.149799 171.420479 
C 475.218712 170.00561 474.271549 168.601385 473.308496 167.208078 
C 472.345443 165.81477 471.366561 164.43247 470.372042 163.061445 
L 289.7 294.118125 
L 476.149799 171.420479 
z
" style="fill:#ffc0cb;"/>
   </g>
   <g id="patch_20">
    <path d="M 470.372042 163.061445 
C 469.709033 162.147434 469.039097 161.238468 468.362293 160.334624 
C 467.685489 159.430781 467.001836 158.532086 466.311393 157.638618 
L 289.7 294.118125 
L 470.372042 163.061445 
z
" style="fill:#006400;"/>
   </g>
   <g id="patch_21">
    <path d="M 466.311393 157.638618 
C 461.822625 151.829925 457.05002 146.246219 452.010984 140.907862 
C 446.971947 135.569506 441.672611 130.482996 436.132304 125.666885 
L 289.7 294.118125 
L 466.311393 157.638618 
z
" style="fill:#ffff00;"/>
   </g>
   <g id="patch_22">
    <path d="M 289.7 70.918125 
C 236.946804 70.918125 185.864441 89.620408 145.582098 123.682594 
C 105.299755 157.744779 78.369128 205.00919 69.603126 257.028964 
C 60.837123 309.048738 70.79103 362.528668 97.685933 407.911086 
C 124.580836 453.293504 166.71307 487.703648 216.552971 504.991908 
L 289.7 294.118125 
L 289.7 70.918125 
z
" style="fill:#9acd32;"/>
   </g>
   <g id="patch_23">
    <path d="M 216.552971 504.991908 
C 256.825741 518.96156 300.269873 521.106153 341.722697 511.170835 
C 383.175521 501.235517 420.927299 479.630074 450.491809 448.921982 
C 480.056319 418.21389 500.214162 379.669717 508.569885 337.869848 
C 516.925609 296.06998 513.134579 252.738466 497.647301 213.024598 
L 289.7 294.118125 
L 216.552971 504.991908 
z
" style="fill:#ff0000;"/>
   </g>
   <g id="patch_24">
    <path d="M 497.647301 213.024598 
C 489.632932 192.473435 478.616088 173.22341 464.95647 155.90304 
C 451.296852 138.58267 435.144759 123.382532 417.027558 110.798914 
L 289.7 294.118125 
L 497.647301 213.024598 
z
" style="fill:#ffd700;"/>
   </g>
   <g id="patch_25">
    <path d="M 417.027558 110.798914 
C 412.853861 107.9 408.582379 105.144467 404.220582 102.537134 
C 399.858786 99.929801 395.409218 97.472188 390.879659 95.168592 
L 289.7 294.118125 
L 417.027558 110.798914 
z
" style="fill:#87cefa;"/>
   </g>
   <g id="patch_26">
    <path d="M 390.879659 95.168592 
C 388.363406 93.888903 385.823103 92.657066 383.260119 91.473746 
C 380.697135 90.290427 378.111932 89.155837 375.505906 88.07059 
L 289.7 294.118125 
L 390.879659 95.168592 
z
" style="fill:#ffffff;"/>
   </g>
   <g id="patch_27">
    <path d="M 375.505906 88.07059 
C 373.421108 87.202402 371.323253 86.365905 369.213066 85.561389 
C 367.102879 84.756872 364.980604 83.984428 362.846973 83.244323 
L 289.7 294.118125 
L 375.505906 88.07059 
z
" style="fill:#f08080;"/>
   </g>
   <g id="patch_28">
    <path d="M 362.846973 83.244323 
C 360.713343 82.504219 358.568602 81.796539 356.413493 81.121529 
C 354.258383 80.446519 352.093154 79.804256 349.918551 79.194962 
L 289.7 294.118125 
L 362.846973 83.244323 
z
" style="fill:#0000ff;"/>
   </g>
   <g id="patch_29">
    <path d="M 349.918551 79.194962 
C 348.287613 78.737995 346.651526 78.299608 345.010609 77.879885 
C 343.369691 77.460162 341.724049 77.059131 340.074003 76.676869 
L 289.7 294.118125 
L 349.918551 79.194962 
z
" style="fill:#ffc0cb;"/>
   </g>
   <g id="patch_30">
    <path d="M 340.074003 76.676869 
C 338.973978 76.422029 337.872036 76.175541 336.76827 75.937425 
C 335.664505 75.699309 334.558949 75.469572 333.451697 75.248234 
L 289.7 294.118125 
L 340.074003 76.676869 
z
" style="fill:#006400;"/>
   </g>
   <g id="patch_31">
    <path d="M 333.451697 75.248234 
C 326.253136 73.809255 318.987964 72.726289 311.682678 72.003286 
C 304.377392 71.280282 297.040882 70.918122 289.699905 70.918125 
L 289.7 294.118125 
L 333.451697 75.248234 
z
" style="fill:#ffff00;"/>
   </g>
   <g id="matplotlib.axis_1"/>
   <g id="matplotlib.axis_2"/>
   <g id="text_1">
    <g id="patch_32">
     <path d="M 213.152188 23.85375 
L 366.247813 23.85375 
L 366.247813 2.16 
L 213.152188 2.16 
z
" style="fill:#e6e6e6;stroke:#000000;stroke-linejoin:miter;"/>
    </g>
    <!-- Vaski: yleisimmät kielet -->
    <defs>
     <path d="M 28.609375 0 
L 0.78125 72.90625 
L 11.078125 72.90625 
L 34.1875 11.53125 
L 57.328125 72.90625 
L 67.578125 72.90625 
L 39.796875 0 
z
" id="DejaVuSans-56"/>
     <path d="M 34.28125 27.484375 
Q 23.390625 27.484375 19.1875 25 
Q 14.984375 22.515625 14.984375 16.5 
Q 14.984375 11.71875 18.140625 8.90625 
Q 21.296875 6.109375 26.703125 6.109375 
Q 34.1875 6.109375 38.703125 11.40625 
Q 43.21875 16.703125 43.21875 25.484375 
L 43.21875 27.484375 
z
M 52.203125 31.203125 
L 52.203125 0 
L 43.21875 0 
L 43.21875 8.296875 
Q 40.140625 3.328125 35.546875 0.953125 
Q 30.953125 -1.421875 24.3125 -1.421875 
Q 15.921875 -1.421875 10.953125 3.296875 
Q 6 8.015625 6 15.921875 
Q 6 25.140625 12.171875 29.828125 
Q 18.359375 34.515625 30.609375 34.515625 
L 43.21875 34.515625 
L 43.21875 35.40625 
Q 43.21875 41.609375 39.140625 45 
Q 35.0625 48.390625 27.6875 48.390625 
Q 23 48.390625 18.546875 47.265625 
Q 14.109375 46.140625 10.015625 43.890625 
L 10.015625 52.203125 
Q 14.9375 54.109375 19.578125 55.046875 
Q 24.21875 56 28.609375 56 
Q 40.484375 56 46.34375 49.84375 
Q 52.203125 43.703125 52.203125 31.203125 
z
" id="DejaVuSans-61"/>
     <path d="M 44.28125 53.078125 
L 44.28125 44.578125 
Q 40.484375 46.53125 36.375 47.5 
Q 32.28125 48.484375 27.875 48.484375 
Q 21.1875 48.484375 17.84375 46.4375 
Q 14.5 44.390625 14.5 40.28125 
Q 14.5 37.15625 16.890625 35.375 
Q 19.28125 33.59375 26.515625 31.984375 
L 29.59375 31.296875 
Q 39.15625 29.25 43.1875 25.515625 
Q 47.21875 21.78125 47.21875 15.09375 
Q 47.21875 7.46875 41.1875 3.015625 
Q 35.15625 -1.421875 24.609375 -1.421875 
Q 20.21875 -1.421875 15.453125 -0.5625 
Q 10.6875 0.296875 5.421875 2 
L 5.421875 11.28125 
Q 10.40625 8.6875 15.234375 7.390625 
Q 20.0625 6.109375 24.8125 6.109375 
Q 31.15625 6.109375 34.5625 8.28125 
Q 37.984375 10.453125 37.984375 14.40625 
Q 37.984375 18.0625 35.515625 20.015625 
Q 33.0625 21.96875 24.703125 23.78125 
L 21.578125 24.515625 
Q 13.234375 26.265625 9.515625 29.90625 
Q 5.8125 33.546875 5.8125 39.890625 
Q 5.8125 47.609375 11.28125 51.796875 
Q 16.75 56 26.8125 56 
Q 31.78125 56 36.171875 55.265625 
Q 40.578125 54.546875 44.28125 53.078125 
z
" id="DejaVuSans-73"/>
     <path d="M 9.078125 75.984375 
L 18.109375 75.984375 
L 18.109375 31.109375 
L 44.921875 54.6875 
L 56.390625 54.6875 
L 27.390625 29.109375 
L 57.625 0 
L 45.90625 0 
L 18.109375 26.703125 
L 18.109375 0 
L 9.078125 0 
z
" id="DejaVuSans-6b"/>
     <path d="M 9.421875 54.6875 
L 18.40625 54.6875 
L 18.40625 0 
L 9.421875 0 
z
M 9.421875 75.984375 
L 18.40625 75.984375 
L 18.40625 64.59375 
L 9.421875 64.59375 
z
" id="DejaVuSans-69"/>
     <path d="M 11.71875 12.40625 
L 22.015625 12.40625 
L 22.015625 0 
L 11.71875 0 
z
M 11.71875 51.703125 
L 22.015625 51.703125 
L 22.015625 39.3125 
L 11.71875 39.3125 
z
" id="DejaVuSans-3a"/>
     <path id="DejaVuSans-20"/>
     <path d="M 32.171875 -5.078125 
Q 28.375 -14.84375 24.75 -17.8125 
Q 21.140625 -20.796875 15.09375 -20.796875 
L 7.90625 -20.796875 
L 7.90625 -13.28125 
L 13.1875 -13.28125 
Q 16.890625 -13.28125 18.9375 -11.515625 
Q 21 -9.765625 23.484375 -3.21875 
L 25.09375 0.875 
L 2.984375 54.6875 
L 12.5 54.6875 
L 29.59375 11.921875 
L 46.6875 54.6875 
L 56.203125 54.6875 
z
" id="DejaVuSans-79"/>
     <path d="M 9.421875 75.984375 
L 18.40625 75.984375 
L 18.40625 0 
L 9.421875 0 
z
" id="DejaVuSans-6c"/>
     <path d="M 56.203125 29.59375 
L 56.203125 25.203125 
L 14.890625 25.203125 
Q 15.484375 15.921875 20.484375 11.0625 
Q 25.484375 6.203125 34.421875 6.203125 
Q 39.59375 6.203125 44.453125 7.46875 
Q 49.3125 8.734375 54.109375 11.28125 
L 54.109375 2.78125 
Q 49.265625 0.734375 44.1875 -0.34375 
Q 39.109375 -1.421875 33.890625 -1.421875 
Q 20.796875 -1.421875 13.15625 6.1875 
Q 5.515625 13.8125 5.515625 26.8125 
Q 5.515625 40.234375 12.765625 48.109375 
Q 20.015625 56 32.328125 56 
Q 43.359375 56 49.78125 48.890625 
Q 56.203125 41.796875 56.203125 29.59375 
z
M 47.21875 32.234375 
Q 47.125 39.59375 43.09375 43.984375 
Q 39.0625 48.390625 32.421875 48.390625 
Q 24.90625 48.390625 20.390625 44.140625 
Q 15.875 39.890625 15.1875 32.171875 
z
" id="DejaVuSans-65"/>
     <path d="M 52 44.1875 
Q 55.375 50.25 60.0625 53.125 
Q 64.75 56 71.09375 56 
Q 79.640625 56 84.28125 50.015625 
Q 88.921875 44.046875 88.921875 33.015625 
L 88.921875 0 
L 79.890625 0 
L 79.890625 32.71875 
Q 79.890625 40.578125 77.09375 44.375 
Q 74.3125 48.1875 68.609375 48.1875 
Q 61.625 48.1875 57.5625 43.546875 
Q 53.515625 38.921875 53.515625 30.90625 
L 53.515625 0 
L 44.484375 0 
L 44.484375 32.71875 
Q 44.484375 40.625 41.703125 44.40625 
Q 38.921875 48.1875 33.109375 48.1875 
Q 26.21875 48.1875 22.15625 43.53125 
Q 18.109375 38.875 18.109375 30.90625 
L 18.109375 0 
L 9.078125 0 
L 9.078125 54.6875 
L 18.109375 54.6875 
L 18.109375 46.1875 
Q 21.1875 51.21875 25.484375 53.609375 
Q 29.78125 56 35.6875 56 
Q 41.65625 56 45.828125 52.96875 
Q 50 49.953125 52 44.1875 
z
" id="DejaVuSans-6d"/>
     <path d="M 34.28125 27.484375 
Q 23.390625 27.484375 19.1875 25 
Q 14.984375 22.515625 14.984375 16.5 
Q 14.984375 11.71875 18.140625 8.90625 
Q 21.296875 6.109375 26.703125 6.109375 
Q 34.1875 6.109375 38.703125 11.40625 
Q 43.21875 16.703125 43.21875 25.484375 
L 43.21875 27.484375 
z
M 52.203125 31.203125 
L 52.203125 0 
L 43.21875 0 
L 43.21875 8.296875 
Q 40.140625 3.328125 35.546875 0.953125 
Q 30.953125 -1.421875 24.3125 -1.421875 
Q 15.921875 -1.421875 10.953125 3.296875 
Q 6 8.015625 6 15.921875 
Q 6 25.140625 12.171875 29.828125 
Q 18.359375 34.515625 30.609375 34.515625 
L 43.21875 34.515625 
L 43.21875 35.40625 
Q 43.21875 41.609375 39.140625 45 
Q 35.0625 48.390625 27.6875 48.390625 
Q 23 48.390625 18.546875 47.265625 
Q 14.109375 46.140625 10.015625 43.890625 
L 10.015625 52.203125 
Q 14.9375 54.109375 19.578125 55.046875 
Q 24.21875 56 28.609375 56 
Q 40.484375 56 46.34375 49.84375 
Q 52.203125 43.703125 52.203125 31.203125 
z
M 33.59375 75.78125 
L 43.5 75.78125 
L 43.5 65.921875 
L 33.59375 65.921875 
z
M 14.5 75.78125 
L 24.40625 75.78125 
L 24.40625 65.921875 
L 14.5 65.921875 
z
" id="DejaVuSans-e4"/>
     <path d="M 18.3125 70.21875 
L 18.3125 54.6875 
L 36.8125 54.6875 
L 36.8125 47.703125 
L 18.3125 47.703125 
L 18.3125 18.015625 
Q 18.3125 11.328125 20.140625 9.421875 
Q 21.96875 7.515625 27.59375 7.515625 
L 36.8125 7.515625 
L 36.8125 0 
L 27.59375 0 
Q 17.1875 0 13.234375 3.875 
Q 9.28125 7.765625 9.28125 18.015625 
L 9.28125 47.703125 
L 2.6875 47.703125 
L 2.6875 54.6875 
L 9.28125 54.6875 
L 9.28125 70.21875 
z
" id="DejaVuSans-74"/>
    </defs>
    <g transform="translate(218.192188 16.318125)scale(0.12 -0.12)">
     <use xlink:href="#DejaVuSans-56"/>
     <use x="68.298828" xlink:href="#DejaVuSans-61"/>
     <use x="129.578125" xlink:href="#DejaVuSans-73"/>
     <use x="181.677734" xlink:href="#DejaVuSans-6b"/>
     <use x="239.587891" xlink:href="#DejaVuSans-69"/>
     <use x="267.371094" xlink:href="#DejaVuSans-3a"/>
     <use x="301.0625" xlink:href="#DejaVuSans-20"/>
     <use x="332.849609" xlink:href="#DejaVuSans-79"/>
     <use x="392.029297" xlink:href="#DejaVuSans-6c"/>
     <use x="419.8125" xlink:href="#DejaVuSans-65"/>
     <use x="481.335938" xlink:href="#DejaVuSans-69"/>
     <use x="509.119141" xlink:href="#DejaVuSans-73"/>
     <use x="561.21875" xlink:href="#DejaVuSans-69"/>
     <use x="589.001953" xlink:href="#DejaVuSans-6d"/>
     <use x="686.414062" xlink:href="#DejaVuSans-6d"/>
     <use x="783.826172" xlink:href="#DejaVuSans-e4"/>
     <use x="845.105469" xlink:href="#DejaVuSans-74"/>
     <use x="884.314453" xlink:href="#DejaVuSans-20"/>
     <use x="916.101562" xlink:href="#DejaVuSans-6b"/>
     <use x="974.011719" xlink:href="#DejaVuSans-69"/>
     <use x="1001.794922" xlink:href="#DejaVuSans-65"/>
     <use x="1063.318359" xlink:href="#DejaVuSans-6c"/>
     <use x="1091.101562" xlink:href="#DejaVuSans-65"/>
     <use x="1152.625" xlink:href="#DejaVuSans-74"/>
    </g>
   </g>
   <g id="legend_1">
    <g id="patch_33">
     <path d="M 17.7 177.099375 
L 136.407813 177.099375 
Q 138.407813 177.099375 138.407813 175.099375 
L 138.407813 29.318125 
Q 138.407813 27.318125 136.407813 27.318125 
L 17.7 27.318125 
Q 15.7 27.318125 15.7 29.318125 
L 15.7 175.099375 
Q 15.7 177.099375 17.7 177.099375 
z
" style="fill:#ffffff;opacity:0.8;stroke:#cccccc;stroke-linejoin:miter;"/>
    </g>
    <g id="patch_34">
     <path d="M 19.7 38.916562 
L 39.7 38.916562 
L 39.7 31.916562 
L 19.7 31.916562 
z
" style="fill:#9acd32;"/>
    </g>
    <g id="text_2">
     <!-- suomi (44.7 %) -->
     <defs>
      <path d="M 8.5 21.578125 
L 8.5 54.6875 
L 17.484375 54.6875 
L 17.484375 21.921875 
Q 17.484375 14.15625 20.5 10.265625 
Q 23.53125 6.390625 29.59375 6.390625 
Q 36.859375 6.390625 41.078125 11.03125 
Q 45.3125 15.671875 45.3125 23.6875 
L 45.3125 54.6875 
L 54.296875 54.6875 
L 54.296875 0 
L 45.3125 0 
L 45.3125 8.40625 
Q 42.046875 3.421875 37.71875 1 
Q 33.40625 -1.421875 27.6875 -1.421875 
Q 18.265625 -1.421875 13.375 4.4375 
Q 8.5 10.296875 8.5 21.578125 
z
M 31.109375 56 
z
" id="DejaVuSans-75"/>
      <path d="M 30.609375 48.390625 
Q 23.390625 48.390625 19.1875 42.75 
Q 14.984375 37.109375 14.984375 27.296875 
Q 14.984375 17.484375 19.15625 11.84375 
Q 23.34375 6.203125 30.609375 6.203125 
Q 37.796875 6.203125 41.984375 11.859375 
Q 46.1875 17.53125 46.1875 27.296875 
Q 46.1875 37.015625 41.984375 42.703125 
Q 37.796875 48.390625 30.609375 48.390625 
z
M 30.609375 56 
Q 42.328125 56 49.015625 48.375 
Q 55.71875 40.765625 55.71875 27.296875 
Q 55.71875 13.875 49.015625 6.21875 
Q 42.328125 -1.421875 30.609375 -1.421875 
Q 18.84375 -1.421875 12.171875 6.21875 
Q 5.515625 13.875 5.515625 27.296875 
Q 5.515625 40.765625 12.171875 48.375 
Q 18.84375 56 30.609375 56 
z
" id="DejaVuSans-6f"/>
      <path d="M 31 75.875 
Q 24.46875 64.65625 21.28125 53.65625 
Q 18.109375 42.671875 18.109375 31.390625 
Q 18.109375 20.125 21.3125 9.0625 
Q 24.515625 -2 31 -13.1875 
L 23.1875 -13.1875 
Q 15.875 -1.703125 12.234375 9.375 
Q 8.59375 20.453125 8.59375 31.390625 
Q 8.59375 42.28125 12.203125 53.3125 
Q 15.828125 64.359375 23.1875 75.875 
z
" id="DejaVuSans-28"/>
      <path d="M 37.796875 64.3125 
L 12.890625 25.390625 
L 37.796875 25.390625 
z
M 35.203125 72.90625 
L 47.609375 72.90625 
L 47.609375 25.390625 
L 58.015625 25.390625 
L 58.015625 17.1875 
L 47.609375 17.1875 
L 47.609375 0 
L 37.796875 0 
L 37.796875 17.1875 
L 4.890625 17.1875 
L 4.890625 26.703125 
z
" id="DejaVuSans-34"/>
      <path d="M 10.6875 12.40625 
L 21 12.40625 
L 21 0 
L 10.6875 0 
z
" id="DejaVuSans-2e"/>
      <path d="M 8.203125 72.90625 
L 55.078125 72.90625 
L 55.078125 68.703125 
L 28.609375 0 
L 18.3125 0 
L 43.21875 64.59375 
L 8.203125 64.59375 
z
" id="DejaVuSans-37"/>
      <path d="M 72.703125 32.078125 
Q 68.453125 32.078125 66.03125 28.46875 
Q 63.625 24.859375 63.625 18.40625 
Q 63.625 12.0625 66.03125 8.421875 
Q 68.453125 4.78125 72.703125 4.78125 
Q 76.859375 4.78125 79.265625 8.421875 
Q 81.6875 12.0625 81.6875 18.40625 
Q 81.6875 24.8125 79.265625 28.4375 
Q 76.859375 32.078125 72.703125 32.078125 
z
M 72.703125 38.28125 
Q 80.421875 38.28125 84.953125 32.90625 
Q 89.5 27.546875 89.5 18.40625 
Q 89.5 9.28125 84.9375 3.921875 
Q 80.375 -1.421875 72.703125 -1.421875 
Q 64.890625 -1.421875 60.34375 3.921875 
Q 55.8125 9.28125 55.8125 18.40625 
Q 55.8125 27.59375 60.375 32.9375 
Q 64.9375 38.28125 72.703125 38.28125 
z
M 22.3125 68.015625 
Q 18.109375 68.015625 15.6875 64.375 
Q 13.28125 60.75 13.28125 54.390625 
Q 13.28125 47.953125 15.671875 44.328125 
Q 18.0625 40.71875 22.3125 40.71875 
Q 26.5625 40.71875 28.96875 44.328125 
Q 31.390625 47.953125 31.390625 54.390625 
Q 31.390625 60.6875 28.953125 64.34375 
Q 26.515625 68.015625 22.3125 68.015625 
z
M 66.40625 74.21875 
L 74.21875 74.21875 
L 28.609375 -1.421875 
L 20.796875 -1.421875 
z
M 22.3125 74.21875 
Q 30.03125 74.21875 34.609375 68.875 
Q 39.203125 63.53125 39.203125 54.390625 
Q 39.203125 45.171875 34.640625 39.84375 
Q 30.078125 34.515625 22.3125 34.515625 
Q 14.546875 34.515625 10.03125 39.859375 
Q 5.515625 45.21875 5.515625 54.390625 
Q 5.515625 63.484375 10.046875 68.84375 
Q 14.59375 74.21875 22.3125 74.21875 
z
" id="DejaVuSans-25"/>
      <path d="M 8.015625 75.875 
L 15.828125 75.875 
Q 23.140625 64.359375 26.78125 53.3125 
Q 30.421875 42.28125 30.421875 31.390625 
Q 30.421875 20.453125 26.78125 9.375 
Q 23.140625 -1.703125 15.828125 -13.1875 
L 8.015625 -13.1875 
Q 14.5 -2 17.703125 9.0625 
Q 20.90625 20.125 20.90625 31.390625 
Q 20.90625 42.671875 17.703125 53.65625 
Q 14.5 64.65625 8.015625 75.875 
z
" id="DejaVuSans-29"/>
     </defs>
     <g transform="translate(47.7 38.916562)scale(0.1 -0.1)">
      <use xlink:href="#DejaVuSans-73"/>
      <use x="52.099609" xlink:href="#DejaVuSans-75"/>
      <use x="115.478516" xlink:href="#DejaVuSans-6f"/>
      <use x="176.660156" xlink:href="#DejaVuSans-6d"/>
      <use x="274.072266" xlink:href="#DejaVuSans-69"/>
      <use x="301.855469" xlink:href="#DejaVuSans-20"/>
      <use x="333.642578" xlink:href="#DejaVuSans-28"/>
      <use x="372.65625" xlink:href="#DejaVuSans-34"/>
      <use x="436.279297" xlink:href="#DejaVuSans-34"/>
      <use x="499.902344" xlink:href="#DejaVuSans-2e"/>
      <use x="531.689453" xlink:href="#DejaVuSans-37"/>
      <use x="595.3125" xlink:href="#DejaVuSans-20"/>
      <use x="627.099609" xlink:href="#DejaVuSans-25"/>
      <use x="722.119141" xlink:href="#DejaVuSans-29"/>
     </g>
    </g>
    <g id="patch_35">
     <path d="M 19.7 53.594687 
L 39.7 53.594687 
L 39.7 46.594687 
L 19.7 46.594687 
z
" style="fill:#ff0000;"/>
    </g>
    <g id="text_3">
     <!-- englanti (36.2 %) -->
     <defs>
      <path d="M 54.890625 33.015625 
L 54.890625 0 
L 45.90625 0 
L 45.90625 32.71875 
Q 45.90625 40.484375 42.875 44.328125 
Q 39.84375 48.1875 33.796875 48.1875 
Q 26.515625 48.1875 22.3125 43.546875 
Q 18.109375 38.921875 18.109375 30.90625 
L 18.109375 0 
L 9.078125 0 
L 9.078125 54.6875 
L 18.109375 54.6875 
L 18.109375 46.1875 
Q 21.34375 51.125 25.703125 53.5625 
Q 30.078125 56 35.796875 56 
Q 45.21875 56 50.046875 50.171875 
Q 54.890625 44.34375 54.890625 33.015625 
z
" id="DejaVuSans-6e"/>
      <path d="M 45.40625 27.984375 
Q 45.40625 37.75 41.375 43.109375 
Q 37.359375 48.484375 30.078125 48.484375 
Q 22.859375 48.484375 18.828125 43.109375 
Q 14.796875 37.75 14.796875 27.984375 
Q 14.796875 18.265625 18.828125 12.890625 
Q 22.859375 7.515625 30.078125 7.515625 
Q 37.359375 7.515625 41.375 12.890625 
Q 45.40625 18.265625 45.40625 27.984375 
z
M 54.390625 6.78125 
Q 54.390625 -7.171875 48.1875 -13.984375 
Q 42 -20.796875 29.203125 -20.796875 
Q 24.46875 -20.796875 20.265625 -20.09375 
Q 16.0625 -19.390625 12.109375 -17.921875 
L 12.109375 -9.1875 
Q 16.0625 -11.328125 19.921875 -12.34375 
Q 23.78125 -13.375 27.78125 -13.375 
Q 36.625 -13.375 41.015625 -8.765625 
Q 45.40625 -4.15625 45.40625 5.171875 
L 45.40625 9.625 
Q 42.625 4.78125 38.28125 2.390625 
Q 33.9375 0 27.875 0 
Q 17.828125 0 11.671875 7.65625 
Q 5.515625 15.328125 5.515625 27.984375 
Q 5.515625 40.671875 11.671875 48.328125 
Q 17.828125 56 27.875 56 
Q 33.9375 56 38.28125 53.609375 
Q 42.625 51.21875 45.40625 46.390625 
L 45.40625 54.6875 
L 54.390625 54.6875 
z
" id="DejaVuSans-67"/>
      <path d="M 40.578125 39.3125 
Q 47.65625 37.796875 51.625 33 
Q 55.609375 28.21875 55.609375 21.1875 
Q 55.609375 10.40625 48.1875 4.484375 
Q 40.765625 -1.421875 27.09375 -1.421875 
Q 22.515625 -1.421875 17.65625 -0.515625 
Q 12.796875 0.390625 7.625 2.203125 
L 7.625 11.71875 
Q 11.71875 9.328125 16.59375 8.109375 
Q 21.484375 6.890625 26.8125 6.890625 
Q 36.078125 6.890625 40.9375 10.546875 
Q 45.796875 14.203125 45.796875 21.1875 
Q 45.796875 27.640625 41.28125 31.265625 
Q 36.765625 34.90625 28.71875 34.90625 
L 20.21875 34.90625 
L 20.21875 43.015625 
L 29.109375 43.015625 
Q 36.375 43.015625 40.234375 45.921875 
Q 44.09375 48.828125 44.09375 54.296875 
Q 44.09375 59.90625 40.109375 62.90625 
Q 36.140625 65.921875 28.71875 65.921875 
Q 24.65625 65.921875 20.015625 65.03125 
Q 15.375 64.15625 9.8125 62.3125 
L 9.8125 71.09375 
Q 15.4375 72.65625 20.34375 73.4375 
Q 25.25 74.21875 29.59375 74.21875 
Q 40.828125 74.21875 47.359375 69.109375 
Q 53.90625 64.015625 53.90625 55.328125 
Q 53.90625 49.265625 50.4375 45.09375 
Q 46.96875 40.921875 40.578125 39.3125 
z
" id="DejaVuSans-33"/>
      <path d="M 33.015625 40.375 
Q 26.375 40.375 22.484375 35.828125 
Q 18.609375 31.296875 18.609375 23.390625 
Q 18.609375 15.53125 22.484375 10.953125 
Q 26.375 6.390625 33.015625 6.390625 
Q 39.65625 6.390625 43.53125 10.953125 
Q 47.40625 15.53125 47.40625 23.390625 
Q 47.40625 31.296875 43.53125 35.828125 
Q 39.65625 40.375 33.015625 40.375 
z
M 52.59375 71.296875 
L 52.59375 62.3125 
Q 48.875 64.0625 45.09375 64.984375 
Q 41.3125 65.921875 37.59375 65.921875 
Q 27.828125 65.921875 22.671875 59.328125 
Q 17.53125 52.734375 16.796875 39.40625 
Q 19.671875 43.65625 24.015625 45.921875 
Q 28.375 48.1875 33.59375 48.1875 
Q 44.578125 48.1875 50.953125 41.515625 
Q 57.328125 34.859375 57.328125 23.390625 
Q 57.328125 12.15625 50.6875 5.359375 
Q 44.046875 -1.421875 33.015625 -1.421875 
Q 20.359375 -1.421875 13.671875 8.265625 
Q 6.984375 17.96875 6.984375 36.375 
Q 6.984375 53.65625 15.1875 63.9375 
Q 23.390625 74.21875 37.203125 74.21875 
Q 40.921875 74.21875 44.703125 73.484375 
Q 48.484375 72.75 52.59375 71.296875 
z
" id="DejaVuSans-36"/>
      <path d="M 19.1875 8.296875 
L 53.609375 8.296875 
L 53.609375 0 
L 7.328125 0 
L 7.328125 8.296875 
Q 12.9375 14.109375 22.625 23.890625 
Q 32.328125 33.6875 34.8125 36.53125 
Q 39.546875 41.84375 41.421875 45.53125 
Q 43.3125 49.21875 43.3125 52.78125 
Q 43.3125 58.59375 39.234375 62.25 
Q 35.15625 65.921875 28.609375 65.921875 
Q 23.96875 65.921875 18.8125 64.3125 
Q 13.671875 62.703125 7.8125 59.421875 
L 7.8125 69.390625 
Q 13.765625 71.78125 18.9375 73 
Q 24.125 74.21875 28.421875 74.21875 
Q 39.75 74.21875 46.484375 68.546875 
Q 53.21875 62.890625 53.21875 53.421875 
Q 53.21875 48.921875 51.53125 44.890625 
Q 49.859375 40.875 45.40625 35.40625 
Q 44.1875 33.984375 37.640625 27.21875 
Q 31.109375 20.453125 19.1875 8.296875 
z
" id="DejaVuSans-32"/>
     </defs>
     <g transform="translate(47.7 53.594687)scale(0.1 -0.1)">
      <use xlink:href="#DejaVuSans-65"/>
      <use x="61.523438" xlink:href="#DejaVuSans-6e"/>
      <use x="124.902344" xlink:href="#DejaVuSans-67"/>
      <use x="188.378906" xlink:href="#DejaVuSans-6c"/>
      <use x="216.162109" xlink:href="#DejaVuSans-61"/>
      <use x="277.441406" xlink:href="#DejaVuSans-6e"/>
      <use x="340.820312" xlink:href="#DejaVuSans-74"/>
      <use x="380.029297" xlink:href="#DejaVuSans-69"/>
      <use x="407.8125" xlink:href="#DejaVuSans-20"/>
      <use x="439.599609" xlink:href="#DejaVuSans-28"/>
      <use x="478.613281" xlink:href="#DejaVuSans-33"/>
      <use x="542.236328" xlink:href="#DejaVuSans-36"/>
      <use x="605.859375" xlink:href="#DejaVuSans-2e"/>
      <use x="637.646484" xlink:href="#DejaVuSans-32"/>
      <use x="701.269531" xlink:href="#DejaVuSans-20"/>
      <use x="733.056641" xlink:href="#DejaVuSans-25"/>
      <use x="828.076172" xlink:href="#DejaVuSans-29"/>
     </g>
    </g>
    <g id="patch_36">
     <path d="M 19.7 68.272812 
L 39.7 68.272812 
L 39.7 61.272812 
L 19.7 61.272812 
z
" style="fill:#ffd700;"/>
    </g>
    <g id="text_4">
     <!-- ruotsi (9.4 %) -->
     <defs>
      <path d="M 41.109375 46.296875 
Q 39.59375 47.171875 37.8125 47.578125 
Q 36.03125 48 33.890625 48 
Q 26.265625 48 22.1875 43.046875 
Q 18.109375 38.09375 18.109375 28.8125 
L 18.109375 0 
L 9.078125 0 
L 9.078125 54.6875 
L 18.109375 54.6875 
L 18.109375 46.1875 
Q 20.953125 51.171875 25.484375 53.578125 
Q 30.03125 56 36.53125 56 
Q 37.453125 56 38.578125 55.875 
Q 39.703125 55.765625 41.0625 55.515625 
z
" id="DejaVuSans-72"/>
      <path d="M 10.984375 1.515625 
L 10.984375 10.5 
Q 14.703125 8.734375 18.5 7.8125 
Q 22.3125 6.890625 25.984375 6.890625 
Q 35.75 6.890625 40.890625 13.453125 
Q 46.046875 20.015625 46.78125 33.40625 
Q 43.953125 29.203125 39.59375 26.953125 
Q 35.25 24.703125 29.984375 24.703125 
Q 19.046875 24.703125 12.671875 31.3125 
Q 6.296875 37.9375 6.296875 49.421875 
Q 6.296875 60.640625 12.9375 67.421875 
Q 19.578125 74.21875 30.609375 74.21875 
Q 43.265625 74.21875 49.921875 64.515625 
Q 56.59375 54.828125 56.59375 36.375 
Q 56.59375 19.140625 48.40625 8.859375 
Q 40.234375 -1.421875 26.421875 -1.421875 
Q 22.703125 -1.421875 18.890625 -0.6875 
Q 15.09375 0.046875 10.984375 1.515625 
z
M 30.609375 32.421875 
Q 37.25 32.421875 41.125 36.953125 
Q 45.015625 41.5 45.015625 49.421875 
Q 45.015625 57.28125 41.125 61.84375 
Q 37.25 66.40625 30.609375 66.40625 
Q 23.96875 66.40625 20.09375 61.84375 
Q 16.21875 57.28125 16.21875 49.421875 
Q 16.21875 41.5 20.09375 36.953125 
Q 23.96875 32.421875 30.609375 32.421875 
z
" id="DejaVuSans-39"/>
     </defs>
     <g transform="translate(47.7 68.272812)scale(0.1 -0.1)">
      <use xlink:href="#DejaVuSans-72"/>
      <use x="41.113281" xlink:href="#DejaVuSans-75"/>
      <use x="104.492188" xlink:href="#DejaVuSans-6f"/>
      <use x="165.673828" xlink:href="#DejaVuSans-74"/>
      <use x="204.882812" xlink:href="#DejaVuSans-73"/>
      <use x="256.982422" xlink:href="#DejaVuSans-69"/>
      <use x="284.765625" xlink:href="#DejaVuSans-20"/>
      <use x="316.552734" xlink:href="#DejaVuSans-28"/>
      <use x="355.566406" xlink:href="#DejaVuSans-39"/>
      <use x="419.189453" xlink:href="#DejaVuSans-2e"/>
      <use x="450.976562" xlink:href="#DejaVuSans-34"/>
      <use x="514.599609" xlink:href="#DejaVuSans-20"/>
      <use x="546.386719" xlink:href="#DejaVuSans-25"/>
      <use x="641.40625" xlink:href="#DejaVuSans-29"/>
     </g>
    </g>
    <g id="patch_37">
     <path d="M 19.7 82.950937 
L 39.7 82.950937 
L 39.7 75.950937 
L 19.7 75.950937 
z
" style="fill:#87cefa;"/>
    </g>
    <g id="text_5">
     <!-- saksa (2.2 %) -->
     <g transform="translate(47.7 82.950937)scale(0.1 -0.1)">
      <use xlink:href="#DejaVuSans-73"/>
      <use x="52.099609" xlink:href="#DejaVuSans-61"/>
      <use x="113.378906" xlink:href="#DejaVuSans-6b"/>
      <use x="171.289062" xlink:href="#DejaVuSans-73"/>
      <use x="223.388672" xlink:href="#DejaVuSans-61"/>
      <use x="284.667969" xlink:href="#DejaVuSans-20"/>
      <use x="316.455078" xlink:href="#DejaVuSans-28"/>
      <use x="355.46875" xlink:href="#DejaVuSans-32"/>
      <use x="419.091797" xlink:href="#DejaVuSans-2e"/>
      <use x="450.878906" xlink:href="#DejaVuSans-32"/>
      <use x="514.501953" xlink:href="#DejaVuSans-20"/>
      <use x="546.289062" xlink:href="#DejaVuSans-25"/>
      <use x="641.308594" xlink:href="#DejaVuSans-29"/>
     </g>
    </g>
    <g id="patch_38">
     <path d="M 19.7 97.629062 
L 39.7 97.629062 
L 39.7 90.629062 
L 19.7 90.629062 
z
" style="fill:#ffffff;"/>
    </g>
    <g id="text_6">
     <!-- ranska (1.2 %) -->
     <defs>
      <path d="M 12.40625 8.296875 
L 28.515625 8.296875 
L 28.515625 63.921875 
L 10.984375 60.40625 
L 10.984375 69.390625 
L 28.421875 72.90625 
L 38.28125 72.90625 
L 38.28125 8.296875 
L 54.390625 8.296875 
L 54.390625 0 
L 12.40625 0 
z
" id="DejaVuSans-31"/>
     </defs>
     <g transform="translate(47.7 97.629062)scale(0.1 -0.1)">
      <use xlink:href="#DejaVuSans-72"/>
      <use x="41.113281" xlink:href="#DejaVuSans-61"/>
      <use x="102.392578" xlink:href="#DejaVuSans-6e"/>
      <use x="165.771484" xlink:href="#DejaVuSans-73"/>
      <use x="217.871094" xlink:href="#DejaVuSans-6b"/>
      <use x="275.765625" xlink:href="#DejaVuSans-61"/>
      <use x="337.044922" xlink:href="#DejaVuSans-20"/>
      <use x="368.832031" xlink:href="#DejaVuSans-28"/>
      <use x="407.845703" xlink:href="#DejaVuSans-31"/>
      <use x="471.46875" xlink:href="#DejaVuSans-2e"/>
      <use x="503.255859" xlink:href="#DejaVuSans-32"/>
      <use x="566.878906" xlink:href="#DejaVuSans-20"/>
      <use x="598.666016" xlink:href="#DejaVuSans-25"/>
      <use x="693.685547" xlink:href="#DejaVuSans-29"/>
     </g>
    </g>
    <g id="patch_39">
     <path d="M 19.7 112.307187 
L 39.7 112.307187 
L 39.7 105.307187 
L 19.7 105.307187 
z
" style="fill:#f08080;"/>
    </g>
    <g id="text_7">
     <!-- italia (1.0 %) -->
     <defs>
      <path d="M 31.78125 66.40625 
Q 24.171875 66.40625 20.328125 58.90625 
Q 16.5 51.421875 16.5 36.375 
Q 16.5 21.390625 20.328125 13.890625 
Q 24.171875 6.390625 31.78125 6.390625 
Q 39.453125 6.390625 43.28125 13.890625 
Q 47.125 21.390625 47.125 36.375 
Q 47.125 51.421875 43.28125 58.90625 
Q 39.453125 66.40625 31.78125 66.40625 
z
M 31.78125 74.21875 
Q 44.046875 74.21875 50.515625 64.515625 
Q 56.984375 54.828125 56.984375 36.375 
Q 56.984375 17.96875 50.515625 8.265625 
Q 44.046875 -1.421875 31.78125 -1.421875 
Q 19.53125 -1.421875 13.0625 8.265625 
Q 6.59375 17.96875 6.59375 36.375 
Q 6.59375 54.828125 13.0625 64.515625 
Q 19.53125 74.21875 31.78125 74.21875 
z
" id="DejaVuSans-30"/>
     </defs>
     <g transform="translate(47.7 112.307187)scale(0.1 -0.1)">
      <use xlink:href="#DejaVuSans-69"/>
      <use x="27.783203" xlink:href="#DejaVuSans-74"/>
      <use x="66.992188" xlink:href="#DejaVuSans-61"/>
      <use x="128.271484" xlink:href="#DejaVuSans-6c"/>
      <use x="156.054688" xlink:href="#DejaVuSans-69"/>
      <use x="183.837891" xlink:href="#DejaVuSans-61"/>
      <use x="245.117188" xlink:href="#DejaVuSans-20"/>
      <use x="276.904297" xlink:href="#DejaVuSans-28"/>
      <use x="315.917969" xlink:href="#DejaVuSans-31"/>
      <use x="379.541016" xlink:href="#DejaVuSans-2e"/>
      <use x="411.328125" xlink:href="#DejaVuSans-30"/>
      <use x="474.951172" xlink:href="#DejaVuSans-20"/>
      <use x="506.738281" xlink:href="#DejaVuSans-25"/>
      <use x="601.757812" xlink:href="#DejaVuSans-29"/>
     </g>
    </g>
    <g id="patch_40">
     <path d="M 19.7 126.985312 
L 39.7 126.985312 
L 39.7 119.985312 
L 19.7 119.985312 
z
" style="fill:#0000ff;"/>
    </g>
    <g id="text_8">
     <!-- venäjä (1.0 %) -->
     <defs>
      <path d="M 2.984375 54.6875 
L 12.5 54.6875 
L 29.59375 8.796875 
L 46.6875 54.6875 
L 56.203125 54.6875 
L 35.6875 0 
L 23.484375 0 
z
" id="DejaVuSans-76"/>
      <path d="M 9.421875 54.6875 
L 18.40625 54.6875 
L 18.40625 -0.984375 
Q 18.40625 -11.421875 14.421875 -16.109375 
Q 10.453125 -20.796875 1.609375 -20.796875 
L -1.8125 -20.796875 
L -1.8125 -13.1875 
L 0.59375 -13.1875 
Q 5.71875 -13.1875 7.5625 -10.8125 
Q 9.421875 -8.453125 9.421875 -0.984375 
z
M 9.421875 75.984375 
L 18.40625 75.984375 
L 18.40625 64.59375 
L 9.421875 64.59375 
z
" id="DejaVuSans-6a"/>
     </defs>
     <g transform="translate(47.7 126.985312)scale(0.1 -0.1)">
      <use xlink:href="#DejaVuSans-76"/>
      <use x="59.179688" xlink:href="#DejaVuSans-65"/>
      <use x="120.703125" xlink:href="#DejaVuSans-6e"/>
      <use x="184.082031" xlink:href="#DejaVuSans-e4"/>
      <use x="245.361328" xlink:href="#DejaVuSans-6a"/>
      <use x="273.144531" xlink:href="#DejaVuSans-e4"/>
      <use x="334.423828" xlink:href="#DejaVuSans-20"/>
      <use x="366.210938" xlink:href="#DejaVuSans-28"/>
      <use x="405.224609" xlink:href="#DejaVuSans-31"/>
      <use x="468.847656" xlink:href="#DejaVuSans-2e"/>
      <use x="500.634766" xlink:href="#DejaVuSans-30"/>
      <use x="564.257812" xlink:href="#DejaVuSans-20"/>
      <use x="596.044922" xlink:href="#DejaVuSans-25"/>
      <use x="691.064453" xlink:href="#DejaVuSans-29"/>
     </g>
    </g>
    <g id="patch_41">
     <path d="M 19.7 141.663437 
L 39.7 141.663437 
L 39.7 134.663437 
L 19.7 134.663437 
z
" style="fill:#ffc0cb;"/>
    </g>
    <g id="text_9">
     <!-- espanja (0.7 %) -->
     <defs>
      <path d="M 18.109375 8.203125 
L 18.109375 -20.796875 
L 9.078125 -20.796875 
L 9.078125 54.6875 
L 18.109375 54.6875 
L 18.109375 46.390625 
Q 20.953125 51.265625 25.265625 53.625 
Q 29.59375 56 35.59375 56 
Q 45.5625 56 51.78125 48.09375 
Q 58.015625 40.1875 58.015625 27.296875 
Q 58.015625 14.40625 51.78125 6.484375 
Q 45.5625 -1.421875 35.59375 -1.421875 
Q 29.59375 -1.421875 25.265625 0.953125 
Q 20.953125 3.328125 18.109375 8.203125 
z
M 48.6875 27.296875 
Q 48.6875 37.203125 44.609375 42.84375 
Q 40.53125 48.484375 33.40625 48.484375 
Q 26.265625 48.484375 22.1875 42.84375 
Q 18.109375 37.203125 18.109375 27.296875 
Q 18.109375 17.390625 22.1875 11.75 
Q 26.265625 6.109375 33.40625 6.109375 
Q 40.53125 6.109375 44.609375 11.75 
Q 48.6875 17.390625 48.6875 27.296875 
z
" id="DejaVuSans-70"/>
     </defs>
     <g transform="translate(47.7 141.663437)scale(0.1 -0.1)">
      <use xlink:href="#DejaVuSans-65"/>
      <use x="61.523438" xlink:href="#DejaVuSans-73"/>
      <use x="113.623047" xlink:href="#DejaVuSans-70"/>
      <use x="177.099609" xlink:href="#DejaVuSans-61"/>
      <use x="238.378906" xlink:href="#DejaVuSans-6e"/>
      <use x="301.757812" xlink:href="#DejaVuSans-6a"/>
      <use x="329.541016" xlink:href="#DejaVuSans-61"/>
      <use x="390.820312" xlink:href="#DejaVuSans-20"/>
      <use x="422.607422" xlink:href="#DejaVuSans-28"/>
      <use x="461.621094" xlink:href="#DejaVuSans-30"/>
      <use x="525.244141" xlink:href="#DejaVuSans-2e"/>
      <use x="557.03125" xlink:href="#DejaVuSans-37"/>
      <use x="620.654297" xlink:href="#DejaVuSans-20"/>
      <use x="652.441406" xlink:href="#DejaVuSans-25"/>
      <use x="747.460938" xlink:href="#DejaVuSans-29"/>
     </g>
    </g>
    <g id="patch_42">
     <path d="M 19.7 156.341562 
L 39.7 156.341562 
L 39.7 149.341562 
L 19.7 149.341562 
z
" style="fill:#006400;"/>
    </g>
    <g id="text_10">
     <!-- latina (0.5 %) -->
     <defs>
      <path d="M 10.796875 72.90625 
L 49.515625 72.90625 
L 49.515625 64.59375 
L 19.828125 64.59375 
L 19.828125 46.734375 
Q 21.96875 47.46875 24.109375 47.828125 
Q 26.265625 48.1875 28.421875 48.1875 
Q 40.625 48.1875 47.75 41.5 
Q 54.890625 34.8125 54.890625 23.390625 
Q 54.890625 11.625 47.5625 5.09375 
Q 40.234375 -1.421875 26.90625 -1.421875 
Q 22.3125 -1.421875 17.546875 -0.640625 
Q 12.796875 0.140625 7.71875 1.703125 
L 7.71875 11.625 
Q 12.109375 9.234375 16.796875 8.0625 
Q 21.484375 6.890625 26.703125 6.890625 
Q 35.15625 6.890625 40.078125 11.328125 
Q 45.015625 15.765625 45.015625 23.390625 
Q 45.015625 31 40.078125 35.4375 
Q 35.15625 39.890625 26.703125 39.890625 
Q 22.75 39.890625 18.8125 39.015625 
Q 14.890625 38.140625 10.796875 36.28125 
z
" id="DejaVuSans-35"/>
     </defs>
     <g transform="translate(47.7 156.341562)scale(0.1 -0.1)">
      <use xlink:href="#DejaVuSans-6c"/>
      <use x="27.783203" xlink:href="#DejaVuSans-61"/>
      <use x="89.0625" xlink:href="#DejaVuSans-74"/>
      <use x="128.271484" xlink:href="#DejaVuSans-69"/>
      <use x="156.054688" xlink:href="#DejaVuSans-6e"/>
      <use x="219.433594" xlink:href="#DejaVuSans-61"/>
      <use x="280.712891" xlink:href="#DejaVuSans-20"/>
      <use x="312.5" xlink:href="#DejaVuSans-28"/>
      <use x="351.513672" xlink:href="#DejaVuSans-30"/>
      <use x="415.136719" xlink:href="#DejaVuSans-2e"/>
      <use x="446.923828" xlink:href="#DejaVuSans-35"/>
      <use x="510.546875" xlink:href="#DejaVuSans-20"/>
      <use x="542.333984" xlink:href="#DejaVuSans-25"/>
      <use x="637.353516" xlink:href="#DejaVuSans-29"/>
     </g>
    </g>
    <g id="patch_43">
     <path d="M 19.7 171.019687 
L 39.7 171.019687 
L 39.7 164.019687 
L 19.7 164.019687 
z
" style="fill:#ffff00;"/>
    </g>
    <g id="text_11">
     <!-- muut (3.1 %) -->
     <g transform="translate(47.7 171.019687)scale(0.1 -0.1)">
      <use xlink:href="#DejaVuSans-6d"/>
      <use x="97.412109" xlink:href="#DejaVuSans-75"/>
      <use x="160.791016" xlink:href="#DejaVuSans-75"/>
      <use x="224.169922" xlink:href="#DejaVuSans-74"/>
      <use x="263.378906" xlink:href="#DejaVuSans-20"/>
      <use x="295.166016" xlink:href="#DejaVuSans-28"/>
      <use x="334.179688" xlink:href="#DejaVuSans-33"/>
      <use x="397.802734" xlink:href="#DejaVuSans-2e"/>
      <use x="429.589844" xlink:href="#DejaVuSans-31"/>
      <use x="493.212891" xlink:href="#DejaVuSans-20"/>
      <use x="525" xlink:href="#DejaVuSans-25"/>
      <use x="620.019531" xlink:href="#DejaVuSans-29"/>
     </g>
    </g>
   </g>
  </g>
 </g>
</svg>
