<?xml version="1.0" encoding="utf-8" standalone="no"?>
<!DOCTYPE svg PUBLIC "-//W3C//DTD SVG 1.1//EN"
  "http://www.w3.org/Graphics/SVG/1.1/DTD/svg11.dtd">
<!-- Created with matplotlib (http://matplotlib.org/) -->
<svg height="720pt" version="1.1" viewBox="0 0 720 720" width="720pt" xmlns="http://www.w3.org/2000/svg" xmlns:xlink="http://www.w3.org/1999/xlink">
 <defs>
  <style type="text/css">
*{stroke-linecap:butt;stroke-linejoin:round;}
  </style>
 </defs>
 <g id="figure_1">
  <g id="patch_1">
   <path d="M 0 720 
L 720 720 
L 720 0 
L 0 0 
z
" style="fill:#ffffff;"/>
  </g>
  <g id="axes_1">
   <g id="patch_2">
    <path clip-path="url(#p2b8f2659b0)" d="M 599.811513 362.807288 
C 599.034176 383.4072 593.05594 403.479204 582.435506 421.147453 
C 571.815072 438.815702 556.893925 453.512098 539.066536 463.863176 
C 538.675653 482.843757 533.495032 501.421388 524.007347 517.865204 
C 514.519662 534.30902 501.029011 548.091965 484.792311 557.929891 
C 519.110957 538.030328 547.728407 509.617408 567.873612 475.442377 
C 588.018818 441.267345 599.019864 402.470058 599.811513 362.807288 
M 599.811513 353.592712 
C 599.313117 328.622318 594.766224 303.89743 586.348367 280.38342 
C 577.930509 256.86941 565.752688 234.876344 550.29038 215.26293 
C 534.828073 195.649515 516.285171 178.674383 495.385674 165.00032 
C 474.486177 151.326257 451.505674 141.133574 427.341428 134.82024 
C 403.177181 128.506906 378.147832 126.156171 353.230638 127.859818 
C 328.313443 129.563465 303.836973 135.29903 280.756899 144.84257 
C 257.676824 154.386109 236.297489 167.611779 217.453639 184.003189 
C 198.609789 200.394598 182.549908 219.735604 169.901045 241.271046 
C 157.252181 262.806487 148.18113 286.252389 143.042064 310.693318 
C 137.902999 335.134247 136.763686 360.247913 139.668609 385.053768 
C 142.573532 409.859622 149.484386 434.030563 160.13134 456.622849 
C 170.778294 479.215134 185.020952 499.930852 202.303217 517.961169 
C 219.585482 535.991485 239.679463 551.098643 261.800599 562.692793 
C 283.921736 574.286942 307.77833 582.215197 332.438912 586.168002 
C 357.099495 590.120807 382.23888 590.04604 406.875514 585.946619 
C 431.512148 581.847198 455.321161 573.77718 477.372942 562.051655 
C 452.461189 574.687921 423.719887 577.621892 396.768713 570.279901 
C 369.817538 562.937909 346.53551 545.831835 331.474873 522.306362 
C 316.414236 498.780889 310.625009 470.476199 315.239137 442.926599 
C 319.853266 415.376999 334.549055 390.50323 356.453093 373.168763 
C 354.433813 356.8105 355.745341 340.211516 360.308544 324.373351 
C 364.871746 308.535187 372.592963 293.782926 383.006314 281.006683 
C 393.419664 268.23044 406.311413 257.692451 420.903702 250.028552 
C 435.495992 242.364653 451.489312 237.732147 467.918665 236.41055 
C 484.348018 235.088953 500.876187 237.105389 516.505904 242.338193 
C 532.13562 247.570996 546.546079 255.912762 558.867789 266.860169 
C 571.1895 277.807576 581.169555 291.135925 588.205783 306.041017 
C 595.242011 320.946109 599.189992 337.122012 599.811513 353.592712 
" style="fill:#ff0000;opacity:0.4;"/>
   </g>
   <g id="patch_3">
    <path clip-path="url(#p2b8f2659b0)" d="M 599.811513 353.592712 
C 599.189992 337.122012 595.242011 320.946109 588.205783 306.041017 
C 581.169555 291.135925 571.1895 277.807576 558.867789 266.860169 
C 546.546079 255.912762 532.13562 247.570996 516.505904 242.338193 
C 500.876187 237.105389 484.348018 235.088953 467.918665 236.41055 
C 451.489312 237.732147 435.495992 242.364653 420.903702 250.028552 
C 406.311413 257.692451 393.419664 268.23044 383.006314 281.006683 
C 372.592963 293.782926 364.871746 308.535187 360.308544 324.373351 
C 355.745341 340.211516 354.433813 356.8105 356.453093 373.168763 
C 373.213139 359.905161 393.405519 351.679061 414.662879 349.454892 
C 435.920239 347.230723 457.378054 351.098939 476.52061 360.606032 
C 495.663166 370.113124 511.711947 384.872445 522.785394 403.153612 
C 533.85884 421.434778 539.506602 442.494306 539.066536 463.863176 
C 556.893925 453.512098 571.815072 438.815702 582.435506 421.147453 
C 593.05594 403.479204 599.034176 383.4072 599.811513 362.807288 
C 599.842162 361.271716 599.857488 359.735877 599.857488 358.2 
C 599.857488 356.664123 599.842162 355.128284 599.811513 353.592712 
" style="fill:#b25900;opacity:0.4;"/>
   </g>
   <g id="patch_4">
    <path clip-path="url(#p2b8f2659b0)" d="M 539.066536 463.863176 
C 521.596968 474.006493 501.88152 479.660809 481.69141 480.318147 
C 461.501299 480.975485 441.459813 476.615551 423.367461 467.630039 
C 405.275108 458.644527 389.690416 445.310827 378.013499 428.826827 
C 366.336583 412.342826 358.927918 393.217401 356.453093 373.168763 
C 334.549055 390.50323 319.853266 415.376999 315.239137 442.926599 
C 310.625009 470.476199 316.414236 498.780889 331.474873 522.306362 
C 346.53551 545.831835 369.817538 562.937909 396.768713 570.279901 
C 423.719887 577.621892 452.461189 574.687921 477.372942 562.051655 
C 478.622001 561.387498 479.864929 560.711874 481.101568 560.024869 
C 482.338208 559.337865 483.568507 558.639509 484.792311 557.929891 
C 501.029011 548.091965 514.519662 534.30902 524.007347 517.865204 
C 533.495032 501.421388 538.675653 482.843757 539.066536 463.863176 
" style="fill:#b200b2;opacity:0.4;"/>
   </g>
   <g id="patch_5">
    <path clip-path="url(#p2b8f2659b0)" d="M 356.453093 373.168763 
C 358.927918 393.217401 366.336583 412.342826 378.013499 428.826827 
C 389.690416 445.310827 405.275108 458.644527 423.367461 467.630039 
C 441.459813 476.615551 461.501299 480.975485 481.69141 480.318147 
C 501.88152 479.660809 521.596968 474.006493 539.066536 463.863176 
C 539.506602 442.494306 533.85884 421.434778 522.785394 403.153612 
C 511.711947 384.872445 495.663166 370.113124 476.52061 360.606032 
C 457.378054 351.098939 435.920239 347.230723 414.662879 349.454892 
C 393.405519 351.679061 373.213139 359.905161 356.453093 373.168763 
" style="fill:#663366;opacity:0.4;"/>
   </g>
   <g id="patch_6">
    <path clip-path="url(#p2b8f2659b0)" d="M 368.979539 589.077949 
C 430.209087 589.077949 488.939074 564.751192 532.234902 521.455363 
C 575.530731 478.159535 599.857488 419.429548 599.857488 358.2 
C 599.857488 296.970452 575.530731 238.240465 532.234902 194.944637 
C 488.939074 151.648808 430.209087 127.322051 368.979539 127.322051 
C 307.749991 127.322051 249.020004 151.648808 205.724176 194.944637 
C 162.428347 238.240465 138.10159 296.970452 138.10159 358.2 
C 138.10159 419.429548 162.428347 478.159535 205.724176 521.455363 
C 249.020004 564.751192 307.749991 589.077949 368.979539 589.077949 
z
" style="fill:none;stroke:#000000;stroke-dasharray:2,3.3;stroke-dashoffset:0;stroke-linejoin:miter;stroke-width:2;"/>
   </g>
   <g id="patch_7">
    <path clip-path="url(#p2b8f2659b0)" d="M 477.715558 480.382852 
C 510.118829 480.382852 541.199309 467.508896 564.111881 444.596323 
C 587.024454 421.68375 599.89841 390.603271 599.89841 358.2 
C 599.89841 325.796729 587.024454 294.71625 564.111881 271.803677 
C 541.199309 248.891104 510.118829 236.017148 477.715558 236.017148 
C 445.312287 236.017148 414.231808 248.891104 391.319235 271.803677 
C 368.406663 294.71625 355.532707 325.796729 355.532707 358.2 
C 355.532707 390.603271 368.406663 421.68375 391.319235 444.596323 
C 414.231808 467.508896 445.312287 480.382852 477.715558 480.382852 
z
" style="fill:none;stroke:#000000;stroke-dasharray:7.4,3.2;stroke-dashoffset:0;stroke-linejoin:miter;stroke-width:2;"/>
   </g>
   <g id="patch_8">
    <path clip-path="url(#p2b8f2659b0)" d="M 426.390694 574.242483 
C 456.279013 574.242483 484.947206 562.367728 506.081439 541.233495 
C 527.215672 520.099263 539.090426 491.431069 539.090426 461.54275 
C 539.090426 431.654432 527.215672 402.986238 506.081439 381.852006 
C 484.947206 360.717773 456.279013 348.843018 426.390694 348.843018 
C 396.502376 348.843018 367.834182 360.717773 346.699949 381.852006 
C 325.565717 402.986238 313.690962 431.654432 313.690962 461.54275 
C 313.690962 491.431069 325.565717 520.099263 346.699949 541.233495 
C 367.834182 562.367728 396.502376 574.242483 426.390694 574.242483 
z
" style="fill:none;stroke:#000000;stroke-linejoin:miter;"/>
   </g>
   <g id="text_1">
    <!-- 6187209 -->
    <defs>
     <path d="M 33.015625 40.375 
Q 26.375 40.375 22.484375 35.828125 
Q 18.609375 31.296875 18.609375 23.390625 
Q 18.609375 15.53125 22.484375 10.953125 
Q 26.375 6.390625 33.015625 6.390625 
Q 39.65625 6.390625 43.53125 10.953125 
Q 47.40625 15.53125 47.40625 23.390625 
Q 47.40625 31.296875 43.53125 35.828125 
Q 39.65625 40.375 33.015625 40.375 
z
M 52.59375 71.296875 
L 52.59375 62.3125 
Q 48.875 64.0625 45.09375 64.984375 
Q 41.3125 65.921875 37.59375 65.921875 
Q 27.828125 65.921875 22.671875 59.328125 
Q 17.53125 52.734375 16.796875 39.40625 
Q 19.671875 43.65625 24.015625 45.921875 
Q 28.375 48.1875 33.59375 48.1875 
Q 44.578125 48.1875 50.953125 41.515625 
Q 57.328125 34.859375 57.328125 23.390625 
Q 57.328125 12.15625 50.6875 5.359375 
Q 44.046875 -1.421875 33.015625 -1.421875 
Q 20.359375 -1.421875 13.671875 8.265625 
Q 6.984375 17.96875 6.984375 36.375 
Q 6.984375 53.65625 15.1875 63.9375 
Q 23.390625 74.21875 37.203125 74.21875 
Q 40.921875 74.21875 44.703125 73.484375 
Q 48.484375 72.75 52.59375 71.296875 
z
" id="DejaVuSans-36"/>
     <path d="M 12.40625 8.296875 
L 28.515625 8.296875 
L 28.515625 63.921875 
L 10.984375 60.40625 
L 10.984375 69.390625 
L 28.421875 72.90625 
L 38.28125 72.90625 
L 38.28125 8.296875 
L 54.390625 8.296875 
L 54.390625 0 
L 12.40625 0 
z
" id="DejaVuSans-31"/>
     <path d="M 31.78125 34.625 
Q 24.75 34.625 20.71875 30.859375 
Q 16.703125 27.09375 16.703125 20.515625 
Q 16.703125 13.921875 20.71875 10.15625 
Q 24.75 6.390625 31.78125 6.390625 
Q 38.8125 6.390625 42.859375 10.171875 
Q 46.921875 13.96875 46.921875 20.515625 
Q 46.921875 27.09375 42.890625 30.859375 
Q 38.875 34.625 31.78125 34.625 
z
M 21.921875 38.8125 
Q 15.578125 40.375 12.03125 44.71875 
Q 8.5 49.078125 8.5 55.328125 
Q 8.5 64.0625 14.71875 69.140625 
Q 20.953125 74.21875 31.78125 74.21875 
Q 42.671875 74.21875 48.875 69.140625 
Q 55.078125 64.0625 55.078125 55.328125 
Q 55.078125 49.078125 51.53125 44.71875 
Q 48 40.375 41.703125 38.8125 
Q 48.828125 37.15625 52.796875 32.3125 
Q 56.78125 27.484375 56.78125 20.515625 
Q 56.78125 9.90625 50.3125 4.234375 
Q 43.84375 -1.421875 31.78125 -1.421875 
Q 19.734375 -1.421875 13.25 4.234375 
Q 6.78125 9.90625 6.78125 20.515625 
Q 6.78125 27.484375 10.78125 32.3125 
Q 14.796875 37.15625 21.921875 38.8125 
z
M 18.3125 54.390625 
Q 18.3125 48.734375 21.84375 45.5625 
Q 25.390625 42.390625 31.78125 42.390625 
Q 38.140625 42.390625 41.71875 45.5625 
Q 45.3125 48.734375 45.3125 54.390625 
Q 45.3125 60.0625 41.71875 63.234375 
Q 38.140625 66.40625 31.78125 66.40625 
Q 25.390625 66.40625 21.84375 63.234375 
Q 18.3125 60.0625 18.3125 54.390625 
z
" id="DejaVuSans-38"/>
     <path d="M 8.203125 72.90625 
L 55.078125 72.90625 
L 55.078125 68.703125 
L 28.609375 0 
L 18.3125 0 
L 43.21875 64.59375 
L 8.203125 64.59375 
z
" id="DejaVuSans-37"/>
     <path d="M 19.1875 8.296875 
L 53.609375 8.296875 
L 53.609375 0 
L 7.328125 0 
L 7.328125 8.296875 
Q 12.9375 14.109375 22.625 23.890625 
Q 32.328125 33.6875 34.8125 36.53125 
Q 39.546875 41.84375 41.421875 45.53125 
Q 43.3125 49.21875 43.3125 52.78125 
Q 43.3125 58.59375 39.234375 62.25 
Q 35.15625 65.921875 28.609375 65.921875 
Q 23.96875 65.921875 18.8125 64.3125 
Q 13.671875 62.703125 7.8125 59.421875 
L 7.8125 69.390625 
Q 13.765625 71.78125 18.9375 73 
Q 24.125 74.21875 28.421875 74.21875 
Q 39.75 74.21875 46.484375 68.546875 
Q 53.21875 62.890625 53.21875 53.421875 
Q 53.21875 48.921875 51.53125 44.890625 
Q 49.859375 40.875 45.40625 35.40625 
Q 44.1875 33.984375 37.640625 27.21875 
Q 31.109375 20.453125 19.1875 8.296875 
z
" id="DejaVuSans-32"/>
     <path d="M 31.78125 66.40625 
Q 24.171875 66.40625 20.328125 58.90625 
Q 16.5 51.421875 16.5 36.375 
Q 16.5 21.390625 20.328125 13.890625 
Q 24.171875 6.390625 31.78125 6.390625 
Q 39.453125 6.390625 43.28125 13.890625 
Q 47.125 21.390625 47.125 36.375 
Q 47.125 51.421875 43.28125 58.90625 
Q 39.453125 66.40625 31.78125 66.40625 
z
M 31.78125 74.21875 
Q 44.046875 74.21875 50.515625 64.515625 
Q 56.984375 54.828125 56.984375 36.375 
Q 56.984375 17.96875 50.515625 8.265625 
Q 44.046875 -1.421875 31.78125 -1.421875 
Q 19.53125 -1.421875 13.0625 8.265625 
Q 6.59375 17.96875 6.59375 36.375 
Q 6.59375 54.828125 13.0625 64.515625 
Q 19.53125 74.21875 31.78125 74.21875 
z
" id="DejaVuSans-30"/>
     <path d="M 10.984375 1.515625 
L 10.984375 10.5 
Q 14.703125 8.734375 18.5 7.8125 
Q 22.3125 6.890625 25.984375 6.890625 
Q 35.75 6.890625 40.890625 13.453125 
Q 46.046875 20.015625 46.78125 33.40625 
Q 43.953125 29.203125 39.59375 26.953125 
Q 35.25 24.703125 29.984375 24.703125 
Q 19.046875 24.703125 12.671875 31.3125 
Q 6.296875 37.9375 6.296875 49.421875 
Q 6.296875 60.640625 12.9375 67.421875 
Q 19.578125 74.21875 30.609375 74.21875 
Q 43.265625 74.21875 49.921875 64.515625 
Q 56.59375 54.828125 56.59375 36.375 
Q 56.59375 19.140625 48.40625 8.859375 
Q 40.234375 -1.421875 26.421875 -1.421875 
Q 22.703125 -1.421875 18.890625 -0.6875 
Q 15.09375 0.046875 10.984375 1.515625 
z
M 30.609375 32.421875 
Q 37.25 32.421875 41.125 36.953125 
Q 45.015625 41.5 45.015625 49.421875 
Q 45.015625 57.28125 41.125 61.84375 
Q 37.25 66.40625 30.609375 66.40625 
Q 23.96875 66.40625 20.09375 61.84375 
Q 16.21875 57.28125 16.21875 49.421875 
Q 16.21875 41.5 20.09375 36.953125 
Q 23.96875 32.421875 30.609375 32.421875 
z
" id="DejaVuSans-39"/>
    </defs>
    <g transform="translate(274.237379 315.487747)scale(0.1 -0.1)">
     <use xlink:href="#DejaVuSans-36"/>
     <use x="63.623047" xlink:href="#DejaVuSans-31"/>
     <use x="127.246094" xlink:href="#DejaVuSans-38"/>
     <use x="190.869141" xlink:href="#DejaVuSans-37"/>
     <use x="254.492188" xlink:href="#DejaVuSans-32"/>
     <use x="318.115234" xlink:href="#DejaVuSans-30"/>
     <use x="381.738281" xlink:href="#DejaVuSans-39"/>
    </g>
   </g>
   <g id="text_2">
    <!-- 1867137 -->
    <defs>
     <path d="M 40.578125 39.3125 
Q 47.65625 37.796875 51.625 33 
Q 55.609375 28.21875 55.609375 21.1875 
Q 55.609375 10.40625 48.1875 4.484375 
Q 40.765625 -1.421875 27.09375 -1.421875 
Q 22.515625 -1.421875 17.65625 -0.515625 
Q 12.796875 0.390625 7.625 2.203125 
L 7.625 11.71875 
Q 11.71875 9.328125 16.59375 8.109375 
Q 21.484375 6.890625 26.8125 6.890625 
Q 36.078125 6.890625 40.9375 10.546875 
Q 45.796875 14.203125 45.796875 21.1875 
Q 45.796875 27.640625 41.28125 31.265625 
Q 36.765625 34.90625 28.71875 34.90625 
L 20.21875 34.90625 
L 20.21875 43.015625 
L 29.109375 43.015625 
Q 36.375 43.015625 40.234375 45.921875 
Q 44.09375 48.828125 44.09375 54.296875 
Q 44.09375 59.90625 40.109375 62.90625 
Q 36.140625 65.921875 28.71875 65.921875 
Q 24.65625 65.921875 20.015625 65.03125 
Q 15.375 64.15625 9.8125 62.3125 
L 9.8125 71.09375 
Q 15.4375 72.65625 20.34375 73.4375 
Q 25.25 74.21875 29.59375 74.21875 
Q 40.828125 74.21875 47.359375 69.109375 
Q 53.90625 64.015625 53.90625 55.328125 
Q 53.90625 49.265625 50.4375 45.09375 
Q 46.96875 40.921875 40.578125 39.3125 
z
" id="DejaVuSans-33"/>
    </defs>
    <g transform="translate(467.080108 311.353629)scale(0.1 -0.1)">
     <use xlink:href="#DejaVuSans-31"/>
     <use x="63.623047" xlink:href="#DejaVuSans-38"/>
     <use x="127.246094" xlink:href="#DejaVuSans-36"/>
     <use x="190.869141" xlink:href="#DejaVuSans-37"/>
     <use x="254.492188" xlink:href="#DejaVuSans-31"/>
     <use x="318.115234" xlink:href="#DejaVuSans-33"/>
     <use x="381.738281" xlink:href="#DejaVuSans-37"/>
    </g>
   </g>
   <g id="text_3">
    <!-- 1425292 -->
    <defs>
     <path d="M 37.796875 64.3125 
L 12.890625 25.390625 
L 37.796875 25.390625 
z
M 35.203125 72.90625 
L 47.609375 72.90625 
L 47.609375 25.390625 
L 58.015625 25.390625 
L 58.015625 17.1875 
L 47.609375 17.1875 
L 47.609375 0 
L 37.796875 0 
L 37.796875 17.1875 
L 4.890625 17.1875 
L 4.890625 26.703125 
z
" id="DejaVuSans-34"/>
     <path d="M 10.796875 72.90625 
L 49.515625 72.90625 
L 49.515625 64.59375 
L 19.828125 64.59375 
L 19.828125 46.734375 
Q 21.96875 47.46875 24.109375 47.828125 
Q 26.265625 48.1875 28.421875 48.1875 
Q 40.625 48.1875 47.75 41.5 
Q 54.890625 34.8125 54.890625 23.390625 
Q 54.890625 11.625 47.5625 5.09375 
Q 40.234375 -1.421875 26.90625 -1.421875 
Q 22.3125 -1.421875 17.546875 -0.640625 
Q 12.796875 0.140625 7.71875 1.703125 
L 7.71875 11.625 
Q 12.109375 9.234375 16.796875 8.0625 
Q 21.484375 6.890625 26.703125 6.890625 
Q 35.15625 6.890625 40.078125 11.328125 
Q 45.015625 15.765625 45.015625 23.390625 
Q 45.015625 31 40.078125 35.4375 
Q 35.15625 39.890625 26.703125 39.890625 
Q 22.75 39.890625 18.8125 39.015625 
Q 14.890625 38.140625 10.796875 36.28125 
z
" id="DejaVuSans-35"/>
    </defs>
    <g transform="translate(373.068974 506.432782)scale(0.1 -0.1)">
     <use xlink:href="#DejaVuSans-31"/>
     <use x="63.623047" xlink:href="#DejaVuSans-34"/>
     <use x="127.246094" xlink:href="#DejaVuSans-32"/>
     <use x="190.869141" xlink:href="#DejaVuSans-35"/>
     <use x="254.492188" xlink:href="#DejaVuSans-32"/>
     <use x="318.115234" xlink:href="#DejaVuSans-39"/>
     <use x="381.738281" xlink:href="#DejaVuSans-32"/>
    </g>
   </g>
   <g id="text_4">
    <!-- 1094204 -->
    <g transform="translate(427.675285 416.877411)scale(0.1 -0.1)">
     <use xlink:href="#DejaVuSans-31"/>
     <use x="63.623047" xlink:href="#DejaVuSans-30"/>
     <use x="127.246094" xlink:href="#DejaVuSans-39"/>
     <use x="190.869141" xlink:href="#DejaVuSans-34"/>
     <use x="254.492188" xlink:href="#DejaVuSans-32"/>
     <use x="318.115234" xlink:href="#DejaVuSans-30"/>
     <use x="381.738281" xlink:href="#DejaVuSans-34"/>
    </g>
   </g>
   <g id="text_5">
    <!-- Melinda -->
    <defs>
     <path d="M 9.8125 72.90625 
L 24.515625 72.90625 
L 43.109375 23.296875 
L 61.8125 72.90625 
L 76.515625 72.90625 
L 76.515625 0 
L 66.890625 0 
L 66.890625 64.015625 
L 48.09375 14.015625 
L 38.1875 14.015625 
L 19.390625 64.015625 
L 19.390625 0 
L 9.8125 0 
z
" id="DejaVuSans-4d"/>
     <path d="M 56.203125 29.59375 
L 56.203125 25.203125 
L 14.890625 25.203125 
Q 15.484375 15.921875 20.484375 11.0625 
Q 25.484375 6.203125 34.421875 6.203125 
Q 39.59375 6.203125 44.453125 7.46875 
Q 49.3125 8.734375 54.109375 11.28125 
L 54.109375 2.78125 
Q 49.265625 0.734375 44.1875 -0.34375 
Q 39.109375 -1.421875 33.890625 -1.421875 
Q 20.796875 -1.421875 13.15625 6.1875 
Q 5.515625 13.8125 5.515625 26.8125 
Q 5.515625 40.234375 12.765625 48.109375 
Q 20.015625 56 32.328125 56 
Q 43.359375 56 49.78125 48.890625 
Q 56.203125 41.796875 56.203125 29.59375 
z
M 47.21875 32.234375 
Q 47.125 39.59375 43.09375 43.984375 
Q 39.0625 48.390625 32.421875 48.390625 
Q 24.90625 48.390625 20.390625 44.140625 
Q 15.875 39.890625 15.1875 32.171875 
z
" id="DejaVuSans-65"/>
     <path d="M 9.421875 75.984375 
L 18.40625 75.984375 
L 18.40625 0 
L 9.421875 0 
z
" id="DejaVuSans-6c"/>
     <path d="M 9.421875 54.6875 
L 18.40625 54.6875 
L 18.40625 0 
L 9.421875 0 
z
M 9.421875 75.984375 
L 18.40625 75.984375 
L 18.40625 64.59375 
L 9.421875 64.59375 
z
" id="DejaVuSans-69"/>
     <path d="M 54.890625 33.015625 
L 54.890625 0 
L 45.90625 0 
L 45.90625 32.71875 
Q 45.90625 40.484375 42.875 44.328125 
Q 39.84375 48.1875 33.796875 48.1875 
Q 26.515625 48.1875 22.3125 43.546875 
Q 18.109375 38.921875 18.109375 30.90625 
L 18.109375 0 
L 9.078125 0 
L 9.078125 54.6875 
L 18.109375 54.6875 
L 18.109375 46.1875 
Q 21.34375 51.125 25.703125 53.5625 
Q 30.078125 56 35.796875 56 
Q 45.21875 56 50.046875 50.171875 
Q 54.890625 44.34375 54.890625 33.015625 
z
" id="DejaVuSans-6e"/>
     <path d="M 45.40625 46.390625 
L 45.40625 75.984375 
L 54.390625 75.984375 
L 54.390625 0 
L 45.40625 0 
L 45.40625 8.203125 
Q 42.578125 3.328125 38.25 0.953125 
Q 33.9375 -1.421875 27.875 -1.421875 
Q 17.96875 -1.421875 11.734375 6.484375 
Q 5.515625 14.40625 5.515625 27.296875 
Q 5.515625 40.1875 11.734375 48.09375 
Q 17.96875 56 27.875 56 
Q 33.9375 56 38.25 53.625 
Q 42.578125 51.265625 45.40625 46.390625 
z
M 14.796875 27.296875 
Q 14.796875 17.390625 18.875 11.75 
Q 22.953125 6.109375 30.078125 6.109375 
Q 37.203125 6.109375 41.296875 11.75 
Q 45.40625 17.390625 45.40625 27.296875 
Q 45.40625 37.203125 41.296875 42.84375 
Q 37.203125 48.484375 30.078125 48.484375 
Q 22.953125 48.484375 18.875 42.84375 
Q 14.796875 37.203125 14.796875 27.296875 
z
" id="DejaVuSans-64"/>
     <path d="M 34.28125 27.484375 
Q 23.390625 27.484375 19.1875 25 
Q 14.984375 22.515625 14.984375 16.5 
Q 14.984375 11.71875 18.140625 8.90625 
Q 21.296875 6.109375 26.703125 6.109375 
Q 34.1875 6.109375 38.703125 11.40625 
Q 43.21875 16.703125 43.21875 25.484375 
L 43.21875 27.484375 
z
M 52.203125 31.203125 
L 52.203125 0 
L 43.21875 0 
L 43.21875 8.296875 
Q 40.140625 3.328125 35.546875 0.953125 
Q 30.953125 -1.421875 24.3125 -1.421875 
Q 15.921875 -1.421875 10.953125 3.296875 
Q 6 8.015625 6 15.921875 
Q 6 25.140625 12.171875 29.828125 
Q 18.359375 34.515625 30.609375 34.515625 
L 43.21875 34.515625 
L 43.21875 35.40625 
Q 43.21875 41.609375 39.140625 45 
Q 35.0625 48.390625 27.6875 48.390625 
Q 23 48.390625 18.546875 47.265625 
Q 14.109375 46.140625 10.015625 43.890625 
L 10.015625 52.203125 
Q 14.9375 54.109375 19.578125 55.046875 
Q 24.21875 56 28.609375 56 
Q 40.484375 56 46.34375 49.84375 
Q 52.203125 43.703125 52.203125 31.203125 
z
" id="DejaVuSans-61"/>
    </defs>
    <g transform="translate(206.558689 127.322051)scale(0.12 -0.12)">
     <use xlink:href="#DejaVuSans-4d"/>
     <use x="86.279297" xlink:href="#DejaVuSans-65"/>
     <use x="147.802734" xlink:href="#DejaVuSans-6c"/>
     <use x="175.585938" xlink:href="#DejaVuSans-69"/>
     <use x="203.369141" xlink:href="#DejaVuSans-6e"/>
     <use x="266.748047" xlink:href="#DejaVuSans-64"/>
     <use x="330.224609" xlink:href="#DejaVuSans-61"/>
    </g>
   </g>
   <g id="text_6">
    <!-- pilotit -->
    <defs>
     <path d="M 18.109375 8.203125 
L 18.109375 -20.796875 
L 9.078125 -20.796875 
L 9.078125 54.6875 
L 18.109375 54.6875 
L 18.109375 46.390625 
Q 20.953125 51.265625 25.265625 53.625 
Q 29.59375 56 35.59375 56 
Q 45.5625 56 51.78125 48.09375 
Q 58.015625 40.1875 58.015625 27.296875 
Q 58.015625 14.40625 51.78125 6.484375 
Q 45.5625 -1.421875 35.59375 -1.421875 
Q 29.59375 -1.421875 25.265625 0.953125 
Q 20.953125 3.328125 18.109375 8.203125 
z
M 48.6875 27.296875 
Q 48.6875 37.203125 44.609375 42.84375 
Q 40.53125 48.484375 33.40625 48.484375 
Q 26.265625 48.484375 22.1875 42.84375 
Q 18.109375 37.203125 18.109375 27.296875 
Q 18.109375 17.390625 22.1875 11.75 
Q 26.265625 6.109375 33.40625 6.109375 
Q 40.53125 6.109375 44.609375 11.75 
Q 48.6875 17.390625 48.6875 27.296875 
z
" id="DejaVuSans-70"/>
     <path d="M 30.609375 48.390625 
Q 23.390625 48.390625 19.1875 42.75 
Q 14.984375 37.109375 14.984375 27.296875 
Q 14.984375 17.484375 19.15625 11.84375 
Q 23.34375 6.203125 30.609375 6.203125 
Q 37.796875 6.203125 41.984375 11.859375 
Q 46.1875 17.53125 46.1875 27.296875 
Q 46.1875 37.015625 41.984375 42.703125 
Q 37.796875 48.390625 30.609375 48.390625 
z
M 30.609375 56 
Q 42.328125 56 49.015625 48.375 
Q 55.71875 40.765625 55.71875 27.296875 
Q 55.71875 13.875 49.015625 6.21875 
Q 42.328125 -1.421875 30.609375 -1.421875 
Q 18.84375 -1.421875 12.171875 6.21875 
Q 5.515625 13.875 5.515625 27.296875 
Q 5.515625 40.765625 12.171875 48.375 
Q 18.84375 56 30.609375 56 
z
" id="DejaVuSans-6f"/>
     <path d="M 18.3125 70.21875 
L 18.3125 54.6875 
L 36.8125 54.6875 
L 36.8125 47.703125 
L 18.3125 47.703125 
L 18.3125 18.015625 
Q 18.3125 11.328125 20.140625 9.421875 
Q 21.96875 7.515625 27.59375 7.515625 
L 36.8125 7.515625 
L 36.8125 0 
L 27.59375 0 
Q 17.1875 0 13.234375 3.875 
Q 9.28125 7.765625 9.28125 18.015625 
L 9.28125 47.703125 
L 2.6875 47.703125 
L 2.6875 54.6875 
L 9.28125 54.6875 
L 9.28125 70.21875 
z
" id="DejaVuSans-74"/>
    </defs>
    <g transform="translate(538.806984 236.017148)scale(0.12 -0.12)">
     <use xlink:href="#DejaVuSans-70"/>
     <use x="63.476562" xlink:href="#DejaVuSans-69"/>
     <use x="91.259766" xlink:href="#DejaVuSans-6c"/>
     <use x="119.042969" xlink:href="#DejaVuSans-6f"/>
     <use x="180.224609" xlink:href="#DejaVuSans-74"/>
     <use x="219.433594" xlink:href="#DejaVuSans-69"/>
     <use x="247.216797" xlink:href="#DejaVuSans-74"/>
    </g>
   </g>
   <g id="text_7">
    <!-- Vaski -->
    <defs>
     <path d="M 28.609375 0 
L 0.78125 72.90625 
L 11.078125 72.90625 
L 34.1875 11.53125 
L 57.328125 72.90625 
L 67.578125 72.90625 
L 39.796875 0 
z
" id="DejaVuSans-56"/>
     <path d="M 44.28125 53.078125 
L 44.28125 44.578125 
Q 40.484375 46.53125 36.375 47.5 
Q 32.28125 48.484375 27.875 48.484375 
Q 21.1875 48.484375 17.84375 46.4375 
Q 14.5 44.390625 14.5 40.28125 
Q 14.5 37.15625 16.890625 35.375 
Q 19.28125 33.59375 26.515625 31.984375 
L 29.59375 31.296875 
Q 39.15625 29.25 43.1875 25.515625 
Q 47.21875 21.78125 47.21875 15.09375 
Q 47.21875 7.46875 41.1875 3.015625 
Q 35.15625 -1.421875 24.609375 -1.421875 
Q 20.21875 -1.421875 15.453125 -0.5625 
Q 10.6875 0.296875 5.421875 2 
L 5.421875 11.28125 
Q 10.40625 8.6875 15.234375 7.390625 
Q 20.0625 6.109375 24.8125 6.109375 
Q 31.15625 6.109375 34.5625 8.28125 
Q 37.984375 10.453125 37.984375 14.40625 
Q 37.984375 18.0625 35.515625 20.015625 
Q 33.0625 21.96875 24.703125 23.78125 
L 21.578125 24.515625 
Q 13.234375 26.265625 9.515625 29.90625 
Q 5.8125 33.546875 5.8125 39.890625 
Q 5.8125 47.609375 11.28125 51.796875 
Q 16.75 56 26.8125 56 
Q 31.78125 56 36.171875 55.265625 
Q 40.578125 54.546875 44.28125 53.078125 
z
" id="DejaVuSans-73"/>
     <path d="M 9.078125 75.984375 
L 18.109375 75.984375 
L 18.109375 31.109375 
L 44.921875 54.6875 
L 56.390625 54.6875 
L 27.390625 29.109375 
L 57.625 0 
L 45.90625 0 
L 18.109375 26.703125 
L 18.109375 0 
L 9.078125 0 
z
" id="DejaVuSans-6b"/>
    </defs>
    <g transform="translate(410.349132 594.630581)scale(0.12 -0.12)">
     <use xlink:href="#DejaVuSans-56"/>
     <use x="68.298828" xlink:href="#DejaVuSans-61"/>
     <use x="129.578125" xlink:href="#DejaVuSans-73"/>
     <use x="181.677734" xlink:href="#DejaVuSans-6b"/>
     <use x="239.587891" xlink:href="#DejaVuSans-69"/>
    </g>
   </g>
   <g id="text_8">
    <!-- Pilottien ja Vaskin aineistot Melindassa -->
    <defs>
     <path d="M 19.671875 64.796875 
L 19.671875 37.40625 
L 32.078125 37.40625 
Q 38.96875 37.40625 42.71875 40.96875 
Q 46.484375 44.53125 46.484375 51.125 
Q 46.484375 57.671875 42.71875 61.234375 
Q 38.96875 64.796875 32.078125 64.796875 
z
M 9.8125 72.90625 
L 32.078125 72.90625 
Q 44.34375 72.90625 50.609375 67.359375 
Q 56.890625 61.8125 56.890625 51.125 
Q 56.890625 40.328125 50.609375 34.8125 
Q 44.34375 29.296875 32.078125 29.296875 
L 19.671875 29.296875 
L 19.671875 0 
L 9.8125 0 
z
" id="DejaVuSans-50"/>
     <path id="DejaVuSans-20"/>
     <path d="M 9.421875 54.6875 
L 18.40625 54.6875 
L 18.40625 -0.984375 
Q 18.40625 -11.421875 14.421875 -16.109375 
Q 10.453125 -20.796875 1.609375 -20.796875 
L -1.8125 -20.796875 
L -1.8125 -13.1875 
L 0.59375 -13.1875 
Q 5.71875 -13.1875 7.5625 -10.8125 
Q 9.421875 -8.453125 9.421875 -0.984375 
z
M 9.421875 75.984375 
L 18.40625 75.984375 
L 18.40625 64.59375 
L 9.421875 64.59375 
z
" id="DejaVuSans-6a"/>
    </defs>
    <g transform="translate(228.927375 80.4)scale(0.144 -0.144)">
     <use xlink:href="#DejaVuSans-50"/>
     <use x="60.271484" xlink:href="#DejaVuSans-69"/>
     <use x="88.054688" xlink:href="#DejaVuSans-6c"/>
     <use x="115.837891" xlink:href="#DejaVuSans-6f"/>
     <use x="177.019531" xlink:href="#DejaVuSans-74"/>
     <use x="216.228516" xlink:href="#DejaVuSans-74"/>
     <use x="255.4375" xlink:href="#DejaVuSans-69"/>
     <use x="283.220703" xlink:href="#DejaVuSans-65"/>
     <use x="344.744141" xlink:href="#DejaVuSans-6e"/>
     <use x="408.123047" xlink:href="#DejaVuSans-20"/>
     <use x="439.910156" xlink:href="#DejaVuSans-6a"/>
     <use x="467.693359" xlink:href="#DejaVuSans-61"/>
     <use x="528.972656" xlink:href="#DejaVuSans-20"/>
     <use x="560.759766" xlink:href="#DejaVuSans-56"/>
     <use x="629.058594" xlink:href="#DejaVuSans-61"/>
     <use x="690.337891" xlink:href="#DejaVuSans-73"/>
     <use x="742.4375" xlink:href="#DejaVuSans-6b"/>
     <use x="800.347656" xlink:href="#DejaVuSans-69"/>
     <use x="828.130859" xlink:href="#DejaVuSans-6e"/>
     <use x="891.509766" xlink:href="#DejaVuSans-20"/>
     <use x="923.296875" xlink:href="#DejaVuSans-61"/>
     <use x="984.576172" xlink:href="#DejaVuSans-69"/>
     <use x="1012.359375" xlink:href="#DejaVuSans-6e"/>
     <use x="1075.738281" xlink:href="#DejaVuSans-65"/>
     <use x="1137.261719" xlink:href="#DejaVuSans-69"/>
     <use x="1165.044922" xlink:href="#DejaVuSans-73"/>
     <use x="1217.144531" xlink:href="#DejaVuSans-74"/>
     <use x="1256.353516" xlink:href="#DejaVuSans-6f"/>
     <use x="1317.535156" xlink:href="#DejaVuSans-74"/>
     <use x="1356.744141" xlink:href="#DejaVuSans-20"/>
     <use x="1388.53125" xlink:href="#DejaVuSans-4d"/>
     <use x="1474.810547" xlink:href="#DejaVuSans-65"/>
     <use x="1536.333984" xlink:href="#DejaVuSans-6c"/>
     <use x="1564.117188" xlink:href="#DejaVuSans-69"/>
     <use x="1591.900391" xlink:href="#DejaVuSans-6e"/>
     <use x="1655.279297" xlink:href="#DejaVuSans-64"/>
     <use x="1718.755859" xlink:href="#DejaVuSans-61"/>
     <use x="1780.035156" xlink:href="#DejaVuSans-73"/>
     <use x="1832.134766" xlink:href="#DejaVuSans-73"/>
     <use x="1884.234375" xlink:href="#DejaVuSans-61"/>
    </g>
   </g>
  </g>
 </g>
 <defs>
  <clipPath id="p2b8f2659b0">
   <rect height="543.6" width="543.640922" x="97.179539" y="86.4"/>
  </clipPath>
 </defs>
</svg>
