<?xml version="1.0" encoding="utf-8" standalone="no"?>
<!DOCTYPE svg PUBLIC "-//W3C//DTD SVG 1.1//EN"
  "http://www.w3.org/Graphics/SVG/1.1/DTD/svg11.dtd">
<!-- Created with matplotlib (http://matplotlib.org/) -->
<svg height="720pt" version="1.1" viewBox="0 0 720 720" width="720pt" xmlns="http://www.w3.org/2000/svg" xmlns:xlink="http://www.w3.org/1999/xlink">
 <defs>
  <style type="text/css">
*{stroke-linecap:butt;stroke-linejoin:round;}
  </style>
 </defs>
 <g id="figure_1">
  <g id="patch_1">
   <path d="M 0 720 
L 720 720 
L 720 0 
L 0 0 
z
" style="fill:#ffffff;"/>
  </g>
  <g id="axes_1">
   <g id="patch_2">
    <path clip-path="url(#pcb6c065534)" d="M 529.507332 291.393083 
C 522.071174 269.689654 511.063274 249.379302 496.93838 231.301065 
C 482.813486 213.222829 465.768818 197.629126 446.508506 185.164149 
C 427.248194 172.699172 406.041162 163.536962 383.763493 158.05602 
C 361.485824 152.575078 338.44857 150.851932 315.603423 152.957766 
C 292.758277 155.0636 270.424213 160.969011 249.523874 170.430041 
C 228.623535 179.891072 209.448743 192.775621 192.791626 208.551417 
C 176.134509 224.327213 162.227644 242.773984 151.645536 263.129678 
C 141.063428 283.485372 133.953831 305.46577 130.610449 328.162842 
C 127.267066 350.859913 127.736581 373.956749 131.999596 396.499197 
C 136.262611 419.041646 144.259605 440.714956 155.660213 460.623783 
C 167.060822 480.53261 181.705864 498.398976 198.990338 513.484804 
C 216.274812 528.570632 235.957384 540.665286 257.224947 549.269124 
C 278.492511 557.872962 301.048116 562.865852 323.959969 564.041533 
C 346.871823 565.217215 369.820017 562.559272 391.856541 556.177508 
C 413.893064 549.795743 434.710229 539.779262 453.448061 526.541855 
C 472.185892 513.304449 488.582762 497.030944 501.961298 478.393615 
C 494.397751 473.852177 487.814374 467.848844 482.596546 460.735041 
C 477.378718 453.621238 473.630279 445.538537 471.570657 436.960083 
C 469.511034 428.381628 469.181216 419.478142 470.600508 410.770816 
C 472.019801 402.06349 475.15996 393.725609 479.837166 386.245257 
C 475.574213 376.844577 473.510237 366.594502 473.802606 356.276553 
C 474.094975 345.958604 476.736065 335.841852 481.524505 326.697652 
C 486.312945 317.553452 493.123862 309.620266 501.437956 303.502963 
C 509.752049 297.38566 519.352505 293.243767 529.507332 291.393083 
" style="fill:#ff0000;opacity:0.4;"/>
   </g>
   <g id="patch_3">
    <path clip-path="url(#pcb6c065534)" d="M 529.507332 291.393083 
C 533.022017 301.651164 535.721718 312.170627 537.581285 322.853475 
C 539.440851 333.536323 540.454491 344.34928 540.612761 355.191613 
C 553.053869 356.029647 565.01104 360.35474 575.10939 367.669574 
C 585.20774 374.984408 593.044794 384.997447 597.719416 396.557352 
C 605.288943 385.498933 609.418294 372.443419 609.584746 359.043469 
C 609.751198 345.643518 605.947418 332.48946 598.654916 321.246428 
C 591.362413 310.003395 580.902456 301.166694 568.599139 295.854937 
C 556.295822 290.54318 542.691162 288.990374 529.507332 291.393083 
" style="fill:#008000;opacity:0.4;"/>
   </g>
   <g id="patch_4">
    <path clip-path="url(#pcb6c065534)" d="M 529.507332 291.393083 
C 519.352505 293.243767 509.752049 297.38566 501.437956 303.502963 
C 493.123862 309.620266 486.312945 317.553452 481.524505 326.697652 
C 476.736065 335.841852 474.094975 345.958604 473.802606 356.276553 
C 473.510237 366.594502 475.574213 376.844577 479.837166 386.245257 
C 486.208819 376.05494 495.228641 367.78274 505.930862 362.314378 
C 516.633083 356.846017 528.621594 354.383886 540.612761 355.191613 
C 540.454491 344.34928 539.440851 333.536323 537.581285 322.853475 
C 535.721718 312.170627 533.022017 301.651164 529.507332 291.393083 
" style="fill:#b25900;opacity:0.4;"/>
   </g>
   <g id="patch_5">
    <path clip-path="url(#pcb6c065534)" d="M 501.961298 478.393615 
C 513.898798 485.561339 527.793433 488.796568 541.669338 487.639242 
C 555.545244 486.481916 568.711956 480.989624 579.297123 471.943388 
C 589.882291 462.897151 597.359196 450.747111 600.664598 437.221045 
C 603.97 423.694979 602.939422 409.465941 597.719416 396.557352 
C 590.312017 407.378915 579.926114 415.826539 567.822682 420.87458 
C 555.71925 425.92262 542.408783 427.358164 529.507332 425.006917 
C 526.248982 434.51685 522.299256 443.775676 517.689791 452.709236 
C 513.080325 461.642796 507.823459 470.227175 501.961298 478.393615 
" style="fill:#0000ff;opacity:0.4;"/>
   </g>
   <g id="patch_6">
    <path clip-path="url(#pcb6c065534)" d="M 501.961298 478.393615 
C 507.823459 470.227175 513.080325 461.642796 517.689791 452.709236 
C 522.299256 443.775676 526.248982 434.51685 529.507332 425.006917 
C 518.713086 423.039701 508.554712 418.48538 499.904831 411.735176 
C 491.254951 404.984972 484.368544 396.237869 479.837166 386.245257 
C 475.15996 393.725609 472.019801 402.06349 470.600508 410.770816 
C 469.181216 419.478142 469.511034 428.381628 471.570657 436.960083 
C 473.630279 445.538537 477.378718 453.621238 482.596546 460.735041 
C 487.814374 467.848844 494.397751 473.852177 501.961298 478.393615 
" style="fill:#b200b2;opacity:0.4;"/>
   </g>
   <g id="patch_7">
    <path clip-path="url(#pcb6c065534)" d="M 540.612761 355.191613 
C 540.785693 367.038377 539.936816 378.878022 538.075567 390.57894 
C 536.214317 402.279857 533.347617 413.79853 529.507332 425.006917 
C 542.408783 427.358164 555.71925 425.92262 567.822682 420.87458 
C 579.926114 415.826539 590.312017 407.378915 597.719416 396.557352 
C 593.044794 384.997447 585.20774 374.984408 575.10939 367.669574 
C 565.01104 360.35474 553.053869 356.029647 540.612761 355.191613 
" style="fill:#0059b2;opacity:0.4;"/>
   </g>
   <g id="patch_8">
    <path clip-path="url(#pcb6c065534)" d="M 479.837166 386.245257 
C 484.368544 396.237869 491.254951 404.984972 499.904831 411.735176 
C 508.554712 418.48538 518.713086 423.039701 529.507332 425.006917 
C 533.347617 413.79853 536.214317 402.279857 538.075567 390.57894 
C 539.936816 378.878022 540.785693 367.038377 540.612761 355.191613 
C 528.621594 354.383886 516.633083 356.846017 505.930862 362.314378 
C 495.228641 367.78274 486.208819 376.05494 479.837166 386.245257 
" style="fill:#663366;opacity:0.4;"/>
   </g>
   <g id="patch_9">
    <path clip-path="url(#pcb6c065534)" d="M 334.522366 564.312351 
C 389.184001 564.312351 441.614195 542.595053 480.265807 503.943441 
C 518.91742 465.291829 540.634717 412.861634 540.634717 358.2 
C 540.634717 303.538366 518.91742 251.108171 480.265807 212.456559 
C 441.614195 173.804947 389.184001 152.087649 334.522366 152.087649 
C 279.860732 152.087649 227.430538 173.804947 188.778926 212.456559 
C 150.127313 251.108171 128.410016 303.538366 128.410016 358.2 
C 128.410016 412.861634 150.127313 465.291829 188.778926 503.943441 
C 227.430538 542.595053 279.860732 564.312351 334.522366 564.312351 
z
" style="fill:none;stroke:#000000;stroke-dasharray:2,3.3;stroke-dashoffset:0;stroke-linejoin:miter;stroke-width:2;"/>
   </g>
   <g id="patch_10">
    <path clip-path="url(#pcb6c065534)" d="M 541.682672 426.107312 
C 559.691902 426.107312 576.965945 418.952169 589.700393 406.217721 
C 602.434841 393.483272 609.589984 376.20923 609.589984 358.2 
C 609.589984 340.19077 602.434841 322.916728 589.700393 310.182279 
C 576.965945 297.447831 559.691902 290.292688 541.682672 290.292688 
C 523.673442 290.292688 506.3994 297.447831 493.664951 310.182279 
C 480.930503 322.916728 473.77536 340.19077 473.77536 358.2 
C 473.77536 376.20923 480.930503 393.483272 493.664951 406.217721 
C 506.3994 418.952169 523.673442 426.107312 541.682672 426.107312 
z
" style="fill:none;stroke:#000000;stroke-dasharray:7.4,3.2;stroke-dashoffset:0;stroke-linejoin:miter;stroke-width:2;"/>
   </g>
   <g id="patch_11">
    <path clip-path="url(#pcb6c065534)" d="M 536.149234 487.869046 
C 553.762379 487.869046 570.656506 480.87127 583.110881 468.416895 
C 595.565255 455.962521 602.563032 439.068394 602.563032 421.455249 
C 602.563032 403.842104 595.565255 386.947976 583.110881 374.493602 
C 570.656506 362.039228 553.762379 355.041451 536.149234 355.041451 
C 518.536089 355.041451 501.641962 362.039228 489.187587 374.493602 
C 476.733213 386.947976 469.735436 403.842104 469.735436 421.455249 
C 469.735436 439.068394 476.733213 455.962521 489.187587 468.416895 
C 501.641962 480.87127 518.536089 487.869046 536.149234 487.869046 
z
" style="fill:none;stroke:#000000;stroke-linejoin:miter;"/>
   </g>
   <g id="text_1">
    <!-- 5585935 -->
    <defs>
     <path d="M 10.796875 72.90625 
L 49.515625 72.90625 
L 49.515625 64.59375 
L 19.828125 64.59375 
L 19.828125 46.734375 
Q 21.96875 47.46875 24.109375 47.828125 
Q 26.265625 48.1875 28.421875 48.1875 
Q 40.625 48.1875 47.75 41.5 
Q 54.890625 34.8125 54.890625 23.390625 
Q 54.890625 11.625 47.5625 5.09375 
Q 40.234375 -1.421875 26.90625 -1.421875 
Q 22.3125 -1.421875 17.546875 -0.640625 
Q 12.796875 0.140625 7.71875 1.703125 
L 7.71875 11.625 
Q 12.109375 9.234375 16.796875 8.0625 
Q 21.484375 6.890625 26.703125 6.890625 
Q 35.15625 6.890625 40.078125 11.328125 
Q 45.015625 15.765625 45.015625 23.390625 
Q 45.015625 31 40.078125 35.4375 
Q 35.15625 39.890625 26.703125 39.890625 
Q 22.75 39.890625 18.8125 39.015625 
Q 14.890625 38.140625 10.796875 36.28125 
z
" id="DejaVuSans-35"/>
     <path d="M 31.78125 34.625 
Q 24.75 34.625 20.71875 30.859375 
Q 16.703125 27.09375 16.703125 20.515625 
Q 16.703125 13.921875 20.71875 10.15625 
Q 24.75 6.390625 31.78125 6.390625 
Q 38.8125 6.390625 42.859375 10.171875 
Q 46.921875 13.96875 46.921875 20.515625 
Q 46.921875 27.09375 42.890625 30.859375 
Q 38.875 34.625 31.78125 34.625 
z
M 21.921875 38.8125 
Q 15.578125 40.375 12.03125 44.71875 
Q 8.5 49.078125 8.5 55.328125 
Q 8.5 64.0625 14.71875 69.140625 
Q 20.953125 74.21875 31.78125 74.21875 
Q 42.671875 74.21875 48.875 69.140625 
Q 55.078125 64.0625 55.078125 55.328125 
Q 55.078125 49.078125 51.53125 44.71875 
Q 48 40.375 41.703125 38.8125 
Q 48.828125 37.15625 52.796875 32.3125 
Q 56.78125 27.484375 56.78125 20.515625 
Q 56.78125 9.90625 50.3125 4.234375 
Q 43.84375 -1.421875 31.78125 -1.421875 
Q 19.734375 -1.421875 13.25 4.234375 
Q 6.78125 9.90625 6.78125 20.515625 
Q 6.78125 27.484375 10.78125 32.3125 
Q 14.796875 37.15625 21.921875 38.8125 
z
M 18.3125 54.390625 
Q 18.3125 48.734375 21.84375 45.5625 
Q 25.390625 42.390625 31.78125 42.390625 
Q 38.140625 42.390625 41.71875 45.5625 
Q 45.3125 48.734375 45.3125 54.390625 
Q 45.3125 60.0625 41.71875 63.234375 
Q 38.140625 66.40625 31.78125 66.40625 
Q 25.390625 66.40625 21.84375 63.234375 
Q 18.3125 60.0625 18.3125 54.390625 
z
" id="DejaVuSans-38"/>
     <path d="M 10.984375 1.515625 
L 10.984375 10.5 
Q 14.703125 8.734375 18.5 7.8125 
Q 22.3125 6.890625 25.984375 6.890625 
Q 35.75 6.890625 40.890625 13.453125 
Q 46.046875 20.015625 46.78125 33.40625 
Q 43.953125 29.203125 39.59375 26.953125 
Q 35.25 24.703125 29.984375 24.703125 
Q 19.046875 24.703125 12.671875 31.3125 
Q 6.296875 37.9375 6.296875 49.421875 
Q 6.296875 60.640625 12.9375 67.421875 
Q 19.578125 74.21875 30.609375 74.21875 
Q 43.265625 74.21875 49.921875 64.515625 
Q 56.59375 54.828125 56.59375 36.375 
Q 56.59375 19.140625 48.40625 8.859375 
Q 40.234375 -1.421875 26.421875 -1.421875 
Q 22.703125 -1.421875 18.890625 -0.6875 
Q 15.09375 0.046875 10.984375 1.515625 
z
M 30.609375 32.421875 
Q 37.25 32.421875 41.125 36.953125 
Q 45.015625 41.5 45.015625 49.421875 
Q 45.015625 57.28125 41.125 61.84375 
Q 37.25 66.40625 30.609375 66.40625 
Q 23.96875 66.40625 20.09375 61.84375 
Q 16.21875 57.28125 16.21875 49.421875 
Q 16.21875 41.5 20.09375 36.953125 
Q 23.96875 32.421875 30.609375 32.421875 
z
" id="DejaVuSans-39"/>
     <path d="M 40.578125 39.3125 
Q 47.65625 37.796875 51.625 33 
Q 55.609375 28.21875 55.609375 21.1875 
Q 55.609375 10.40625 48.1875 4.484375 
Q 40.765625 -1.421875 27.09375 -1.421875 
Q 22.515625 -1.421875 17.65625 -0.515625 
Q 12.796875 0.390625 7.625 2.203125 
L 7.625 11.71875 
Q 11.71875 9.328125 16.59375 8.109375 
Q 21.484375 6.890625 26.8125 6.890625 
Q 36.078125 6.890625 40.9375 10.546875 
Q 45.796875 14.203125 45.796875 21.1875 
Q 45.796875 27.640625 41.28125 31.265625 
Q 36.765625 34.90625 28.71875 34.90625 
L 20.21875 34.90625 
L 20.21875 43.015625 
L 29.109375 43.015625 
Q 36.375 43.015625 40.234375 45.921875 
Q 44.09375 48.828125 44.09375 54.296875 
Q 44.09375 59.90625 40.109375 62.90625 
Q 36.140625 65.921875 28.71875 65.921875 
Q 24.65625 65.921875 20.015625 65.03125 
Q 15.375 64.15625 9.8125 62.3125 
L 9.8125 71.09375 
Q 15.4375 72.65625 20.34375 73.4375 
Q 25.25 74.21875 29.59375 74.21875 
Q 40.828125 74.21875 47.359375 69.109375 
Q 53.90625 64.015625 53.90625 55.328125 
Q 53.90625 49.265625 50.4375 45.09375 
Q 46.96875 40.921875 40.578125 39.3125 
z
" id="DejaVuSans-33"/>
    </defs>
    <g transform="translate(243.3164 350.40578)scale(0.1 -0.1)">
     <use xlink:href="#DejaVuSans-35"/>
     <use x="63.623047" xlink:href="#DejaVuSans-35"/>
     <use x="127.246094" xlink:href="#DejaVuSans-38"/>
     <use x="190.869141" xlink:href="#DejaVuSans-35"/>
     <use x="254.492188" xlink:href="#DejaVuSans-39"/>
     <use x="318.115234" xlink:href="#DejaVuSans-33"/>
     <use x="381.738281" xlink:href="#DejaVuSans-35"/>
    </g>
   </g>
   <g id="text_2">
    <!-- 267339 -->
    <defs>
     <path d="M 19.1875 8.296875 
L 53.609375 8.296875 
L 53.609375 0 
L 7.328125 0 
L 7.328125 8.296875 
Q 12.9375 14.109375 22.625 23.890625 
Q 32.328125 33.6875 34.8125 36.53125 
Q 39.546875 41.84375 41.421875 45.53125 
Q 43.3125 49.21875 43.3125 52.78125 
Q 43.3125 58.59375 39.234375 62.25 
Q 35.15625 65.921875 28.609375 65.921875 
Q 23.96875 65.921875 18.8125 64.3125 
Q 13.671875 62.703125 7.8125 59.421875 
L 7.8125 69.390625 
Q 13.765625 71.78125 18.9375 73 
Q 24.125 74.21875 28.421875 74.21875 
Q 39.75 74.21875 46.484375 68.546875 
Q 53.21875 62.890625 53.21875 53.421875 
Q 53.21875 48.921875 51.53125 44.890625 
Q 49.859375 40.875 45.40625 35.40625 
Q 44.1875 33.984375 37.640625 27.21875 
Q 31.109375 20.453125 19.1875 8.296875 
z
" id="DejaVuSans-32"/>
     <path d="M 33.015625 40.375 
Q 26.375 40.375 22.484375 35.828125 
Q 18.609375 31.296875 18.609375 23.390625 
Q 18.609375 15.53125 22.484375 10.953125 
Q 26.375 6.390625 33.015625 6.390625 
Q 39.65625 6.390625 43.53125 10.953125 
Q 47.40625 15.53125 47.40625 23.390625 
Q 47.40625 31.296875 43.53125 35.828125 
Q 39.65625 40.375 33.015625 40.375 
z
M 52.59375 71.296875 
L 52.59375 62.3125 
Q 48.875 64.0625 45.09375 64.984375 
Q 41.3125 65.921875 37.59375 65.921875 
Q 27.828125 65.921875 22.671875 59.328125 
Q 17.53125 52.734375 16.796875 39.40625 
Q 19.671875 43.65625 24.015625 45.921875 
Q 28.375 48.1875 33.59375 48.1875 
Q 44.578125 48.1875 50.953125 41.515625 
Q 57.328125 34.859375 57.328125 23.390625 
Q 57.328125 12.15625 50.6875 5.359375 
Q 44.046875 -1.421875 33.015625 -1.421875 
Q 20.359375 -1.421875 13.671875 8.265625 
Q 6.984375 17.96875 6.984375 36.375 
Q 6.984375 53.65625 15.1875 63.9375 
Q 23.390625 74.21875 37.203125 74.21875 
Q 40.921875 74.21875 44.703125 73.484375 
Q 48.484375 72.75 52.59375 71.296875 
z
" id="DejaVuSans-36"/>
     <path d="M 8.203125 72.90625 
L 55.078125 72.90625 
L 55.078125 68.703125 
L 28.609375 0 
L 18.3125 0 
L 43.21875 64.59375 
L 8.203125 64.59375 
z
" id="DejaVuSans-37"/>
    </defs>
    <g transform="translate(567.517468 337.863597)scale(0.1 -0.1)">
     <use xlink:href="#DejaVuSans-32"/>
     <use x="63.623047" xlink:href="#DejaVuSans-36"/>
     <use x="127.246094" xlink:href="#DejaVuSans-37"/>
     <use x="190.869141" xlink:href="#DejaVuSans-33"/>
     <use x="254.492188" xlink:href="#DejaVuSans-33"/>
     <use x="318.115234" xlink:href="#DejaVuSans-39"/>
    </g>
   </g>
   <g id="text_3">
    <!-- 112802 -->
    <defs>
     <path d="M 12.40625 8.296875 
L 28.515625 8.296875 
L 28.515625 63.921875 
L 10.984375 60.40625 
L 10.984375 69.390625 
L 28.421875 72.90625 
L 38.28125 72.90625 
L 38.28125 8.296875 
L 54.390625 8.296875 
L 54.390625 0 
L 12.40625 0 
z
" id="DejaVuSans-31"/>
     <path d="M 31.78125 66.40625 
Q 24.171875 66.40625 20.328125 58.90625 
Q 16.5 51.421875 16.5 36.375 
Q 16.5 21.390625 20.328125 13.890625 
Q 24.171875 6.390625 31.78125 6.390625 
Q 39.453125 6.390625 43.28125 13.890625 
Q 47.125 21.390625 47.125 36.375 
Q 47.125 51.421875 43.28125 58.90625 
Q 39.453125 66.40625 31.78125 66.40625 
z
M 31.78125 74.21875 
Q 44.046875 74.21875 50.515625 64.515625 
Q 56.984375 54.828125 56.984375 36.375 
Q 56.984375 17.96875 50.515625 8.265625 
Q 44.046875 -1.421875 31.78125 -1.421875 
Q 19.53125 -1.421875 13.0625 8.265625 
Q 6.59375 17.96875 6.59375 36.375 
Q 6.59375 54.828125 13.0625 64.515625 
Q 19.53125 74.21875 31.78125 74.21875 
z
" id="DejaVuSans-30"/>
    </defs>
    <g transform="translate(476.148048 341.05054)scale(0.1 -0.1)">
     <use xlink:href="#DejaVuSans-31"/>
     <use x="63.623047" xlink:href="#DejaVuSans-31"/>
     <use x="127.246094" xlink:href="#DejaVuSans-32"/>
     <use x="190.869141" xlink:href="#DejaVuSans-38"/>
     <use x="254.492188" xlink:href="#DejaVuSans-30"/>
     <use x="318.115234" xlink:href="#DejaVuSans-32"/>
    </g>
   </g>
   <g id="text_4">
    <!-- 275785 -->
    <g transform="translate(552.282646 458.354805)scale(0.1 -0.1)">
     <use xlink:href="#DejaVuSans-32"/>
     <use x="63.623047" xlink:href="#DejaVuSans-37"/>
     <use x="127.246094" xlink:href="#DejaVuSans-35"/>
     <use x="190.869141" xlink:href="#DejaVuSans-37"/>
     <use x="254.492188" xlink:href="#DejaVuSans-38"/>
     <use x="318.115234" xlink:href="#DejaVuSans-35"/>
    </g>
   </g>
   <g id="text_5">
    <!-- 76228 -->
    <g transform="translate(470.008964 432.787257)scale(0.1 -0.1)">
     <use xlink:href="#DejaVuSans-37"/>
     <use x="63.623047" xlink:href="#DejaVuSans-36"/>
     <use x="127.246094" xlink:href="#DejaVuSans-32"/>
     <use x="190.869141" xlink:href="#DejaVuSans-32"/>
     <use x="254.492188" xlink:href="#DejaVuSans-38"/>
    </g>
   </g>
   <g id="text_6">
    <!-- 84870 -->
    <defs>
     <path d="M 37.796875 64.3125 
L 12.890625 25.390625 
L 37.796875 25.390625 
z
M 35.203125 72.90625 
L 47.609375 72.90625 
L 47.609375 25.390625 
L 58.015625 25.390625 
L 58.015625 17.1875 
L 47.609375 17.1875 
L 47.609375 0 
L 37.796875 0 
L 37.796875 17.1875 
L 4.890625 17.1875 
L 4.890625 26.703125 
z
" id="DejaVuSans-34"/>
    </defs>
    <g transform="translate(551.114169 396.865655)scale(0.1 -0.1)">
     <use xlink:href="#DejaVuSans-38"/>
     <use x="63.623047" xlink:href="#DejaVuSans-34"/>
     <use x="127.246094" xlink:href="#DejaVuSans-38"/>
     <use x="190.869141" xlink:href="#DejaVuSans-37"/>
     <use x="254.492188" xlink:href="#DejaVuSans-30"/>
    </g>
   </g>
   <g id="text_7">
    <!-- 181563 -->
    <g transform="translate(489.047872 389.112818)scale(0.1 -0.1)">
     <use xlink:href="#DejaVuSans-31"/>
     <use x="63.623047" xlink:href="#DejaVuSans-38"/>
     <use x="127.246094" xlink:href="#DejaVuSans-31"/>
     <use x="190.869141" xlink:href="#DejaVuSans-35"/>
     <use x="254.492188" xlink:href="#DejaVuSans-36"/>
     <use x="318.115234" xlink:href="#DejaVuSans-33"/>
    </g>
   </g>
   <g id="text_8">
    <!-- Melinda -->
    <defs>
     <path d="M 9.8125 72.90625 
L 24.515625 72.90625 
L 43.109375 23.296875 
L 61.8125 72.90625 
L 76.515625 72.90625 
L 76.515625 0 
L 66.890625 0 
L 66.890625 64.015625 
L 48.09375 14.015625 
L 38.1875 14.015625 
L 19.390625 64.015625 
L 19.390625 0 
L 9.8125 0 
z
" id="DejaVuSans-4d"/>
     <path d="M 56.203125 29.59375 
L 56.203125 25.203125 
L 14.890625 25.203125 
Q 15.484375 15.921875 20.484375 11.0625 
Q 25.484375 6.203125 34.421875 6.203125 
Q 39.59375 6.203125 44.453125 7.46875 
Q 49.3125 8.734375 54.109375 11.28125 
L 54.109375 2.78125 
Q 49.265625 0.734375 44.1875 -0.34375 
Q 39.109375 -1.421875 33.890625 -1.421875 
Q 20.796875 -1.421875 13.15625 6.1875 
Q 5.515625 13.8125 5.515625 26.8125 
Q 5.515625 40.234375 12.765625 48.109375 
Q 20.015625 56 32.328125 56 
Q 43.359375 56 49.78125 48.890625 
Q 56.203125 41.796875 56.203125 29.59375 
z
M 47.21875 32.234375 
Q 47.125 39.59375 43.09375 43.984375 
Q 39.0625 48.390625 32.421875 48.390625 
Q 24.90625 48.390625 20.390625 44.140625 
Q 15.875 39.890625 15.1875 32.171875 
z
" id="DejaVuSans-65"/>
     <path d="M 9.421875 75.984375 
L 18.40625 75.984375 
L 18.40625 0 
L 9.421875 0 
z
" id="DejaVuSans-6c"/>
     <path d="M 9.421875 54.6875 
L 18.40625 54.6875 
L 18.40625 0 
L 9.421875 0 
z
M 9.421875 75.984375 
L 18.40625 75.984375 
L 18.40625 64.59375 
L 9.421875 64.59375 
z
" id="DejaVuSans-69"/>
     <path d="M 54.890625 33.015625 
L 54.890625 0 
L 45.90625 0 
L 45.90625 32.71875 
Q 45.90625 40.484375 42.875 44.328125 
Q 39.84375 48.1875 33.796875 48.1875 
Q 26.515625 48.1875 22.3125 43.546875 
Q 18.109375 38.921875 18.109375 30.90625 
L 18.109375 0 
L 9.078125 0 
L 9.078125 54.6875 
L 18.109375 54.6875 
L 18.109375 46.1875 
Q 21.34375 51.125 25.703125 53.5625 
Q 30.078125 56 35.796875 56 
Q 45.21875 56 50.046875 50.171875 
Q 54.890625 44.34375 54.890625 33.015625 
z
" id="DejaVuSans-6e"/>
     <path d="M 45.40625 46.390625 
L 45.40625 75.984375 
L 54.390625 75.984375 
L 54.390625 0 
L 45.40625 0 
L 45.40625 8.203125 
Q 42.578125 3.328125 38.25 0.953125 
Q 33.9375 -1.421875 27.875 -1.421875 
Q 17.96875 -1.421875 11.734375 6.484375 
Q 5.515625 14.40625 5.515625 27.296875 
Q 5.515625 40.1875 11.734375 48.09375 
Q 17.96875 56 27.875 56 
Q 33.9375 56 38.25 53.625 
Q 42.578125 51.265625 45.40625 46.390625 
z
M 14.796875 27.296875 
Q 14.796875 17.390625 18.875 11.75 
Q 22.953125 6.109375 30.078125 6.109375 
Q 37.203125 6.109375 41.296875 11.75 
Q 45.40625 17.390625 45.40625 27.296875 
Q 45.40625 37.203125 41.296875 42.84375 
Q 37.203125 48.484375 30.078125 48.484375 
Q 22.953125 48.484375 18.875 42.84375 
Q 14.796875 37.203125 14.796875 27.296875 
z
" id="DejaVuSans-64"/>
     <path d="M 34.28125 27.484375 
Q 23.390625 27.484375 19.1875 25 
Q 14.984375 22.515625 14.984375 16.5 
Q 14.984375 11.71875 18.140625 8.90625 
Q 21.296875 6.109375 26.703125 6.109375 
Q 34.1875 6.109375 38.703125 11.40625 
Q 43.21875 16.703125 43.21875 25.484375 
L 43.21875 27.484375 
z
M 52.203125 31.203125 
L 52.203125 0 
L 43.21875 0 
L 43.21875 8.296875 
Q 40.140625 3.328125 35.546875 0.953125 
Q 30.953125 -1.421875 24.3125 -1.421875 
Q 15.921875 -1.421875 10.953125 3.296875 
Q 6 8.015625 6 15.921875 
Q 6 25.140625 12.171875 29.828125 
Q 18.359375 34.515625 30.609375 34.515625 
L 43.21875 34.515625 
L 43.21875 35.40625 
Q 43.21875 41.609375 39.140625 45 
Q 35.0625 48.390625 27.6875 48.390625 
Q 23 48.390625 18.546875 47.265625 
Q 14.109375 46.140625 10.015625 43.890625 
L 10.015625 52.203125 
Q 14.9375 54.109375 19.578125 55.046875 
Q 24.21875 56 28.609375 56 
Q 40.484375 56 46.34375 49.84375 
Q 52.203125 43.703125 52.203125 31.203125 
z
" id="DejaVuSans-61"/>
    </defs>
    <g transform="translate(184.484316 152.087649)scale(0.12 -0.12)">
     <use xlink:href="#DejaVuSans-4d"/>
     <use x="86.279297" xlink:href="#DejaVuSans-65"/>
     <use x="147.802734" xlink:href="#DejaVuSans-6c"/>
     <use x="175.585938" xlink:href="#DejaVuSans-69"/>
     <use x="203.369141" xlink:href="#DejaVuSans-6e"/>
     <use x="266.748047" xlink:href="#DejaVuSans-64"/>
     <use x="330.224609" xlink:href="#DejaVuSans-61"/>
    </g>
   </g>
   <g id="text_9">
    <!-- pilotit -->
    <defs>
     <path d="M 18.109375 8.203125 
L 18.109375 -20.796875 
L 9.078125 -20.796875 
L 9.078125 54.6875 
L 18.109375 54.6875 
L 18.109375 46.390625 
Q 20.953125 51.265625 25.265625 53.625 
Q 29.59375 56 35.59375 56 
Q 45.5625 56 51.78125 48.09375 
Q 58.015625 40.1875 58.015625 27.296875 
Q 58.015625 14.40625 51.78125 6.484375 
Q 45.5625 -1.421875 35.59375 -1.421875 
Q 29.59375 -1.421875 25.265625 0.953125 
Q 20.953125 3.328125 18.109375 8.203125 
z
M 48.6875 27.296875 
Q 48.6875 37.203125 44.609375 42.84375 
Q 40.53125 48.484375 33.40625 48.484375 
Q 26.265625 48.484375 22.1875 42.84375 
Q 18.109375 37.203125 18.109375 27.296875 
Q 18.109375 17.390625 22.1875 11.75 
Q 26.265625 6.109375 33.40625 6.109375 
Q 40.53125 6.109375 44.609375 11.75 
Q 48.6875 17.390625 48.6875 27.296875 
z
" id="DejaVuSans-70"/>
     <path d="M 30.609375 48.390625 
Q 23.390625 48.390625 19.1875 42.75 
Q 14.984375 37.109375 14.984375 27.296875 
Q 14.984375 17.484375 19.15625 11.84375 
Q 23.34375 6.203125 30.609375 6.203125 
Q 37.796875 6.203125 41.984375 11.859375 
Q 46.1875 17.53125 46.1875 27.296875 
Q 46.1875 37.015625 41.984375 42.703125 
Q 37.796875 48.390625 30.609375 48.390625 
z
M 30.609375 56 
Q 42.328125 56 49.015625 48.375 
Q 55.71875 40.765625 55.71875 27.296875 
Q 55.71875 13.875 49.015625 6.21875 
Q 42.328125 -1.421875 30.609375 -1.421875 
Q 18.84375 -1.421875 12.171875 6.21875 
Q 5.515625 13.875 5.515625 27.296875 
Q 5.515625 40.765625 12.171875 48.375 
Q 18.84375 56 30.609375 56 
z
" id="DejaVuSans-6f"/>
     <path d="M 18.3125 70.21875 
L 18.3125 54.6875 
L 36.8125 54.6875 
L 36.8125 47.703125 
L 18.3125 47.703125 
L 18.3125 18.015625 
Q 18.3125 11.328125 20.140625 9.421875 
Q 21.96875 7.515625 27.59375 7.515625 
L 36.8125 7.515625 
L 36.8125 0 
L 27.59375 0 
Q 17.1875 0 13.234375 3.875 
Q 9.28125 7.765625 9.28125 18.015625 
L 9.28125 47.703125 
L 2.6875 47.703125 
L 2.6875 54.6875 
L 9.28125 54.6875 
L 9.28125 70.21875 
z
" id="DejaVuSans-74"/>
    </defs>
    <g transform="translate(575.636328 290.292688)scale(0.12 -0.12)">
     <use xlink:href="#DejaVuSans-70"/>
     <use x="63.476562" xlink:href="#DejaVuSans-69"/>
     <use x="91.259766" xlink:href="#DejaVuSans-6c"/>
     <use x="119.042969" xlink:href="#DejaVuSans-6f"/>
     <use x="180.224609" xlink:href="#DejaVuSans-74"/>
     <use x="219.433594" xlink:href="#DejaVuSans-69"/>
     <use x="247.216797" xlink:href="#DejaVuSans-74"/>
    </g>
   </g>
   <g id="text_10">
    <!-- Vaski -->
    <defs>
     <path d="M 28.609375 0 
L 0.78125 72.90625 
L 11.078125 72.90625 
L 34.1875 11.53125 
L 57.328125 72.90625 
L 67.578125 72.90625 
L 39.796875 0 
z
" id="DejaVuSans-56"/>
     <path d="M 44.28125 53.078125 
L 44.28125 44.578125 
Q 40.484375 46.53125 36.375 47.5 
Q 32.28125 48.484375 27.875 48.484375 
Q 21.1875 48.484375 17.84375 46.4375 
Q 14.5 44.390625 14.5 40.28125 
Q 14.5 37.15625 16.890625 35.375 
Q 19.28125 33.59375 26.515625 31.984375 
L 29.59375 31.296875 
Q 39.15625 29.25 43.1875 25.515625 
Q 47.21875 21.78125 47.21875 15.09375 
Q 47.21875 7.46875 41.1875 3.015625 
Q 35.15625 -1.421875 24.609375 -1.421875 
Q 20.21875 -1.421875 15.453125 -0.5625 
Q 10.6875 0.296875 5.421875 2 
L 5.421875 11.28125 
Q 10.40625 8.6875 15.234375 7.390625 
Q 20.0625 6.109375 24.8125 6.109375 
Q 31.15625 6.109375 34.5625 8.28125 
Q 37.984375 10.453125 37.984375 14.40625 
Q 37.984375 18.0625 35.515625 20.015625 
Q 33.0625 21.96875 24.703125 23.78125 
L 21.578125 24.515625 
Q 13.234375 26.265625 9.515625 29.90625 
Q 5.8125 33.546875 5.8125 39.890625 
Q 5.8125 47.609375 11.28125 51.796875 
Q 16.75 56 26.8125 56 
Q 31.78125 56 36.171875 55.265625 
Q 40.578125 54.546875 44.28125 53.078125 
z
" id="DejaVuSans-73"/>
     <path d="M 9.078125 75.984375 
L 18.109375 75.984375 
L 18.109375 31.109375 
L 44.921875 54.6875 
L 56.390625 54.6875 
L 27.390625 29.109375 
L 57.625 0 
L 45.90625 0 
L 18.109375 26.703125 
L 18.109375 0 
L 9.078125 0 
z
" id="DejaVuSans-6b"/>
    </defs>
    <g transform="translate(520.107672 503.628551)scale(0.12 -0.12)">
     <use xlink:href="#DejaVuSans-56"/>
     <use x="68.298828" xlink:href="#DejaVuSans-61"/>
     <use x="129.578125" xlink:href="#DejaVuSans-73"/>
     <use x="181.677734" xlink:href="#DejaVuSans-6b"/>
     <use x="239.587891" xlink:href="#DejaVuSans-69"/>
    </g>
   </g>
   <g id="text_11">
    <!-- Pilottien ja Vaskin aineistojen yhdistyminen Melindaan, osakohteettomat ja emotietueet -->
    <defs>
     <path d="M 19.671875 64.796875 
L 19.671875 37.40625 
L 32.078125 37.40625 
Q 38.96875 37.40625 42.71875 40.96875 
Q 46.484375 44.53125 46.484375 51.125 
Q 46.484375 57.671875 42.71875 61.234375 
Q 38.96875 64.796875 32.078125 64.796875 
z
M 9.8125 72.90625 
L 32.078125 72.90625 
Q 44.34375 72.90625 50.609375 67.359375 
Q 56.890625 61.8125 56.890625 51.125 
Q 56.890625 40.328125 50.609375 34.8125 
Q 44.34375 29.296875 32.078125 29.296875 
L 19.671875 29.296875 
L 19.671875 0 
L 9.8125 0 
z
" id="DejaVuSans-50"/>
     <path id="DejaVuSans-20"/>
     <path d="M 9.421875 54.6875 
L 18.40625 54.6875 
L 18.40625 -0.984375 
Q 18.40625 -11.421875 14.421875 -16.109375 
Q 10.453125 -20.796875 1.609375 -20.796875 
L -1.8125 -20.796875 
L -1.8125 -13.1875 
L 0.59375 -13.1875 
Q 5.71875 -13.1875 7.5625 -10.8125 
Q 9.421875 -8.453125 9.421875 -0.984375 
z
M 9.421875 75.984375 
L 18.40625 75.984375 
L 18.40625 64.59375 
L 9.421875 64.59375 
z
" id="DejaVuSans-6a"/>
     <path d="M 32.171875 -5.078125 
Q 28.375 -14.84375 24.75 -17.8125 
Q 21.140625 -20.796875 15.09375 -20.796875 
L 7.90625 -20.796875 
L 7.90625 -13.28125 
L 13.1875 -13.28125 
Q 16.890625 -13.28125 18.9375 -11.515625 
Q 21 -9.765625 23.484375 -3.21875 
L 25.09375 0.875 
L 2.984375 54.6875 
L 12.5 54.6875 
L 29.59375 11.921875 
L 46.6875 54.6875 
L 56.203125 54.6875 
z
" id="DejaVuSans-79"/>
     <path d="M 54.890625 33.015625 
L 54.890625 0 
L 45.90625 0 
L 45.90625 32.71875 
Q 45.90625 40.484375 42.875 44.328125 
Q 39.84375 48.1875 33.796875 48.1875 
Q 26.515625 48.1875 22.3125 43.546875 
Q 18.109375 38.921875 18.109375 30.90625 
L 18.109375 0 
L 9.078125 0 
L 9.078125 75.984375 
L 18.109375 75.984375 
L 18.109375 46.1875 
Q 21.34375 51.125 25.703125 53.5625 
Q 30.078125 56 35.796875 56 
Q 45.21875 56 50.046875 50.171875 
Q 54.890625 44.34375 54.890625 33.015625 
z
" id="DejaVuSans-68"/>
     <path d="M 52 44.1875 
Q 55.375 50.25 60.0625 53.125 
Q 64.75 56 71.09375 56 
Q 79.640625 56 84.28125 50.015625 
Q 88.921875 44.046875 88.921875 33.015625 
L 88.921875 0 
L 79.890625 0 
L 79.890625 32.71875 
Q 79.890625 40.578125 77.09375 44.375 
Q 74.3125 48.1875 68.609375 48.1875 
Q 61.625 48.1875 57.5625 43.546875 
Q 53.515625 38.921875 53.515625 30.90625 
L 53.515625 0 
L 44.484375 0 
L 44.484375 32.71875 
Q 44.484375 40.625 41.703125 44.40625 
Q 38.921875 48.1875 33.109375 48.1875 
Q 26.21875 48.1875 22.15625 43.53125 
Q 18.109375 38.875 18.109375 30.90625 
L 18.109375 0 
L 9.078125 0 
L 9.078125 54.6875 
L 18.109375 54.6875 
L 18.109375 46.1875 
Q 21.1875 51.21875 25.484375 53.609375 
Q 29.78125 56 35.6875 56 
Q 41.65625 56 45.828125 52.96875 
Q 50 49.953125 52 44.1875 
z
" id="DejaVuSans-6d"/>
     <path d="M 11.71875 12.40625 
L 22.015625 12.40625 
L 22.015625 4 
L 14.015625 -11.625 
L 7.71875 -11.625 
L 11.71875 4 
z
" id="DejaVuSans-2c"/>
     <path d="M 8.5 21.578125 
L 8.5 54.6875 
L 17.484375 54.6875 
L 17.484375 21.921875 
Q 17.484375 14.15625 20.5 10.265625 
Q 23.53125 6.390625 29.59375 6.390625 
Q 36.859375 6.390625 41.078125 11.03125 
Q 45.3125 15.671875 45.3125 23.6875 
L 45.3125 54.6875 
L 54.296875 54.6875 
L 54.296875 0 
L 45.3125 0 
L 45.3125 8.40625 
Q 42.046875 3.421875 37.71875 1 
Q 33.40625 -1.421875 27.6875 -1.421875 
Q 18.265625 -1.421875 13.375 4.4375 
Q 8.5 10.296875 8.5 21.578125 
z
M 31.109375 56 
z
" id="DejaVuSans-75"/>
    </defs>
    <g transform="translate(104.154375 107.677634)scale(0.12 -0.12)">
     <use xlink:href="#DejaVuSans-50"/>
     <use x="60.271484" xlink:href="#DejaVuSans-69"/>
     <use x="88.054688" xlink:href="#DejaVuSans-6c"/>
     <use x="115.837891" xlink:href="#DejaVuSans-6f"/>
     <use x="177.019531" xlink:href="#DejaVuSans-74"/>
     <use x="216.228516" xlink:href="#DejaVuSans-74"/>
     <use x="255.4375" xlink:href="#DejaVuSans-69"/>
     <use x="283.220703" xlink:href="#DejaVuSans-65"/>
     <use x="344.744141" xlink:href="#DejaVuSans-6e"/>
     <use x="408.123047" xlink:href="#DejaVuSans-20"/>
     <use x="439.910156" xlink:href="#DejaVuSans-6a"/>
     <use x="467.693359" xlink:href="#DejaVuSans-61"/>
     <use x="528.972656" xlink:href="#DejaVuSans-20"/>
     <use x="560.759766" xlink:href="#DejaVuSans-56"/>
     <use x="629.058594" xlink:href="#DejaVuSans-61"/>
     <use x="690.337891" xlink:href="#DejaVuSans-73"/>
     <use x="742.4375" xlink:href="#DejaVuSans-6b"/>
     <use x="800.347656" xlink:href="#DejaVuSans-69"/>
     <use x="828.130859" xlink:href="#DejaVuSans-6e"/>
     <use x="891.509766" xlink:href="#DejaVuSans-20"/>
     <use x="923.296875" xlink:href="#DejaVuSans-61"/>
     <use x="984.576172" xlink:href="#DejaVuSans-69"/>
     <use x="1012.359375" xlink:href="#DejaVuSans-6e"/>
     <use x="1075.738281" xlink:href="#DejaVuSans-65"/>
     <use x="1137.261719" xlink:href="#DejaVuSans-69"/>
     <use x="1165.044922" xlink:href="#DejaVuSans-73"/>
     <use x="1217.144531" xlink:href="#DejaVuSans-74"/>
     <use x="1256.353516" xlink:href="#DejaVuSans-6f"/>
     <use x="1317.535156" xlink:href="#DejaVuSans-6a"/>
     <use x="1345.318359" xlink:href="#DejaVuSans-65"/>
     <use x="1406.841797" xlink:href="#DejaVuSans-6e"/>
     <use x="1470.220703" xlink:href="#DejaVuSans-20"/>
     <use x="1502.007812" xlink:href="#DejaVuSans-79"/>
     <use x="1561.1875" xlink:href="#DejaVuSans-68"/>
     <use x="1624.566406" xlink:href="#DejaVuSans-64"/>
     <use x="1688.042969" xlink:href="#DejaVuSans-69"/>
     <use x="1715.826172" xlink:href="#DejaVuSans-73"/>
     <use x="1767.925781" xlink:href="#DejaVuSans-74"/>
     <use x="1807.134766" xlink:href="#DejaVuSans-79"/>
     <use x="1866.314453" xlink:href="#DejaVuSans-6d"/>
     <use x="1963.726562" xlink:href="#DejaVuSans-69"/>
     <use x="1991.509766" xlink:href="#DejaVuSans-6e"/>
     <use x="2054.888672" xlink:href="#DejaVuSans-65"/>
     <use x="2116.412109" xlink:href="#DejaVuSans-6e"/>
     <use x="2179.791016" xlink:href="#DejaVuSans-20"/>
     <use x="2211.578125" xlink:href="#DejaVuSans-4d"/>
     <use x="2297.857422" xlink:href="#DejaVuSans-65"/>
     <use x="2359.380859" xlink:href="#DejaVuSans-6c"/>
     <use x="2387.164062" xlink:href="#DejaVuSans-69"/>
     <use x="2414.947266" xlink:href="#DejaVuSans-6e"/>
     <use x="2478.326172" xlink:href="#DejaVuSans-64"/>
     <use x="2541.802734" xlink:href="#DejaVuSans-61"/>
     <use x="2603.082031" xlink:href="#DejaVuSans-61"/>
     <use x="2664.361328" xlink:href="#DejaVuSans-6e"/>
     <use x="2727.740234" xlink:href="#DejaVuSans-2c"/>
     <use x="2759.527344" xlink:href="#DejaVuSans-20"/>
     <use x="2791.314453" xlink:href="#DejaVuSans-6f"/>
     <use x="2852.496094" xlink:href="#DejaVuSans-73"/>
     <use x="2904.595703" xlink:href="#DejaVuSans-61"/>
     <use x="2965.875" xlink:href="#DejaVuSans-6b"/>
     <use x="3023.738281" xlink:href="#DejaVuSans-6f"/>
     <use x="3084.919922" xlink:href="#DejaVuSans-68"/>
     <use x="3148.298828" xlink:href="#DejaVuSans-74"/>
     <use x="3187.507812" xlink:href="#DejaVuSans-65"/>
     <use x="3249.03125" xlink:href="#DejaVuSans-65"/>
     <use x="3310.554688" xlink:href="#DejaVuSans-74"/>
     <use x="3349.763672" xlink:href="#DejaVuSans-74"/>
     <use x="3388.972656" xlink:href="#DejaVuSans-6f"/>
     <use x="3450.154297" xlink:href="#DejaVuSans-6d"/>
     <use x="3547.566406" xlink:href="#DejaVuSans-61"/>
     <use x="3608.845703" xlink:href="#DejaVuSans-74"/>
     <use x="3648.054688" xlink:href="#DejaVuSans-20"/>
     <use x="3679.841797" xlink:href="#DejaVuSans-6a"/>
     <use x="3707.625" xlink:href="#DejaVuSans-61"/>
     <use x="3768.904297" xlink:href="#DejaVuSans-20"/>
     <use x="3800.691406" xlink:href="#DejaVuSans-65"/>
     <use x="3862.214844" xlink:href="#DejaVuSans-6d"/>
     <use x="3959.626953" xlink:href="#DejaVuSans-6f"/>
     <use x="4020.808594" xlink:href="#DejaVuSans-74"/>
     <use x="4060.017578" xlink:href="#DejaVuSans-69"/>
     <use x="4087.800781" xlink:href="#DejaVuSans-65"/>
     <use x="4149.324219" xlink:href="#DejaVuSans-74"/>
     <use x="4188.533203" xlink:href="#DejaVuSans-75"/>
     <use x="4251.912109" xlink:href="#DejaVuSans-65"/>
     <use x="4313.435547" xlink:href="#DejaVuSans-65"/>
     <use x="4374.958984" xlink:href="#DejaVuSans-74"/>
    </g>
   </g>
  </g>
 </g>
 <defs>
  <clipPath id="pcb6c065534">
   <rect height="489.044733" width="558" x="90" y="113.677634"/>
  </clipPath>
 </defs>
</svg>
