<?xml version="1.0" encoding="utf-8" standalone="no"?>
<!DOCTYPE svg PUBLIC "-//W3C//DTD SVG 1.1//EN"
  "http://www.w3.org/Graphics/SVG/1.1/DTD/svg11.dtd">
<!-- Created with matplotlib (http://matplotlib.org/) -->
<svg height="720pt" version="1.1" viewBox="0 0 720 720" width="720pt" xmlns="http://www.w3.org/2000/svg" xmlns:xlink="http://www.w3.org/1999/xlink">
 <defs>
  <style type="text/css">
*{stroke-linecap:butt;stroke-linejoin:round;}
  </style>
 </defs>
 <g id="figure_1">
  <g id="patch_1">
   <path d="M 0 720 
L 720 720 
L 720 0 
L 0 0 
z
" style="fill:#ffffff;"/>
  </g>
  <g id="axes_1">
   <g id="patch_2">
    <path clip-path="url(#pfd903be830)" d="M 650.030458 363.036365 
C 649.64287 372.522124 647.698437 381.879961 644.275069 390.734927 
C 640.851701 399.589892 635.995738 407.822119 629.901749 415.101759 
C 632.552453 424.064352 633.701762 433.40414 633.303022 442.741983 
C 632.904281 452.079826 630.96296 461.287639 627.557865 469.991641 
C 634.730219 453.106826 640.241495 435.563687 644.013638 417.610678 
C 647.785782 399.657668 649.800902 381.379944 650.030458 363.036365 
M 650.030458 355.963635 
C 649.598686 321.46125 642.851698 287.327862 630.124037 255.255949 
C 617.396376 223.184035 598.901942 193.712592 575.557767 168.302939 
C 552.213592 142.893285 524.411995 121.972452 493.531497 106.577783 
C 462.650999 91.183114 429.210573 81.57333 394.868337 78.224923 
C 360.526101 74.876517 325.859205 77.845762 292.586582 86.985431 
C 259.313959 96.125099 227.994783 111.281591 200.181991 131.703384 
C 172.369199 152.125176 148.53021 177.469063 129.84706 206.478388 
C 111.163911 235.487712 97.950588 267.674948 90.862264 301.444115 
C 83.77394 335.213283 82.92974 369.996862 88.371523 404.070135 
C 93.813307 438.143409 105.44962 470.933747 122.703485 500.815265 
C 139.95735 530.696784 162.538801 557.167298 189.328154 578.914288 
C 216.117506 600.661278 246.664543 617.319267 279.454612 628.062281 
C 312.244682 638.805295 346.726718 643.452789 381.190957 641.774321 
C 415.655195 640.095852 449.522435 632.119629 481.113394 618.241146 
C 512.704353 604.362664 541.488119 584.815161 566.037471 560.567887 
C 590.586823 536.320612 610.489188 507.781062 624.757722 476.364348 
C 619.553736 486.998719 612.177775 496.425012 603.106883 504.033575 
C 594.035991 511.642139 583.470031 517.26533 572.092362 520.539467 
C 560.714693 523.813604 548.776004 524.666545 537.048437 523.043127 
C 525.32087 521.419709 514.062823 517.3557 504.002415 511.113943 
C 493.942008 504.872186 485.300907 496.590208 478.637979 486.80365 
C 471.975051 477.017092 467.437104 465.941586 465.317631 454.293447 
C 463.198159 442.645307 463.54386 430.681182 466.332378 419.174858 
C 469.120895 407.668534 474.290787 396.873535 481.507689 387.488033 
C 477.492748 375.72864 476.054781 363.241836 477.291675 350.877647 
C 478.52857 338.513458 482.411607 326.558959 488.676453 315.82794 
C 494.9413 305.096921 503.442497 295.838537 513.601335 288.683043 
C 523.760173 281.527549 535.340781 276.641083 547.554821 274.356287 
C 559.768861 272.07149 572.332745 272.441411 584.3912 275.440869 
C 596.449654 278.440326 607.722704 283.999678 617.442946 291.740476 
C 627.163189 299.481274 635.104938 309.223792 640.727568 320.304816 
C 646.350197 331.385841 649.523159 343.548092 650.030458 355.963635 
" style="fill:#ff0000;opacity:0.4;"/>
   </g>
   <g id="patch_3">
    <path clip-path="url(#pfd903be830)" d="M 650.030458 355.963635 
C 649.523159 343.548092 646.350197 331.385841 640.727568 320.304816 
C 635.104938 309.223792 627.163189 299.481274 617.442946 291.740476 
C 607.722704 283.999678 596.449654 278.440326 584.3912 275.440869 
C 572.332745 272.441411 559.768861 272.07149 547.554821 274.356287 
C 535.340781 276.641083 523.760173 281.527549 513.601335 288.683043 
C 503.442497 295.838537 494.9413 305.096921 488.676453 315.82794 
C 482.411607 326.558959 478.52857 338.513458 477.291675 350.877647 
C 476.054781 363.241836 477.492748 375.72864 481.507689 387.488033 
C 491.027761 375.107283 503.788641 365.596983 518.373936 360.012728 
C 532.95923 354.428472 548.808574 352.984808 564.16277 355.841975 
C 579.516965 358.699141 593.786107 365.747367 605.38639 376.204333 
C 616.986674 386.661299 625.472418 400.125252 629.901749 415.101759 
C 635.995738 407.822119 640.851701 399.589892 644.275069 390.734927 
C 647.698437 381.879961 649.64287 372.522124 650.030458 363.036365 
C 650.045209 361.857634 650.052585 360.678823 650.052585 359.5 
C 650.052585 358.321177 650.045209 357.142366 650.030458 355.963635 
" style="fill:#b25900;opacity:0.4;"/>
   </g>
   <g id="patch_4">
    <path clip-path="url(#pfd903be830)" d="M 629.901749 415.101759 
C 620.042371 426.879384 607.225514 435.825357 592.770489 441.018819 
C 578.315464 446.21228 562.735872 447.4687 547.63541 444.658749 
C 532.534947 441.848798 518.450148 435.072316 506.830841 425.026845 
C 495.211534 414.981374 486.470564 402.023839 481.507689 387.488033 
C 474.290787 396.873535 469.120895 407.668534 466.332378 419.174858 
C 463.54386 430.681182 463.198159 442.645307 465.317631 454.293447 
C 467.437104 465.941586 471.975051 477.017092 478.637979 486.80365 
C 485.300907 496.590208 493.942008 504.872186 504.002415 511.113943 
C 514.062823 517.3557 525.32087 521.419709 537.048437 523.043127 
C 548.776004 524.666545 560.714693 523.813604 572.092362 520.539467 
C 583.470031 517.26533 594.035991 511.642139 603.106883 504.033575 
C 612.177775 496.425012 619.553736 486.998719 624.757722 476.364348 
C 625.237471 475.308028 625.71071 474.248764 626.177414 473.186616 
C 626.644118 472.124467 627.104277 471.059456 627.557865 469.991641 
C 630.96296 461.287639 632.904281 452.079826 633.303022 442.741983 
C 633.701762 433.40414 632.552453 424.064352 629.901749 415.101759 
" style="fill:#b200b2;opacity:0.4;"/>
   </g>
   <g id="patch_5">
    <path clip-path="url(#pfd903be830)" d="M 481.507689 387.488033 
C 486.470564 402.023839 495.211534 414.981374 506.830841 425.026845 
C 518.450148 435.072316 532.534947 441.848798 547.63541 444.658749 
C 562.735872 447.4687 578.315464 446.21228 592.770489 441.018819 
C 607.225514 435.825357 620.042371 426.879384 629.901749 415.101759 
C 625.472418 400.125252 616.986674 386.661299 605.38639 376.204333 
C 593.786107 365.747367 579.516965 358.699141 564.16277 355.841975 
C 548.808574 352.984808 532.95923 354.428472 518.373936 360.012728 
C 503.788641 365.596983 491.027761 375.107283 481.507689 387.488033 
" style="fill:#663366;opacity:0.4;"/>
   </g>
   <g id="patch_6">
    <path clip-path="url(#pfd903be830)" d="M 367.443704 642.10888 
C 442.392456 642.10888 514.28159 612.331426 567.27836 559.334656 
C 620.27513 506.337885 650.052585 434.448751 650.052585 359.5 
C 650.052585 284.551249 620.27513 212.662115 567.27836 159.665344 
C 514.28159 106.668574 442.392456 76.89112 367.443704 76.89112 
C 292.494953 76.89112 220.605819 106.668574 167.609049 159.665344 
C 114.612279 212.662115 84.834824 284.551249 84.834824 359.5 
C 84.834824 434.448751 114.612279 506.337885 167.609049 559.334656 
C 220.605819 612.331426 292.494953 642.10888 367.443704 642.10888 
z
" style="fill:none;stroke:#000000;stroke-dasharray:2,3.3;stroke-dashoffset:0;stroke-linejoin:miter;stroke-width:2;"/>
   </g>
   <g id="patch_7">
    <path clip-path="url(#pfd903be830)" d="M 563.482071 446.120605 
C 586.454124 446.120605 608.488393 436.993712 624.732088 420.750017 
C 640.975782 404.506323 650.102676 382.472053 650.102676 359.5 
C 650.102676 336.527947 640.975782 314.493677 624.732088 298.249983 
C 608.488393 282.006288 586.454124 272.879395 563.482071 272.879395 
C 540.510018 272.879395 518.475748 282.006288 502.232053 298.249983 
C 485.988359 314.493677 476.861466 336.527947 476.861466 359.5 
C 476.861466 382.472053 485.988359 404.506323 502.232053 420.750017 
C 518.475748 436.993712 540.510018 446.120605 563.482071 446.120605 
z
" style="fill:none;stroke:#000000;stroke-dasharray:7.4,3.2;stroke-dashoffset:0;stroke-linejoin:miter;stroke-width:2;"/>
   </g>
   <g id="patch_8">
    <path clip-path="url(#pfd903be830)" d="M 548.664631 523.843312 
C 571.13145 523.843312 592.681111 514.917151 608.567551 499.030711 
C 624.453991 483.144271 633.380152 461.59461 633.380152 439.127791 
C 633.380152 416.660972 624.453991 395.111312 608.567551 379.224872 
C 592.681111 363.338432 571.13145 354.41227 548.664631 354.41227 
C 526.197812 354.41227 504.648152 363.338432 488.761712 379.224872 
C 472.875272 395.111312 463.94911 416.660972 463.94911 439.127791 
C 463.94911 461.59461 472.875272 483.144271 488.761712 499.030711 
C 504.648152 514.917151 526.197812 523.843312 548.664631 523.843312 
z
" style="fill:none;stroke:#000000;stroke-linejoin:miter;"/>
   </g>
   <g id="text_1">
    <!-- 5883932 -->
    <defs>
     <path d="M 10.796875 72.90625 
L 49.515625 72.90625 
L 49.515625 64.59375 
L 19.828125 64.59375 
L 19.828125 46.734375 
Q 21.96875 47.46875 24.109375 47.828125 
Q 26.265625 48.1875 28.421875 48.1875 
Q 40.625 48.1875 47.75 41.5 
Q 54.890625 34.8125 54.890625 23.390625 
Q 54.890625 11.625 47.5625 5.09375 
Q 40.234375 -1.421875 26.90625 -1.421875 
Q 22.3125 -1.421875 17.546875 -0.640625 
Q 12.796875 0.140625 7.71875 1.703125 
L 7.71875 11.625 
Q 12.109375 9.234375 16.796875 8.0625 
Q 21.484375 6.890625 26.703125 6.890625 
Q 35.15625 6.890625 40.078125 11.328125 
Q 45.015625 15.765625 45.015625 23.390625 
Q 45.015625 31 40.078125 35.4375 
Q 35.15625 39.890625 26.703125 39.890625 
Q 22.75 39.890625 18.8125 39.015625 
Q 14.890625 38.140625 10.796875 36.28125 
z
" id="DejaVuSans-35"/>
     <path d="M 31.78125 34.625 
Q 24.75 34.625 20.71875 30.859375 
Q 16.703125 27.09375 16.703125 20.515625 
Q 16.703125 13.921875 20.71875 10.15625 
Q 24.75 6.390625 31.78125 6.390625 
Q 38.8125 6.390625 42.859375 10.171875 
Q 46.921875 13.96875 46.921875 20.515625 
Q 46.921875 27.09375 42.890625 30.859375 
Q 38.875 34.625 31.78125 34.625 
z
M 21.921875 38.8125 
Q 15.578125 40.375 12.03125 44.71875 
Q 8.5 49.078125 8.5 55.328125 
Q 8.5 64.0625 14.71875 69.140625 
Q 20.953125 74.21875 31.78125 74.21875 
Q 42.671875 74.21875 48.875 69.140625 
Q 55.078125 64.0625 55.078125 55.328125 
Q 55.078125 49.078125 51.53125 44.71875 
Q 48 40.375 41.703125 38.8125 
Q 48.828125 37.15625 52.796875 32.3125 
Q 56.78125 27.484375 56.78125 20.515625 
Q 56.78125 9.90625 50.3125 4.234375 
Q 43.84375 -1.421875 31.78125 -1.421875 
Q 19.734375 -1.421875 13.25 4.234375 
Q 6.78125 9.90625 6.78125 20.515625 
Q 6.78125 27.484375 10.78125 32.3125 
Q 14.796875 37.15625 21.921875 38.8125 
z
M 18.3125 54.390625 
Q 18.3125 48.734375 21.84375 45.5625 
Q 25.390625 42.390625 31.78125 42.390625 
Q 38.140625 42.390625 41.71875 45.5625 
Q 45.3125 48.734375 45.3125 54.390625 
Q 45.3125 60.0625 41.71875 63.234375 
Q 38.140625 66.40625 31.78125 66.40625 
Q 25.390625 66.40625 21.84375 63.234375 
Q 18.3125 60.0625 18.3125 54.390625 
z
" id="DejaVuSans-38"/>
     <path d="M 40.578125 39.3125 
Q 47.65625 37.796875 51.625 33 
Q 55.609375 28.21875 55.609375 21.1875 
Q 55.609375 10.40625 48.1875 4.484375 
Q 40.765625 -1.421875 27.09375 -1.421875 
Q 22.515625 -1.421875 17.65625 -0.515625 
Q 12.796875 0.390625 7.625 2.203125 
L 7.625 11.71875 
Q 11.71875 9.328125 16.59375 8.109375 
Q 21.484375 6.890625 26.8125 6.890625 
Q 36.078125 6.890625 40.9375 10.546875 
Q 45.796875 14.203125 45.796875 21.1875 
Q 45.796875 27.640625 41.28125 31.265625 
Q 36.765625 34.90625 28.71875 34.90625 
L 20.21875 34.90625 
L 20.21875 43.015625 
L 29.109375 43.015625 
Q 36.375 43.015625 40.234375 45.921875 
Q 44.09375 48.828125 44.09375 54.296875 
Q 44.09375 59.90625 40.109375 62.90625 
Q 36.140625 65.921875 28.71875 65.921875 
Q 24.65625 65.921875 20.015625 65.03125 
Q 15.375 64.15625 9.8125 62.3125 
L 9.8125 71.09375 
Q 15.4375 72.65625 20.34375 73.4375 
Q 25.25 74.21875 29.59375 74.21875 
Q 40.828125 74.21875 47.359375 69.109375 
Q 53.90625 64.015625 53.90625 55.328125 
Q 53.90625 49.265625 50.4375 45.09375 
Q 46.96875 40.921875 40.578125 39.3125 
z
" id="DejaVuSans-33"/>
     <path d="M 10.984375 1.515625 
L 10.984375 10.5 
Q 14.703125 8.734375 18.5 7.8125 
Q 22.3125 6.890625 25.984375 6.890625 
Q 35.75 6.890625 40.890625 13.453125 
Q 46.046875 20.015625 46.78125 33.40625 
Q 43.953125 29.203125 39.59375 26.953125 
Q 35.25 24.703125 29.984375 24.703125 
Q 19.046875 24.703125 12.671875 31.3125 
Q 6.296875 37.9375 6.296875 49.421875 
Q 6.296875 60.640625 12.9375 67.421875 
Q 19.578125 74.21875 30.609375 74.21875 
Q 43.265625 74.21875 49.921875 64.515625 
Q 56.59375 54.828125 56.59375 36.375 
Q 56.59375 19.140625 48.40625 8.859375 
Q 40.234375 -1.421875 26.421875 -1.421875 
Q 22.703125 -1.421875 18.890625 -0.6875 
Q 15.09375 0.046875 10.984375 1.515625 
z
M 30.609375 32.421875 
Q 37.25 32.421875 41.125 36.953125 
Q 45.015625 41.5 45.015625 49.421875 
Q 45.015625 57.28125 41.125 61.84375 
Q 37.25 66.40625 30.609375 66.40625 
Q 23.96875 66.40625 20.09375 61.84375 
Q 16.21875 57.28125 16.21875 49.421875 
Q 16.21875 41.5 20.09375 36.953125 
Q 23.96875 32.421875 30.609375 32.421875 
z
" id="DejaVuSans-39"/>
     <path d="M 19.1875 8.296875 
L 53.609375 8.296875 
L 53.609375 0 
L 7.328125 0 
L 7.328125 8.296875 
Q 12.9375 14.109375 22.625 23.890625 
Q 32.328125 33.6875 34.8125 36.53125 
Q 39.546875 41.84375 41.421875 45.53125 
Q 43.3125 49.21875 43.3125 52.78125 
Q 43.3125 58.59375 39.234375 62.25 
Q 35.15625 65.921875 28.609375 65.921875 
Q 23.96875 65.921875 18.8125 64.3125 
Q 13.671875 62.703125 7.8125 59.421875 
L 7.8125 69.390625 
Q 13.765625 71.78125 18.9375 73 
Q 24.125 74.21875 28.421875 74.21875 
Q 39.75 74.21875 46.484375 68.546875 
Q 53.21875 62.890625 53.21875 53.421875 
Q 53.21875 48.921875 51.53125 44.890625 
Q 49.859375 40.875 45.40625 35.40625 
Q 44.1875 33.984375 37.640625 27.21875 
Q 31.109375 20.453125 19.1875 8.296875 
z
" id="DejaVuSans-32"/>
    </defs>
    <g transform="translate(302.188749 352.380985)scale(0.1 -0.1)">
     <use xlink:href="#DejaVuSans-35"/>
     <use x="63.623047" xlink:href="#DejaVuSans-38"/>
     <use x="127.246094" xlink:href="#DejaVuSans-38"/>
     <use x="190.869141" xlink:href="#DejaVuSans-33"/>
     <use x="254.492188" xlink:href="#DejaVuSans-39"/>
     <use x="318.115234" xlink:href="#DejaVuSans-33"/>
     <use x="381.738281" xlink:href="#DejaVuSans-32"/>
    </g>
   </g>
   <g id="text_2">
    <!-- 380141 -->
    <defs>
     <path d="M 31.78125 66.40625 
Q 24.171875 66.40625 20.328125 58.90625 
Q 16.5 51.421875 16.5 36.375 
Q 16.5 21.390625 20.328125 13.890625 
Q 24.171875 6.390625 31.78125 6.390625 
Q 39.453125 6.390625 43.28125 13.890625 
Q 47.125 21.390625 47.125 36.375 
Q 47.125 51.421875 43.28125 58.90625 
Q 39.453125 66.40625 31.78125 66.40625 
z
M 31.78125 74.21875 
Q 44.046875 74.21875 50.515625 64.515625 
Q 56.984375 54.828125 56.984375 36.375 
Q 56.984375 17.96875 50.515625 8.265625 
Q 44.046875 -1.421875 31.78125 -1.421875 
Q 19.53125 -1.421875 13.0625 8.265625 
Q 6.59375 17.96875 6.59375 36.375 
Q 6.59375 54.828125 13.0625 64.515625 
Q 19.53125 74.21875 31.78125 74.21875 
z
" id="DejaVuSans-30"/>
     <path d="M 12.40625 8.296875 
L 28.515625 8.296875 
L 28.515625 63.921875 
L 10.984375 60.40625 
L 10.984375 69.390625 
L 28.421875 72.90625 
L 38.28125 72.90625 
L 38.28125 8.296875 
L 54.390625 8.296875 
L 54.390625 0 
L 12.40625 0 
z
" id="DejaVuSans-31"/>
     <path d="M 37.796875 64.3125 
L 12.890625 25.390625 
L 37.796875 25.390625 
z
M 35.203125 72.90625 
L 47.609375 72.90625 
L 47.609375 25.390625 
L 58.015625 25.390625 
L 58.015625 17.1875 
L 47.609375 17.1875 
L 47.609375 0 
L 37.796875 0 
L 37.796875 17.1875 
L 4.890625 17.1875 
L 4.890625 26.703125 
z
" id="DejaVuSans-34"/>
    </defs>
    <g transform="translate(544.719093 317.949504)scale(0.1 -0.1)">
     <use xlink:href="#DejaVuSans-33"/>
     <use x="63.623047" xlink:href="#DejaVuSans-38"/>
     <use x="127.246094" xlink:href="#DejaVuSans-30"/>
     <use x="190.869141" xlink:href="#DejaVuSans-31"/>
     <use x="254.492188" xlink:href="#DejaVuSans-34"/>
     <use x="318.115234" xlink:href="#DejaVuSans-31"/>
    </g>
   </g>
   <g id="text_3">
    <!-- 352013 -->
    <g transform="translate(514.334756 483.482139)scale(0.1 -0.1)">
     <use xlink:href="#DejaVuSans-33"/>
     <use x="63.623047" xlink:href="#DejaVuSans-35"/>
     <use x="127.246094" xlink:href="#DejaVuSans-32"/>
     <use x="190.869141" xlink:href="#DejaVuSans-30"/>
     <use x="254.492188" xlink:href="#DejaVuSans-31"/>
     <use x="318.115234" xlink:href="#DejaVuSans-33"/>
    </g>
   </g>
   <g id="text_4">
    <!-- 266433 -->
    <defs>
     <path d="M 33.015625 40.375 
Q 26.375 40.375 22.484375 35.828125 
Q 18.609375 31.296875 18.609375 23.390625 
Q 18.609375 15.53125 22.484375 10.953125 
Q 26.375 6.390625 33.015625 6.390625 
Q 39.65625 6.390625 43.53125 10.953125 
Q 47.40625 15.53125 47.40625 23.390625 
Q 47.40625 31.296875 43.53125 35.828125 
Q 39.65625 40.375 33.015625 40.375 
z
M 52.59375 71.296875 
L 52.59375 62.3125 
Q 48.875 64.0625 45.09375 64.984375 
Q 41.3125 65.921875 37.59375 65.921875 
Q 27.828125 65.921875 22.671875 59.328125 
Q 17.53125 52.734375 16.796875 39.40625 
Q 19.671875 43.65625 24.015625 45.921875 
Q 28.375 48.1875 33.59375 48.1875 
Q 44.578125 48.1875 50.953125 41.515625 
Q 57.328125 34.859375 57.328125 23.390625 
Q 57.328125 12.15625 50.6875 5.359375 
Q 44.046875 -1.421875 33.015625 -1.421875 
Q 20.359375 -1.421875 13.671875 8.265625 
Q 6.984375 17.96875 6.984375 36.375 
Q 6.984375 53.65625 15.1875 63.9375 
Q 23.390625 74.21875 37.203125 74.21875 
Q 40.921875 74.21875 44.703125 73.484375 
Q 48.484375 72.75 52.59375 71.296875 
z
" id="DejaVuSans-36"/>
    </defs>
    <g transform="translate(536.81159 403.009737)scale(0.1 -0.1)">
     <use xlink:href="#DejaVuSans-32"/>
     <use x="63.623047" xlink:href="#DejaVuSans-36"/>
     <use x="127.246094" xlink:href="#DejaVuSans-36"/>
     <use x="190.869141" xlink:href="#DejaVuSans-34"/>
     <use x="254.492188" xlink:href="#DejaVuSans-33"/>
     <use x="318.115234" xlink:href="#DejaVuSans-33"/>
    </g>
   </g>
   <g id="text_5">
    <!-- Melinda -->
    <defs>
     <path d="M 9.8125 72.90625 
L 24.515625 72.90625 
L 43.109375 23.296875 
L 61.8125 72.90625 
L 76.515625 72.90625 
L 76.515625 0 
L 66.890625 0 
L 66.890625 64.015625 
L 48.09375 14.015625 
L 38.1875 14.015625 
L 19.390625 64.015625 
L 19.390625 0 
L 9.8125 0 
z
" id="DejaVuSans-4d"/>
     <path d="M 56.203125 29.59375 
L 56.203125 25.203125 
L 14.890625 25.203125 
Q 15.484375 15.921875 20.484375 11.0625 
Q 25.484375 6.203125 34.421875 6.203125 
Q 39.59375 6.203125 44.453125 7.46875 
Q 49.3125 8.734375 54.109375 11.28125 
L 54.109375 2.78125 
Q 49.265625 0.734375 44.1875 -0.34375 
Q 39.109375 -1.421875 33.890625 -1.421875 
Q 20.796875 -1.421875 13.15625 6.1875 
Q 5.515625 13.8125 5.515625 26.8125 
Q 5.515625 40.234375 12.765625 48.109375 
Q 20.015625 56 32.328125 56 
Q 43.359375 56 49.78125 48.890625 
Q 56.203125 41.796875 56.203125 29.59375 
z
M 47.21875 32.234375 
Q 47.125 39.59375 43.09375 43.984375 
Q 39.0625 48.390625 32.421875 48.390625 
Q 24.90625 48.390625 20.390625 44.140625 
Q 15.875 39.890625 15.1875 32.171875 
z
" id="DejaVuSans-65"/>
     <path d="M 9.421875 75.984375 
L 18.40625 75.984375 
L 18.40625 0 
L 9.421875 0 
z
" id="DejaVuSans-6c"/>
     <path d="M 9.421875 54.6875 
L 18.40625 54.6875 
L 18.40625 0 
L 9.421875 0 
z
M 9.421875 75.984375 
L 18.40625 75.984375 
L 18.40625 64.59375 
L 9.421875 64.59375 
z
" id="DejaVuSans-69"/>
     <path d="M 54.890625 33.015625 
L 54.890625 0 
L 45.90625 0 
L 45.90625 32.71875 
Q 45.90625 40.484375 42.875 44.328125 
Q 39.84375 48.1875 33.796875 48.1875 
Q 26.515625 48.1875 22.3125 43.546875 
Q 18.109375 38.921875 18.109375 30.90625 
L 18.109375 0 
L 9.078125 0 
L 9.078125 54.6875 
L 18.109375 54.6875 
L 18.109375 46.1875 
Q 21.34375 51.125 25.703125 53.5625 
Q 30.078125 56 35.796875 56 
Q 45.21875 56 50.046875 50.171875 
Q 54.890625 44.34375 54.890625 33.015625 
z
" id="DejaVuSans-6e"/>
     <path d="M 45.40625 46.390625 
L 45.40625 75.984375 
L 54.390625 75.984375 
L 54.390625 0 
L 45.40625 0 
L 45.40625 8.203125 
Q 42.578125 3.328125 38.25 0.953125 
Q 33.9375 -1.421875 27.875 -1.421875 
Q 17.96875 -1.421875 11.734375 6.484375 
Q 5.515625 14.40625 5.515625 27.296875 
Q 5.515625 40.1875 11.734375 48.09375 
Q 17.96875 56 27.875 56 
Q 33.9375 56 38.25 53.625 
Q 42.578125 51.265625 45.40625 46.390625 
z
M 14.796875 27.296875 
Q 14.796875 17.390625 18.875 11.75 
Q 22.953125 6.109375 30.078125 6.109375 
Q 37.203125 6.109375 41.296875 11.75 
Q 45.40625 17.390625 45.40625 27.296875 
Q 45.40625 37.203125 41.296875 42.84375 
Q 37.203125 48.484375 30.078125 48.484375 
Q 22.953125 48.484375 18.875 42.84375 
Q 14.796875 37.203125 14.796875 27.296875 
z
" id="DejaVuSans-64"/>
     <path d="M 34.28125 27.484375 
Q 23.390625 27.484375 19.1875 25 
Q 14.984375 22.515625 14.984375 16.5 
Q 14.984375 11.71875 18.140625 8.90625 
Q 21.296875 6.109375 26.703125 6.109375 
Q 34.1875 6.109375 38.703125 11.40625 
Q 43.21875 16.703125 43.21875 25.484375 
L 43.21875 27.484375 
z
M 52.203125 31.203125 
L 52.203125 0 
L 43.21875 0 
L 43.21875 8.296875 
Q 40.140625 3.328125 35.546875 0.953125 
Q 30.953125 -1.421875 24.3125 -1.421875 
Q 15.921875 -1.421875 10.953125 3.296875 
Q 6 8.015625 6 15.921875 
Q 6 25.140625 12.171875 29.828125 
Q 18.359375 34.515625 30.609375 34.515625 
L 43.21875 34.515625 
L 43.21875 35.40625 
Q 43.21875 41.609375 39.140625 45 
Q 35.0625 48.390625 27.6875 48.390625 
Q 23 48.390625 18.546875 47.265625 
Q 14.109375 46.140625 10.015625 43.890625 
L 10.015625 52.203125 
Q 14.9375 54.109375 19.578125 55.046875 
Q 24.21875 56 28.609375 56 
Q 40.484375 56 46.34375 49.84375 
Q 52.203125 43.703125 52.203125 31.203125 
z
" id="DejaVuSans-61"/>
    </defs>
    <g transform="translate(179.157389 76.89112)scale(0.12 -0.12)">
     <use xlink:href="#DejaVuSans-4d"/>
     <use x="86.279297" xlink:href="#DejaVuSans-65"/>
     <use x="147.802734" xlink:href="#DejaVuSans-6c"/>
     <use x="175.585938" xlink:href="#DejaVuSans-69"/>
     <use x="203.369141" xlink:href="#DejaVuSans-6e"/>
     <use x="266.748047" xlink:href="#DejaVuSans-64"/>
     <use x="330.224609" xlink:href="#DejaVuSans-61"/>
    </g>
   </g>
   <g id="text_6">
    <!-- pilotit -->
    <defs>
     <path d="M 18.109375 8.203125 
L 18.109375 -20.796875 
L 9.078125 -20.796875 
L 9.078125 54.6875 
L 18.109375 54.6875 
L 18.109375 46.390625 
Q 20.953125 51.265625 25.265625 53.625 
Q 29.59375 56 35.59375 56 
Q 45.5625 56 51.78125 48.09375 
Q 58.015625 40.1875 58.015625 27.296875 
Q 58.015625 14.40625 51.78125 6.484375 
Q 45.5625 -1.421875 35.59375 -1.421875 
Q 29.59375 -1.421875 25.265625 0.953125 
Q 20.953125 3.328125 18.109375 8.203125 
z
M 48.6875 27.296875 
Q 48.6875 37.203125 44.609375 42.84375 
Q 40.53125 48.484375 33.40625 48.484375 
Q 26.265625 48.484375 22.1875 42.84375 
Q 18.109375 37.203125 18.109375 27.296875 
Q 18.109375 17.390625 22.1875 11.75 
Q 26.265625 6.109375 33.40625 6.109375 
Q 40.53125 6.109375 44.609375 11.75 
Q 48.6875 17.390625 48.6875 27.296875 
z
" id="DejaVuSans-70"/>
     <path d="M 30.609375 48.390625 
Q 23.390625 48.390625 19.1875 42.75 
Q 14.984375 37.109375 14.984375 27.296875 
Q 14.984375 17.484375 19.15625 11.84375 
Q 23.34375 6.203125 30.609375 6.203125 
Q 37.796875 6.203125 41.984375 11.859375 
Q 46.1875 17.53125 46.1875 27.296875 
Q 46.1875 37.015625 41.984375 42.703125 
Q 37.796875 48.390625 30.609375 48.390625 
z
M 30.609375 56 
Q 42.328125 56 49.015625 48.375 
Q 55.71875 40.765625 55.71875 27.296875 
Q 55.71875 13.875 49.015625 6.21875 
Q 42.328125 -1.421875 30.609375 -1.421875 
Q 18.84375 -1.421875 12.171875 6.21875 
Q 5.515625 13.875 5.515625 27.296875 
Q 5.515625 40.765625 12.171875 48.375 
Q 18.84375 56 30.609375 56 
z
" id="DejaVuSans-6f"/>
     <path d="M 18.3125 70.21875 
L 18.3125 54.6875 
L 36.8125 54.6875 
L 36.8125 47.703125 
L 18.3125 47.703125 
L 18.3125 18.015625 
Q 18.3125 11.328125 20.140625 9.421875 
Q 21.96875 7.515625 27.59375 7.515625 
L 36.8125 7.515625 
L 36.8125 0 
L 27.59375 0 
Q 17.1875 0 13.234375 3.875 
Q 9.28125 7.765625 9.28125 18.015625 
L 9.28125 47.703125 
L 2.6875 47.703125 
L 2.6875 54.6875 
L 9.28125 54.6875 
L 9.28125 70.21875 
z
" id="DejaVuSans-74"/>
    </defs>
    <g transform="translate(606.792373 272.879395)scale(0.12 -0.12)">
     <use xlink:href="#DejaVuSans-70"/>
     <use x="63.476562" xlink:href="#DejaVuSans-69"/>
     <use x="91.259766" xlink:href="#DejaVuSans-6c"/>
     <use x="119.042969" xlink:href="#DejaVuSans-6f"/>
     <use x="180.224609" xlink:href="#DejaVuSans-74"/>
     <use x="219.433594" xlink:href="#DejaVuSans-69"/>
     <use x="247.216797" xlink:href="#DejaVuSans-74"/>
    </g>
   </g>
   <g id="text_7">
    <!-- Vaski -->
    <defs>
     <path d="M 28.609375 0 
L 0.78125 72.90625 
L 11.078125 72.90625 
L 34.1875 11.53125 
L 57.328125 72.90625 
L 67.578125 72.90625 
L 39.796875 0 
z
" id="DejaVuSans-56"/>
     <path d="M 44.28125 53.078125 
L 44.28125 44.578125 
Q 40.484375 46.53125 36.375 47.5 
Q 32.28125 48.484375 27.875 48.484375 
Q 21.1875 48.484375 17.84375 46.4375 
Q 14.5 44.390625 14.5 40.28125 
Q 14.5 37.15625 16.890625 35.375 
Q 19.28125 33.59375 26.515625 31.984375 
L 29.59375 31.296875 
Q 39.15625 29.25 43.1875 25.515625 
Q 47.21875 21.78125 47.21875 15.09375 
Q 47.21875 7.46875 41.1875 3.015625 
Q 35.15625 -1.421875 24.609375 -1.421875 
Q 20.21875 -1.421875 15.453125 -0.5625 
Q 10.6875 0.296875 5.421875 2 
L 5.421875 11.28125 
Q 10.40625 8.6875 15.234375 7.390625 
Q 20.0625 6.109375 24.8125 6.109375 
Q 31.15625 6.109375 34.5625 8.28125 
Q 37.984375 10.453125 37.984375 14.40625 
Q 37.984375 18.0625 35.515625 20.015625 
Q 33.0625 21.96875 24.703125 23.78125 
L 21.578125 24.515625 
Q 13.234375 26.265625 9.515625 29.90625 
Q 5.8125 33.546875 5.8125 39.890625 
Q 5.8125 47.609375 11.28125 51.796875 
Q 16.75 56 26.8125 56 
Q 31.78125 56 36.171875 55.265625 
Q 40.578125 54.546875 44.28125 53.078125 
z
" id="DejaVuSans-73"/>
     <path d="M 9.078125 75.984375 
L 18.109375 75.984375 
L 18.109375 31.109375 
L 44.921875 54.6875 
L 56.390625 54.6875 
L 27.390625 29.109375 
L 57.625 0 
L 45.90625 0 
L 18.109375 26.703125 
L 18.109375 0 
L 9.078125 0 
z
" id="DejaVuSans-6b"/>
    </defs>
    <g transform="translate(532.623069 541.43299)scale(0.12 -0.12)">
     <use xlink:href="#DejaVuSans-56"/>
     <use x="68.298828" xlink:href="#DejaVuSans-61"/>
     <use x="129.578125" xlink:href="#DejaVuSans-73"/>
     <use x="181.677734" xlink:href="#DejaVuSans-6b"/>
     <use x="239.587891" xlink:href="#DejaVuSans-69"/>
    </g>
   </g>
   <g id="text_8">
    <!-- Pilottien ja Vaskin aineistot Melindassa, osakohteettomat ja emotietueet -->
    <defs>
     <path d="M 19.671875 64.796875 
L 19.671875 37.40625 
L 32.078125 37.40625 
Q 38.96875 37.40625 42.71875 40.96875 
Q 46.484375 44.53125 46.484375 51.125 
Q 46.484375 57.671875 42.71875 61.234375 
Q 38.96875 64.796875 32.078125 64.796875 
z
M 9.8125 72.90625 
L 32.078125 72.90625 
Q 44.34375 72.90625 50.609375 67.359375 
Q 56.890625 61.8125 56.890625 51.125 
Q 56.890625 40.328125 50.609375 34.8125 
Q 44.34375 29.296875 32.078125 29.296875 
L 19.671875 29.296875 
L 19.671875 0 
L 9.8125 0 
z
" id="DejaVuSans-50"/>
     <path id="DejaVuSans-20"/>
     <path d="M 9.421875 54.6875 
L 18.40625 54.6875 
L 18.40625 -0.984375 
Q 18.40625 -11.421875 14.421875 -16.109375 
Q 10.453125 -20.796875 1.609375 -20.796875 
L -1.8125 -20.796875 
L -1.8125 -13.1875 
L 0.59375 -13.1875 
Q 5.71875 -13.1875 7.5625 -10.8125 
Q 9.421875 -8.453125 9.421875 -0.984375 
z
M 9.421875 75.984375 
L 18.40625 75.984375 
L 18.40625 64.59375 
L 9.421875 64.59375 
z
" id="DejaVuSans-6a"/>
     <path d="M 11.71875 12.40625 
L 22.015625 12.40625 
L 22.015625 4 
L 14.015625 -11.625 
L 7.71875 -11.625 
L 11.71875 4 
z
" id="DejaVuSans-2c"/>
     <path d="M 54.890625 33.015625 
L 54.890625 0 
L 45.90625 0 
L 45.90625 32.71875 
Q 45.90625 40.484375 42.875 44.328125 
Q 39.84375 48.1875 33.796875 48.1875 
Q 26.515625 48.1875 22.3125 43.546875 
Q 18.109375 38.921875 18.109375 30.90625 
L 18.109375 0 
L 9.078125 0 
L 9.078125 75.984375 
L 18.109375 75.984375 
L 18.109375 46.1875 
Q 21.34375 51.125 25.703125 53.5625 
Q 30.078125 56 35.796875 56 
Q 45.21875 56 50.046875 50.171875 
Q 54.890625 44.34375 54.890625 33.015625 
z
" id="DejaVuSans-68"/>
     <path d="M 52 44.1875 
Q 55.375 50.25 60.0625 53.125 
Q 64.75 56 71.09375 56 
Q 79.640625 56 84.28125 50.015625 
Q 88.921875 44.046875 88.921875 33.015625 
L 88.921875 0 
L 79.890625 0 
L 79.890625 32.71875 
Q 79.890625 40.578125 77.09375 44.375 
Q 74.3125 48.1875 68.609375 48.1875 
Q 61.625 48.1875 57.5625 43.546875 
Q 53.515625 38.921875 53.515625 30.90625 
L 53.515625 0 
L 44.484375 0 
L 44.484375 32.71875 
Q 44.484375 40.625 41.703125 44.40625 
Q 38.921875 48.1875 33.109375 48.1875 
Q 26.21875 48.1875 22.15625 43.53125 
Q 18.109375 38.875 18.109375 30.90625 
L 18.109375 0 
L 9.078125 0 
L 9.078125 54.6875 
L 18.109375 54.6875 
L 18.109375 46.1875 
Q 21.1875 51.21875 25.484375 53.609375 
Q 29.78125 56 35.6875 56 
Q 41.65625 56 45.828125 52.96875 
Q 50 49.953125 52 44.1875 
z
" id="DejaVuSans-6d"/>
     <path d="M 8.5 21.578125 
L 8.5 54.6875 
L 17.484375 54.6875 
L 17.484375 21.921875 
Q 17.484375 14.15625 20.5 10.265625 
Q 23.53125 6.390625 29.59375 6.390625 
Q 36.859375 6.390625 41.078125 11.03125 
Q 45.3125 15.671875 45.3125 23.6875 
L 45.3125 54.6875 
L 54.296875 54.6875 
L 54.296875 0 
L 45.3125 0 
L 45.3125 8.40625 
Q 42.046875 3.421875 37.71875 1 
Q 33.40625 -1.421875 27.6875 -1.421875 
Q 18.265625 -1.421875 13.375 4.4375 
Q 8.5 10.296875 8.5 21.578125 
z
M 31.109375 56 
z
" id="DejaVuSans-75"/>
    </defs>
    <g transform="translate(149.557187 20.8)scale(0.12 -0.12)">
     <use xlink:href="#DejaVuSans-50"/>
     <use x="60.271484" xlink:href="#DejaVuSans-69"/>
     <use x="88.054688" xlink:href="#DejaVuSans-6c"/>
     <use x="115.837891" xlink:href="#DejaVuSans-6f"/>
     <use x="177.019531" xlink:href="#DejaVuSans-74"/>
     <use x="216.228516" xlink:href="#DejaVuSans-74"/>
     <use x="255.4375" xlink:href="#DejaVuSans-69"/>
     <use x="283.220703" xlink:href="#DejaVuSans-65"/>
     <use x="344.744141" xlink:href="#DejaVuSans-6e"/>
     <use x="408.123047" xlink:href="#DejaVuSans-20"/>
     <use x="439.910156" xlink:href="#DejaVuSans-6a"/>
     <use x="467.693359" xlink:href="#DejaVuSans-61"/>
     <use x="528.972656" xlink:href="#DejaVuSans-20"/>
     <use x="560.759766" xlink:href="#DejaVuSans-56"/>
     <use x="629.058594" xlink:href="#DejaVuSans-61"/>
     <use x="690.337891" xlink:href="#DejaVuSans-73"/>
     <use x="742.4375" xlink:href="#DejaVuSans-6b"/>
     <use x="800.347656" xlink:href="#DejaVuSans-69"/>
     <use x="828.130859" xlink:href="#DejaVuSans-6e"/>
     <use x="891.509766" xlink:href="#DejaVuSans-20"/>
     <use x="923.296875" xlink:href="#DejaVuSans-61"/>
     <use x="984.576172" xlink:href="#DejaVuSans-69"/>
     <use x="1012.359375" xlink:href="#DejaVuSans-6e"/>
     <use x="1075.738281" xlink:href="#DejaVuSans-65"/>
     <use x="1137.261719" xlink:href="#DejaVuSans-69"/>
     <use x="1165.044922" xlink:href="#DejaVuSans-73"/>
     <use x="1217.144531" xlink:href="#DejaVuSans-74"/>
     <use x="1256.353516" xlink:href="#DejaVuSans-6f"/>
     <use x="1317.535156" xlink:href="#DejaVuSans-74"/>
     <use x="1356.744141" xlink:href="#DejaVuSans-20"/>
     <use x="1388.53125" xlink:href="#DejaVuSans-4d"/>
     <use x="1474.810547" xlink:href="#DejaVuSans-65"/>
     <use x="1536.333984" xlink:href="#DejaVuSans-6c"/>
     <use x="1564.117188" xlink:href="#DejaVuSans-69"/>
     <use x="1591.900391" xlink:href="#DejaVuSans-6e"/>
     <use x="1655.279297" xlink:href="#DejaVuSans-64"/>
     <use x="1718.755859" xlink:href="#DejaVuSans-61"/>
     <use x="1780.035156" xlink:href="#DejaVuSans-73"/>
     <use x="1832.134766" xlink:href="#DejaVuSans-73"/>
     <use x="1884.234375" xlink:href="#DejaVuSans-61"/>
     <use x="1945.513672" xlink:href="#DejaVuSans-2c"/>
     <use x="1977.300781" xlink:href="#DejaVuSans-20"/>
     <use x="2009.087891" xlink:href="#DejaVuSans-6f"/>
     <use x="2070.269531" xlink:href="#DejaVuSans-73"/>
     <use x="2122.369141" xlink:href="#DejaVuSans-61"/>
     <use x="2183.648438" xlink:href="#DejaVuSans-6b"/>
     <use x="2241.511719" xlink:href="#DejaVuSans-6f"/>
     <use x="2302.693359" xlink:href="#DejaVuSans-68"/>
     <use x="2366.072266" xlink:href="#DejaVuSans-74"/>
     <use x="2405.28125" xlink:href="#DejaVuSans-65"/>
     <use x="2466.804688" xlink:href="#DejaVuSans-65"/>
     <use x="2528.328125" xlink:href="#DejaVuSans-74"/>
     <use x="2567.537109" xlink:href="#DejaVuSans-74"/>
     <use x="2606.746094" xlink:href="#DejaVuSans-6f"/>
     <use x="2667.927734" xlink:href="#DejaVuSans-6d"/>
     <use x="2765.339844" xlink:href="#DejaVuSans-61"/>
     <use x="2826.619141" xlink:href="#DejaVuSans-74"/>
     <use x="2865.828125" xlink:href="#DejaVuSans-20"/>
     <use x="2897.615234" xlink:href="#DejaVuSans-6a"/>
     <use x="2925.398438" xlink:href="#DejaVuSans-61"/>
     <use x="2986.677734" xlink:href="#DejaVuSans-20"/>
     <use x="3018.464844" xlink:href="#DejaVuSans-65"/>
     <use x="3079.988281" xlink:href="#DejaVuSans-6d"/>
     <use x="3177.400391" xlink:href="#DejaVuSans-6f"/>
     <use x="3238.582031" xlink:href="#DejaVuSans-74"/>
     <use x="3277.791016" xlink:href="#DejaVuSans-69"/>
     <use x="3305.574219" xlink:href="#DejaVuSans-65"/>
     <use x="3367.097656" xlink:href="#DejaVuSans-74"/>
     <use x="3406.306641" xlink:href="#DejaVuSans-75"/>
     <use x="3469.685547" xlink:href="#DejaVuSans-65"/>
     <use x="3531.208984" xlink:href="#DejaVuSans-65"/>
     <use x="3592.732422" xlink:href="#DejaVuSans-74"/>
    </g>
   </g>
  </g>
 </g>
 <defs>
  <clipPath id="pfd903be830">
   <rect height="665.4" width="665.450091" x="34.743704" y="26.8"/>
  </clipPath>
 </defs>
</svg>
